G04*
G04 #@! TF.GenerationSoftware,Altium Limited,Altium Designer,25.2.1 (25)*
G04*
G04 Layer_Color=128*
%FSLAX25Y25*%
%MOIN*%
G70*
G04*
G04 #@! TF.SameCoordinates,6E7B483F-BFF1-4FB3-8246-CE29AB42D2EF*
G04*
G04*
G04 #@! TF.FilePolarity,Positive*
G04*
G01*
G75*
%ADD15C,0.00500*%
D15*
X-58165Y-3000D02*
X-53835D01*
X-56000Y-5165D02*
Y-835D01*
X-58165Y-13000D02*
X-53835D01*
X-56000Y-15165D02*
Y-10835D01*
X-58165Y7000D02*
X-53835D01*
X-56000Y4835D02*
Y9165D01*
X-58165Y-43000D02*
X-53835D01*
X-56000Y-45165D02*
Y-40835D01*
X-58165Y-33000D02*
X-53835D01*
X-56000Y-35165D02*
Y-30835D01*
X-58165Y17000D02*
X-53835D01*
X-56000Y14835D02*
Y19165D01*
X-58165Y57000D02*
X-53835D01*
X-56000Y54835D02*
Y59165D01*
X-58165Y-93000D02*
X-53835D01*
X-56000Y-95165D02*
Y-90835D01*
X-58165Y-83000D02*
X-53835D01*
X-56000Y-85165D02*
Y-80835D01*
X-58165Y-63000D02*
X-53835D01*
X-56000Y-65165D02*
Y-60835D01*
X-58165Y-53000D02*
X-53835D01*
X-56000Y-55165D02*
Y-50835D01*
X-58165Y-73000D02*
X-53835D01*
X-56000Y-75165D02*
Y-70835D01*
X-58165Y27000D02*
X-53835D01*
X-56000Y24835D02*
Y29165D01*
X-58165Y37000D02*
X-53835D01*
X-56000Y34835D02*
Y39165D01*
X-58165Y77000D02*
X-53835D01*
X-56000Y74835D02*
Y79165D01*
X-58165Y87000D02*
X-53835D01*
X-56000Y84835D02*
Y89165D01*
X-58165Y47000D02*
X-53835D01*
X-56000Y44835D02*
Y49165D01*
X-58165Y67000D02*
X-53835D01*
X-56000Y64835D02*
Y69165D01*
X-58165Y-103000D02*
X-53835D01*
X-56000Y-105165D02*
Y-100835D01*
X-58165Y-23000D02*
X-53835D01*
X-56000Y-25165D02*
Y-20835D01*
X5827Y117500D02*
X8189D01*
X7008Y116319D02*
Y118681D01*
X5827Y101043D02*
X8189D01*
X7008Y99862D02*
Y102224D01*
X98Y104512D02*
X2657D01*
X1378Y103232D02*
Y105791D01*
X-28189Y117500D02*
X-25827D01*
X-27008Y116319D02*
Y118681D01*
X-22658Y104512D02*
X-20098D01*
X-21378Y103232D02*
Y105791D01*
X-28189Y101043D02*
X-25827D01*
X-27008Y99862D02*
Y102224D01*
X50606Y15000D02*
X51394D01*
X51000Y14606D02*
Y15394D01*
X29606Y-8500D02*
X30394D01*
X30000Y-8894D02*
Y-8106D01*
X28965Y-14642D02*
X29752D01*
X29358Y-15035D02*
Y-14248D01*
X-27894Y32500D02*
X-27106D01*
X-27500Y32106D02*
Y32894D01*
X-23793Y36400D02*
X-23006D01*
X-23400Y36006D02*
Y36793D01*
X-43394Y121319D02*
X-42606D01*
X-43000Y120926D02*
Y121713D01*
X-25894Y7500D02*
X-25106D01*
X-25500Y7106D02*
Y7894D01*
X44106Y103000D02*
X44894D01*
X44500Y102606D02*
Y103394D01*
X-18871Y17987D02*
X-18083D01*
X-18477Y17593D02*
Y18381D01*
X63106Y-43000D02*
X63894D01*
X63500Y-43394D02*
Y-42606D01*
X36606Y-43000D02*
X37394D01*
X37000Y-43394D02*
Y-42606D01*
X-18687Y-34307D02*
X-17900D01*
X-18293Y-34701D02*
Y-33913D01*
X-24538Y-36429D02*
X-23751D01*
X-24144Y-36822D02*
Y-36035D01*
X50746Y-20106D02*
X51533D01*
X51140Y-20500D02*
Y-19712D01*
X19106Y5500D02*
X19894D01*
X19500Y5106D02*
Y5894D01*
X48266Y84000D02*
X49053D01*
X48660Y83606D02*
Y84394D01*
X43108Y95504D02*
X43896D01*
X43502Y95110D02*
Y95897D01*
X-37394Y90500D02*
X-36606D01*
X-37000Y90106D02*
Y90894D01*
X-12894Y104000D02*
X-12106D01*
X-12500Y103606D02*
Y104394D01*
X-7894Y104000D02*
X-7106D01*
X-7500Y103606D02*
Y104394D01*
X-5243Y78849D02*
X-4456D01*
X-4849Y78456D02*
Y79243D01*
X28106Y94000D02*
X28894D01*
X28500Y93606D02*
Y94394D01*
X22335Y95746D02*
X23122D01*
X22728Y95352D02*
Y96140D01*
X-43394Y113000D02*
X-42606D01*
X-43000Y112606D02*
Y113394D01*
X-43394Y117097D02*
X-42606D01*
X-43000Y116703D02*
Y117490D01*
X-43484Y109226D02*
X-42697D01*
X-43091Y108833D02*
Y109620D01*
X-43394Y105840D02*
X-42606D01*
X-43000Y105447D02*
Y106234D01*
X-43394Y102500D02*
X-42606D01*
X-43000Y102106D02*
Y102894D01*
X-58400Y109778D02*
X-57613D01*
X-58006Y109384D02*
Y110172D01*
X-58337Y114071D02*
X-57550D01*
X-57944Y113678D02*
Y114465D01*
X-58394Y106000D02*
X-57606D01*
X-58000Y105606D02*
Y106394D01*
X-30590Y-43549D02*
X-29802D01*
X-30196Y-43943D02*
Y-43156D01*
X-32894Y-38500D02*
X-32106D01*
X-32500Y-38894D02*
Y-38106D01*
X10606Y-99660D02*
X11394D01*
X11000Y-100053D02*
Y-99266D01*
X5106Y-99660D02*
X5894D01*
X5500Y-100053D02*
Y-99266D01*
X-354Y-99620D02*
X433D01*
X39Y-100014D02*
Y-99227D01*
X59606Y-80500D02*
X60394D01*
X60000Y-80894D02*
Y-80106D01*
X44606Y-52000D02*
X45394D01*
X45000Y-52394D02*
Y-51606D01*
X27487Y-56119D02*
X28275D01*
X27881Y-56513D02*
Y-55725D01*
X24106Y-26166D02*
X24894D01*
X24500Y-26559D02*
Y-25772D01*
X23604Y-20448D02*
X24392D01*
X23998Y-20841D02*
Y-20054D01*
X55608Y-20448D02*
X56396D01*
X56002Y-20841D02*
Y-20054D01*
X29106Y23000D02*
X29894D01*
X29500Y22606D02*
Y23394D01*
X23106Y19500D02*
X23894D01*
X23500Y19106D02*
Y19894D01*
X31722Y26000D02*
X32509D01*
X32116Y25606D02*
Y26394D01*
X-15894Y91000D02*
X-15106D01*
X-15500Y90606D02*
Y91394D01*
X45606Y-103000D02*
X46394D01*
X46000Y-103394D02*
Y-102606D01*
X40606Y-103000D02*
X41394D01*
X41000Y-103394D02*
Y-102606D01*
X-40894Y74500D02*
X-40106D01*
X-40500Y74106D02*
Y74894D01*
X17830Y111181D02*
X18617D01*
X18224Y110788D02*
Y111575D01*
X-33894Y63000D02*
X-33106D01*
X-33500Y62606D02*
Y63394D01*
X-29394Y59000D02*
X-28606D01*
X-29000Y58606D02*
Y59394D01*
X41606Y27500D02*
X42394D01*
X42000Y27106D02*
Y27894D01*
X23932Y53058D02*
X24719D01*
X24325Y52665D02*
Y53452D01*
X27606Y53000D02*
X28394D01*
X28000Y52606D02*
Y53394D01*
X16606Y-10000D02*
X17394D01*
X17000Y-10394D02*
Y-9606D01*
X26606Y63000D02*
X27394D01*
X27000Y62606D02*
Y63394D01*
X18106Y23500D02*
X18894D01*
X18500Y23106D02*
Y23894D01*
X18106Y28000D02*
X18894D01*
X18500Y27606D02*
Y28394D01*
X20350Y53369D02*
X21138D01*
X20744Y52975D02*
Y53763D01*
X5106Y64500D02*
X5894D01*
X5500Y64106D02*
Y64894D01*
X5189Y68922D02*
X5977D01*
X5583Y68529D02*
Y69316D01*
X-28394Y75000D02*
X-27606D01*
X-28000Y74606D02*
Y75394D01*
X-15894Y0D02*
X-15106D01*
X-15500Y-394D02*
Y394D01*
X43606Y-6000D02*
X44394D01*
X44000Y-6394D02*
Y-5606D01*
X42606Y-68500D02*
X43394D01*
X43000Y-68894D02*
Y-68106D01*
X40303Y-90697D02*
X41091D01*
X40697Y-91091D02*
Y-90303D01*
X43606Y-79500D02*
X44394D01*
X44000Y-79894D02*
Y-79106D01*
X47606Y-6000D02*
X48394D01*
X48000Y-6394D02*
Y-5606D01*
X51606Y-6000D02*
X52394D01*
X52000Y-6394D02*
Y-5606D01*
X-47394Y-12000D02*
X-46606D01*
X-47000Y-12394D02*
Y-11606D01*
X-33894Y-23000D02*
X-33106D01*
X-33500Y-23394D02*
Y-22606D01*
X-8394Y-20000D02*
X-7606D01*
X-8000Y-20394D02*
Y-19606D01*
X-20423Y-13272D02*
X-19635D01*
X-20029Y-13666D02*
Y-12878D01*
X-40394Y-114000D02*
X-39606D01*
X-40000Y-114394D02*
Y-113606D01*
X-40425Y-109468D02*
X-39638D01*
X-40031Y-109862D02*
Y-109075D01*
X-41894Y-89500D02*
X-41106D01*
X-41500Y-89894D02*
Y-89106D01*
X-41894Y-94000D02*
X-41106D01*
X-41500Y-94394D02*
Y-93606D01*
X-3394Y-20000D02*
X-2606D01*
X-3000Y-20394D02*
Y-19606D01*
X1606Y-20000D02*
X2394D01*
X2000Y-20394D02*
Y-19606D01*
X-24707Y-8988D02*
X-23920D01*
X-24313Y-9381D02*
Y-8594D01*
X-20394Y2000D02*
X-19606D01*
X-20000Y1606D02*
Y2394D01*
X29264Y-64500D02*
X30051D01*
X29658Y-64894D02*
Y-64106D01*
X18403Y-55796D02*
X19190D01*
X18796Y-56190D02*
Y-55402D01*
X15106Y-83500D02*
X15894D01*
X15500Y-83894D02*
Y-83106D01*
X27106Y-92500D02*
X27894D01*
X27500Y-92894D02*
Y-92106D01*
X27106Y-97500D02*
X27894D01*
X27500Y-97894D02*
Y-97106D01*
X27106Y-102500D02*
X27894D01*
X27500Y-102894D02*
Y-102106D01*
X27106Y-107500D02*
X27894D01*
X27500Y-107894D02*
Y-107106D01*
X15106Y35000D02*
X15894D01*
X15500Y34606D02*
Y35394D01*
X38491Y49256D02*
X39278D01*
X38884Y48862D02*
Y49650D01*
X16508Y85000D02*
X17296D01*
X16902Y84606D02*
Y85394D01*
X38491Y64500D02*
X39278D01*
X38884Y64106D02*
Y64894D01*
X42106Y40244D02*
X42894D01*
X42500Y39850D02*
Y40638D01*
X20106Y80000D02*
X20894D01*
X20500Y79606D02*
Y80394D01*
X57606Y-71500D02*
X58394D01*
X58000Y-71894D02*
Y-71106D01*
X48106Y-71500D02*
X48894D01*
X48500Y-71894D02*
Y-71106D01*
X51106Y-48000D02*
X51894D01*
X51500Y-48394D02*
Y-47606D01*
X16257Y-13849D02*
X17044D01*
X16651Y-14243D02*
Y-13456D01*
X51106Y77000D02*
X51894D01*
X51500Y76606D02*
Y77394D01*
X48106Y80000D02*
X48894D01*
X48500Y79606D02*
Y80394D01*
X106Y78384D02*
X894D01*
X500Y77991D02*
Y78778D01*
X-2294Y48401D02*
X-1507D01*
X-1901Y48007D02*
Y48794D01*
X59905Y-88299D02*
X60693D01*
X60299Y-88693D02*
Y-87906D01*
X-8394Y6500D02*
X-7606D01*
X-8000Y6106D02*
Y6894D01*
X-43894Y-65000D02*
X-43106D01*
X-43500Y-65394D02*
Y-64606D01*
X15606Y91500D02*
X16394D01*
X16000Y91106D02*
Y91894D01*
X59792Y58814D02*
X60580D01*
X60186Y58420D02*
Y59208D01*
X58106Y69000D02*
X58894D01*
X58500Y68606D02*
Y69394D01*
X45106Y115000D02*
X45894D01*
X45500Y114606D02*
Y115394D01*
X45106Y119500D02*
X45894D01*
X45500Y119106D02*
Y119894D01*
X21106Y103000D02*
X21894D01*
X21500Y102606D02*
Y103394D01*
X21106Y110500D02*
X21894D01*
X21500Y110106D02*
Y110894D01*
X20350Y61256D02*
X21138D01*
X20744Y60862D02*
Y61650D01*
X-24894Y44000D02*
X-24106D01*
X-24500Y43606D02*
Y44394D01*
X-43394Y10000D02*
X-42606D01*
X-43000Y9606D02*
Y10394D01*
X-43394Y20000D02*
X-42606D01*
X-43000Y19606D02*
Y20394D01*
X-4020Y93626D02*
X-3232D01*
X-3626Y93232D02*
Y94020D01*
X-28894Y-119500D02*
X-28106D01*
X-28500Y-119894D02*
Y-119106D01*
X27106Y-119500D02*
X27894D01*
X27500Y-119894D02*
Y-119106D01*
X15106Y-94500D02*
X15894D01*
X15500Y-94894D02*
Y-94106D01*
X15106Y-89000D02*
X15894D01*
X15500Y-89394D02*
Y-88606D01*
X10606Y-79500D02*
X11394D01*
X11000Y-79894D02*
Y-79106D01*
X5106Y-79500D02*
X5894D01*
X5500Y-79894D02*
Y-79106D01*
X-394Y-79500D02*
X394D01*
X0Y-79894D02*
Y-79106D01*
X-5394Y-83500D02*
X-4606D01*
X-5000Y-83894D02*
Y-83106D01*
X-5394Y-89000D02*
X-4606D01*
X-5000Y-89394D02*
Y-88606D01*
X-5394Y-94500D02*
X-4606D01*
X-5000Y-94894D02*
Y-94106D01*
X-23894Y-104500D02*
X-23106D01*
X-23500Y-104894D02*
Y-104106D01*
X-27894Y-99500D02*
X-27106D01*
X-27500Y-99894D02*
Y-99106D01*
X10106Y86500D02*
X10894D01*
X10500Y86106D02*
Y86894D01*
X10106Y90000D02*
X10894D01*
X10500Y89606D02*
Y90394D01*
X247Y83509D02*
X1034D01*
X641Y83115D02*
Y83903D01*
X-37394Y82500D02*
X-36606D01*
X-37000Y82106D02*
Y82894D01*
X-47394Y72000D02*
X-46606D01*
X-47000Y71606D02*
Y72394D01*
M02*
