G04*
G04 #@! TF.GenerationSoftware,Altium Limited,Altium Designer,25.2.1 (25)*
G04*
G04 Layer_Physical_Order=1*
G04 Layer_Color=255*
%FSLAX25Y25*%
%MOIN*%
G70*
G04*
G04 #@! TF.SameCoordinates,6E7B483F-BFF1-4FB3-8246-CE29AB42D2EF*
G04*
G04*
G04 #@! TF.FilePolarity,Positive*
G04*
G01*
G75*
%ADD10C,0.00600*%
%ADD17R,0.03150X0.03799*%
%ADD18R,0.03799X0.03150*%
%ADD19R,0.02756X0.02756*%
G04:AMPARAMS|DCode=20|XSize=23.62mil|YSize=7.87mil|CornerRadius=3.94mil|HoleSize=0mil|Usage=FLASHONLY|Rotation=0.000|XOffset=0mil|YOffset=0mil|HoleType=Round|Shape=RoundedRectangle|*
%AMROUNDEDRECTD20*
21,1,0.02362,0.00000,0,0,0.0*
21,1,0.01575,0.00787,0,0,0.0*
1,1,0.00787,0.00787,0.00000*
1,1,0.00787,-0.00787,0.00000*
1,1,0.00787,-0.00787,0.00000*
1,1,0.00787,0.00787,0.00000*
%
%ADD20ROUNDEDRECTD20*%
%ADD21R,0.03150X0.03937*%
%ADD22R,0.06122X0.09080*%
%ADD23O,0.00945X0.02362*%
%ADD24R,0.02800X0.01100*%
%ADD25R,0.03900X0.06700*%
%ADD26R,0.06100X0.05100*%
%ADD27R,0.02362X0.03937*%
%ADD28R,0.03765X0.04749*%
%ADD29R,0.05600X0.02200*%
%ADD30R,0.01063X0.03898*%
%ADD31R,0.03898X0.01063*%
%ADD33R,0.05100X0.06100*%
G04:AMPARAMS|DCode=34|XSize=31.88mil|YSize=9.55mil|CornerRadius=4.77mil|HoleSize=0mil|Usage=FLASHONLY|Rotation=0.000|XOffset=0mil|YOffset=0mil|HoleType=Round|Shape=RoundedRectangle|*
%AMROUNDEDRECTD34*
21,1,0.03188,0.00000,0,0,0.0*
21,1,0.02233,0.00955,0,0,0.0*
1,1,0.00955,0.01116,0.00000*
1,1,0.00955,-0.01116,0.00000*
1,1,0.00955,-0.01116,0.00000*
1,1,0.00955,0.01116,0.00000*
%
%ADD34ROUNDEDRECTD34*%
G04:AMPARAMS|DCode=35|XSize=9.55mil|YSize=31.88mil|CornerRadius=4.77mil|HoleSize=0mil|Usage=FLASHONLY|Rotation=0.000|XOffset=0mil|YOffset=0mil|HoleType=Round|Shape=RoundedRectangle|*
%AMROUNDEDRECTD35*
21,1,0.00955,0.02233,0,0,0.0*
21,1,0.00000,0.03188,0,0,0.0*
1,1,0.00955,0.00000,-0.01116*
1,1,0.00955,0.00000,-0.01116*
1,1,0.00955,0.00000,0.01116*
1,1,0.00955,0.00000,0.01116*
%
%ADD35ROUNDEDRECTD35*%
%ADD36R,0.03188X0.00955*%
%ADD37O,0.03543X0.00787*%
%ADD38O,0.00787X0.03543*%
%ADD39R,0.06693X0.06063*%
%ADD40R,0.05906X0.03543*%
%ADD41R,0.03543X0.05906*%
%ADD42R,0.03543X0.03543*%
%ADD43R,0.02756X0.02756*%
G04:AMPARAMS|DCode=44|XSize=53.54mil|YSize=23.62mil|CornerRadius=2.95mil|HoleSize=0mil|Usage=FLASHONLY|Rotation=180.000|XOffset=0mil|YOffset=0mil|HoleType=Round|Shape=RoundedRectangle|*
%AMROUNDEDRECTD44*
21,1,0.05354,0.01772,0,0,180.0*
21,1,0.04764,0.02362,0,0,180.0*
1,1,0.00591,-0.02382,0.00886*
1,1,0.00591,0.02382,0.00886*
1,1,0.00591,0.02382,-0.00886*
1,1,0.00591,-0.02382,-0.00886*
%
%ADD44ROUNDEDRECTD44*%
%ADD45R,0.01181X0.04528*%
%ADD46R,0.02362X0.04528*%
%ADD47R,0.02200X0.05000*%
%ADD48R,0.12800X0.03400*%
%ADD49R,0.10000X0.20000*%
%ADD52R,0.04764X0.07953*%
%ADD55R,0.12795X0.12795*%
%ADD73R,0.11024X0.05906*%
%ADD74C,0.00700*%
%ADD75C,0.01000*%
%ADD76C,0.02800*%
%ADD77C,0.06299*%
G04:AMPARAMS|DCode=78|XSize=62.99mil|YSize=62.99mil|CornerRadius=15.75mil|HoleSize=0mil|Usage=FLASHONLY|Rotation=90.000|XOffset=0mil|YOffset=0mil|HoleType=Round|Shape=RoundedRectangle|*
%AMROUNDEDRECTD78*
21,1,0.06299,0.03150,0,0,90.0*
21,1,0.03150,0.06299,0,0,90.0*
1,1,0.03150,0.01575,0.01575*
1,1,0.03150,0.01575,-0.01575*
1,1,0.03150,-0.01575,-0.01575*
1,1,0.03150,-0.01575,0.01575*
%
%ADD78ROUNDEDRECTD78*%
G04:AMPARAMS|DCode=79|XSize=70.87mil|YSize=39.37mil|CornerRadius=9.84mil|HoleSize=0mil|Usage=FLASHONLY|Rotation=270.000|XOffset=0mil|YOffset=0mil|HoleType=Round|Shape=RoundedRectangle|*
%AMROUNDEDRECTD79*
21,1,0.07087,0.01968,0,0,270.0*
21,1,0.05118,0.03937,0,0,270.0*
1,1,0.01968,-0.00984,-0.02559*
1,1,0.01968,-0.00984,0.02559*
1,1,0.01968,0.00984,0.02559*
1,1,0.01968,0.00984,-0.02559*
%
%ADD79ROUNDEDRECTD79*%
%ADD80O,0.03937X0.08268*%
%ADD81C,0.02559*%
%ADD82C,0.01968*%
G36*
X-16332Y107308D02*
X-18849Y104791D01*
X-19344Y105003D01*
X-19626Y105683D01*
X-20207Y106264D01*
X-20967Y106579D01*
X-21789D01*
X-22549Y106264D01*
X-23130Y105683D01*
X-23445Y104923D01*
Y104101D01*
X-23130Y103341D01*
X-22549Y102760D01*
X-22027Y102543D01*
X-22126Y102043D01*
X-24014D01*
Y103209D01*
X-24116Y103984D01*
X-24415Y104706D01*
X-24891Y105326D01*
X-25511Y105802D01*
X-26008Y106008D01*
Y101043D01*
X-28008D01*
Y106008D01*
X-28505Y105802D01*
X-29125Y105326D01*
X-29213Y105212D01*
X-29713Y105381D01*
Y107770D01*
X-16524D01*
X-16332Y107308D01*
D02*
G37*
G36*
X66296Y111001D02*
Y-3704D01*
X65303Y-4697D01*
X54091D01*
X53884Y-4197D01*
X54412Y-3669D01*
X56709D01*
Y1843D01*
X45291D01*
Y-2101D01*
X43478Y-3915D01*
X43238Y-4275D01*
X43211Y-4409D01*
X42996Y-4498D01*
X42619Y-4876D01*
X42576Y-4832D01*
X42503Y-4802D01*
X42437Y-4758D01*
X42359Y-4743D01*
X42286Y-4713D01*
X42207D01*
X42130Y-4697D01*
X29293D01*
X28986Y-4758D01*
X28726Y-4932D01*
X28122Y-4982D01*
X25964Y-2824D01*
X26155Y-2362D01*
X26388D01*
Y2138D01*
X26388Y2500D01*
X26388Y2862D01*
Y7362D01*
X21014D01*
Y7199D01*
X20514Y6992D01*
X20504Y7002D01*
X19852Y7272D01*
X19845D01*
X19362Y7313D01*
X19362Y7710D01*
Y8840D01*
X19705D01*
X20148Y8929D01*
X20525Y9180D01*
X20901Y9556D01*
X21363Y9365D01*
Y8209D01*
X25737D01*
Y8234D01*
X25947D01*
X26449Y8334D01*
X26492Y8363D01*
X29263D01*
Y8209D01*
X30290D01*
Y7362D01*
X27313D01*
Y2638D01*
X27313D01*
Y2362D01*
X27313D01*
Y-2362D01*
X32687D01*
Y2362D01*
X32687D01*
Y2638D01*
X32687D01*
Y7362D01*
X32610D01*
Y8209D01*
X33637D01*
Y10356D01*
X34708D01*
X35152Y10444D01*
X35528Y10695D01*
X37320Y12488D01*
X37571Y12864D01*
X37660Y13307D01*
X37660Y13308D01*
Y13813D01*
X38862D01*
Y15340D01*
X39638D01*
Y13813D01*
X44362D01*
Y16309D01*
X44824Y16500D01*
X46100Y15224D01*
Y12669D01*
X45291D01*
Y7158D01*
X48819D01*
Y6945D01*
X50000D01*
Y9913D01*
X52000D01*
Y6945D01*
X53181D01*
Y7158D01*
X56709D01*
Y12669D01*
X55900D01*
Y23760D01*
X55900Y23760D01*
X55812Y24204D01*
X55560Y24580D01*
X41320Y38820D01*
X40944Y39071D01*
X40500Y39160D01*
X30306D01*
X28335Y41131D01*
X25485Y43980D01*
Y51712D01*
X25827Y52055D01*
X25880Y52182D01*
X26421D01*
X26498Y51996D01*
X26840Y51654D01*
Y50756D01*
X26185D01*
Y45244D01*
X30909D01*
Y50756D01*
X29160D01*
Y51654D01*
X29502Y51996D01*
X29552Y52118D01*
X30031Y52263D01*
X30145Y52187D01*
X30476Y52121D01*
Y53500D01*
X32476D01*
Y52121D01*
X32808Y52187D01*
X33037Y52340D01*
X34154D01*
X34597Y52429D01*
X34974Y52680D01*
X35246Y52953D01*
X35864D01*
X36071Y52453D01*
X34599Y50981D01*
X34449Y50756D01*
X32091D01*
Y45244D01*
X36815D01*
Y48316D01*
X37315Y48415D01*
X37382Y48252D01*
X37881Y47754D01*
X38532Y47484D01*
X39237D01*
X39835Y47732D01*
X40083Y47640D01*
X40335Y47494D01*
Y47091D01*
X44665D01*
Y49565D01*
X45459Y50359D01*
X45744Y50785D01*
X45844Y51287D01*
Y55787D01*
X45768Y56169D01*
X46188Y56455D01*
X46445Y56199D01*
X46720Y55827D01*
X46720D01*
X46720Y55827D01*
Y45173D01*
X54417D01*
Y55827D01*
X50252D01*
X50218Y55997D01*
X49934Y56423D01*
X47391Y58965D01*
X47583Y59427D01*
X48043D01*
X48487Y59515D01*
X48863Y59767D01*
X49435Y60338D01*
X53134D01*
Y66662D01*
X47795D01*
Y61978D01*
X47563Y61746D01*
X44855D01*
X44469Y62246D01*
X44492Y62358D01*
X44400Y62819D01*
X44139Y63210D01*
X43748Y63471D01*
X43660Y63489D01*
Y64259D01*
X43660Y64259D01*
X43660Y64259D01*
Y65264D01*
X46975Y68579D01*
X49665D01*
Y72909D01*
X45335D01*
Y70219D01*
X42764Y67648D01*
X42302Y67840D01*
Y70789D01*
X42280Y70901D01*
Y78827D01*
X34584D01*
Y68173D01*
X39983D01*
Y66504D01*
X39483Y66170D01*
X39237Y66272D01*
X38532D01*
X37881Y66002D01*
X37382Y65504D01*
X37113Y64852D01*
Y64148D01*
X37382Y63496D01*
X37473Y63406D01*
X37266Y62906D01*
X33606D01*
X33187Y63102D01*
X33115Y63210D01*
X32789Y63428D01*
Y68173D01*
X33417D01*
Y78827D01*
X25720D01*
Y68173D01*
X30164D01*
Y63428D01*
X29838Y63210D01*
X29576Y62819D01*
X29568Y62779D01*
X29026Y62614D01*
X27820Y63820D01*
X27444Y64071D01*
X27000Y64160D01*
X26556Y64071D01*
X26180Y63820D01*
X25929Y63444D01*
X25840Y63000D01*
X25929Y62556D01*
X26180Y62180D01*
X28195Y60165D01*
X27988Y59665D01*
X24091D01*
Y55335D01*
X24091D01*
X24159Y54835D01*
X24155Y54830D01*
X23973D01*
X23322Y54560D01*
X22823Y54062D01*
X22554Y53411D01*
Y52706D01*
X22823Y52055D01*
X23166Y51712D01*
Y43500D01*
X23254Y43056D01*
X23505Y42680D01*
X26355Y39830D01*
Y30601D01*
X26443Y30158D01*
X26695Y29781D01*
X30344Y26132D01*
Y25648D01*
X30613Y24998D01*
X30611Y24993D01*
X30350Y24606D01*
X30303Y24585D01*
X29852Y24772D01*
X29148D01*
X28496Y24502D01*
X27998Y24004D01*
X27728Y23352D01*
Y23085D01*
X26572Y21928D01*
X26287Y21502D01*
X26187Y21000D01*
Y16912D01*
X25737Y16791D01*
X25737Y16791D01*
Y16791D01*
X25737Y16791D01*
X24710D01*
Y18204D01*
X25002Y18496D01*
X25272Y19148D01*
Y19852D01*
X25002Y20504D01*
X24504Y21002D01*
X23852Y21272D01*
X23148D01*
X22496Y21002D01*
X21998Y20504D01*
X21728Y19852D01*
Y19148D01*
X21998Y18496D01*
X22390Y18104D01*
Y16791D01*
X21363D01*
Y16613D01*
X19362D01*
Y18986D01*
X14638D01*
Y13742D01*
X11180Y10284D01*
X10929Y9908D01*
X10840Y9464D01*
Y9240D01*
X10362Y9187D01*
X10340Y9187D01*
X5638D01*
Y7660D01*
X4362D01*
Y9187D01*
X-362D01*
Y3813D01*
X840D01*
Y2862D01*
X-388D01*
Y-1862D01*
X4986D01*
Y2862D01*
X3160D01*
Y3813D01*
X4362D01*
Y5340D01*
X5638D01*
Y3813D01*
X10340D01*
X10362Y3813D01*
X10840Y3760D01*
Y2480D01*
X5520Y-2840D01*
X-6145D01*
X-6623Y-2362D01*
X-6416Y-1862D01*
X-1313D01*
Y2862D01*
X-6687D01*
Y1660D01*
X-10645D01*
X-13460Y4474D01*
X-13377Y5099D01*
X-13250Y5183D01*
X-12970Y5602D01*
X-12872Y6095D01*
Y8328D01*
X-12970Y8822D01*
X-13091Y9002D01*
X-12850Y9452D01*
X-12360Y9495D01*
X-12322Y9470D01*
X-11828Y9372D01*
X-9595D01*
X-9102Y9470D01*
X-8683Y9750D01*
X-8404Y10168D01*
X-8306Y10661D01*
X-8404Y11155D01*
X-8683Y11573D01*
X-8784Y11640D01*
Y12242D01*
X-8683Y12309D01*
X-8404Y12727D01*
X-8306Y13220D01*
X-8404Y13714D01*
X-8675Y14120D01*
X-8660Y14198D01*
X-8513Y14620D01*
X-7136D01*
X-6362Y13846D01*
Y10112D01*
X-1638D01*
Y11639D01*
X-362D01*
Y10112D01*
X4362D01*
Y15486D01*
X1278D01*
X88Y16676D01*
X280Y17138D01*
X3986D01*
Y18358D01*
X4343Y18429D01*
X4719Y18680D01*
X6378Y20339D01*
X6840Y20148D01*
Y15486D01*
X5638D01*
Y10112D01*
X10362D01*
Y15486D01*
X9160D01*
Y21138D01*
X10687D01*
Y25862D01*
X10687D01*
Y26138D01*
X10687D01*
Y30862D01*
X5313D01*
Y29660D01*
X4362D01*
Y34187D01*
X-362D01*
Y33660D01*
X-2313D01*
Y34862D01*
X-7687D01*
Y32117D01*
X-7720Y32095D01*
X-7720Y32095D01*
X-8150Y31665D01*
X-8612Y31856D01*
Y34862D01*
X-13986D01*
Y34862D01*
X-14313D01*
Y34862D01*
X-19687D01*
Y30138D01*
X-19687D01*
Y29862D01*
X-19687D01*
Y25659D01*
X-20187Y25452D01*
X-20590Y25855D01*
Y26275D01*
X-20612Y26387D01*
Y29513D01*
X-20400Y29925D01*
X-20400Y30274D01*
Y31500D01*
X-23299D01*
Y33500D01*
X-20400D01*
Y35075D01*
X-22240D01*
Y36400D01*
X-22328Y36843D01*
X-22580Y37220D01*
X-22956Y37471D01*
X-23400Y37559D01*
X-23843Y37471D01*
X-24220Y37220D01*
X-24471Y36843D01*
X-24559Y36400D01*
Y35075D01*
X-26199D01*
Y33660D01*
X-27500D01*
X-27944Y33571D01*
X-28320Y33320D01*
X-28571Y32944D01*
X-28660Y32500D01*
X-28571Y32056D01*
X-28320Y31680D01*
X-27944Y31429D01*
X-27500Y31340D01*
X-26552D01*
X-26199Y30987D01*
X-26199Y29925D01*
X-25986Y29513D01*
Y25138D01*
X-22862D01*
X-22821Y24931D01*
X-22570Y24555D01*
X-22540Y24526D01*
X-22623Y23901D01*
X-22750Y23817D01*
X-23030Y23398D01*
X-23128Y22905D01*
Y20672D01*
X-23030Y20178D01*
X-22998Y20131D01*
Y19603D01*
X-26030D01*
X-28746Y22320D01*
X-29122Y22571D01*
X-29566Y22660D01*
X-41157D01*
X-41600Y22571D01*
X-41977Y22320D01*
X-42561Y21736D01*
X-42648Y21772D01*
X-43352D01*
X-44004Y21502D01*
X-44502Y21004D01*
X-44772Y20352D01*
Y19648D01*
X-44502Y18996D01*
X-44004Y18498D01*
X-43352Y18228D01*
X-42648D01*
X-41996Y18498D01*
X-41498Y18996D01*
X-41228Y19648D01*
Y19788D01*
X-40676Y20340D01*
X-35862D01*
Y15112D01*
X-31138D01*
Y16639D01*
X-28905D01*
X-27607Y15342D01*
X-27596Y15286D01*
X-27325Y14880D01*
X-27340Y14802D01*
X-27487Y14380D01*
X-28800D01*
X-29244Y14292D01*
X-29620Y14040D01*
X-30638Y13023D01*
X-31138Y13230D01*
Y14187D01*
X-35862D01*
Y9160D01*
X-40337D01*
X-41228Y10051D01*
Y10352D01*
X-41498Y11004D01*
X-41996Y11502D01*
X-42648Y11772D01*
X-43352D01*
X-44004Y11502D01*
X-44502Y11004D01*
X-44772Y10352D01*
Y9648D01*
X-44502Y8996D01*
X-44004Y8498D01*
X-43352Y8228D01*
X-42686D01*
X-41637Y7180D01*
X-41261Y6929D01*
X-40817Y6840D01*
X-40817Y6840D01*
X-32536D01*
X-32092Y6929D01*
X-31716Y7180D01*
X-29394Y9502D01*
X-26946D01*
X-26898Y9470D01*
X-26724Y9435D01*
X-26668Y9326D01*
X-26604Y8902D01*
X-27002Y8504D01*
X-27272Y7852D01*
Y7148D01*
X-27002Y6496D01*
X-26504Y5998D01*
X-25852Y5728D01*
X-25148D01*
X-24496Y5998D01*
X-24451Y6043D01*
X-23118D01*
X-23030Y5602D01*
X-22750Y5183D01*
X-22332Y4904D01*
X-21839Y4806D01*
X-21350Y4903D01*
X-21334Y4893D01*
X-20991Y4539D01*
X-21071Y4419D01*
X-21160Y3975D01*
Y2000D01*
X-21071Y1556D01*
X-20820Y1180D01*
X-20444Y929D01*
X-20000Y840D01*
X-19556Y929D01*
X-19180Y1180D01*
X-18929Y1556D01*
X-18840Y2000D01*
Y3495D01*
X-18460Y3876D01*
X-18380Y3995D01*
X-17880Y3843D01*
Y1221D01*
X-17792Y777D01*
X-17540Y400D01*
X-17272Y132D01*
Y-352D01*
X-17002Y-1004D01*
X-16504Y-1502D01*
X-15852Y-1772D01*
X-15148D01*
X-14496Y-1502D01*
X-13998Y-1004D01*
X-13728Y-352D01*
Y352D01*
X-13998Y1004D01*
X-14496Y1502D01*
X-15148Y1772D01*
X-15561D01*
Y2642D01*
X-15099Y2833D01*
X-11945Y-320D01*
X-7445Y-4820D01*
X-7069Y-5071D01*
X-6625Y-5160D01*
X6000D01*
X6444Y-5071D01*
X6820Y-4820D01*
X12820Y1180D01*
X13071Y1556D01*
X13160Y2000D01*
Y8984D01*
X14176Y10000D01*
X14638Y9809D01*
Y7313D01*
X15840D01*
Y3187D01*
X14638D01*
Y-2187D01*
X19362D01*
Y3187D01*
X18160D01*
Y3681D01*
X18660Y3930D01*
X19148Y3728D01*
X19852D01*
X20194Y3870D01*
X20343Y3840D01*
X20343Y3840D01*
X20660D01*
X21014Y3487D01*
X21014Y2500D01*
X21014Y2138D01*
Y-2362D01*
X22573D01*
X22629Y-2645D01*
X22881Y-3021D01*
X24095Y-4235D01*
X23904Y-4697D01*
X19575D01*
Y-2900D01*
X18000D01*
Y-5799D01*
X16000D01*
Y-2900D01*
X14425D01*
Y-4697D01*
X10000D01*
X9693Y-4758D01*
X9432Y-4932D01*
X9258Y-5193D01*
X9197Y-5500D01*
Y-39840D01*
X5145D01*
X4362Y-39057D01*
Y-33813D01*
X3160D01*
Y-33187D01*
X4362D01*
Y-27813D01*
X-362D01*
Y-27813D01*
X-638D01*
Y-27813D01*
X-5362D01*
Y-27813D01*
X-5638D01*
Y-27813D01*
X-10362D01*
Y-33187D01*
X-9160D01*
Y-33813D01*
X-10362D01*
Y-36345D01*
X-10824Y-36536D01*
X-25180Y-22180D01*
X-25556Y-21929D01*
X-26000Y-21840D01*
X-32154D01*
X-32496Y-21498D01*
X-33148Y-21228D01*
X-33852D01*
X-34504Y-21498D01*
X-35002Y-21996D01*
X-35272Y-22648D01*
Y-23352D01*
X-35002Y-24004D01*
X-34504Y-24502D01*
X-33852Y-24772D01*
X-33148D01*
X-32496Y-24502D01*
X-32154Y-24160D01*
X-26480D01*
X-17930Y-32710D01*
X-18176Y-33171D01*
X-18293Y-33147D01*
X-18408D01*
X-18851Y-33236D01*
X-19228Y-33487D01*
X-19228Y-33487D01*
X-20820Y-35080D01*
X-21071Y-35456D01*
X-21100Y-35600D01*
X-22994D01*
X-23357Y-35357D01*
X-23801Y-35269D01*
X-24144D01*
X-24588Y-35357D01*
X-24964Y-35609D01*
X-25216Y-35985D01*
X-25304Y-36429D01*
X-25216Y-36872D01*
X-24964Y-37249D01*
X-24588Y-37500D01*
X-24315Y-37554D01*
X-24100Y-37770D01*
X-24100Y-37770D01*
X-23724Y-38021D01*
X-23280Y-38109D01*
X-23192Y-38598D01*
Y-38650D01*
X-19642D01*
X-16092D01*
Y-35600D01*
X-17280D01*
X-17423Y-35251D01*
X-17455Y-35100D01*
X-17222Y-34751D01*
X-17134Y-34307D01*
X-17157Y-34190D01*
X-16696Y-33944D01*
X-10362Y-40278D01*
Y-45486D01*
X-10729Y-45807D01*
X-27813D01*
Y-44881D01*
X-27913Y-44379D01*
X-28198Y-43953D01*
X-28424Y-43727D01*
Y-43197D01*
X-28694Y-42546D01*
X-29192Y-42048D01*
X-29844Y-41778D01*
X-30548D01*
X-30871Y-41911D01*
X-31370Y-41577D01*
Y-39876D01*
X-30998Y-39504D01*
X-30728Y-38852D01*
Y-38148D01*
X-30998Y-37496D01*
X-31496Y-36998D01*
X-32148Y-36728D01*
X-32852D01*
X-33504Y-36998D01*
X-33521Y-37015D01*
X-34021Y-36808D01*
Y-35812D01*
X-36199D01*
Y-12188D01*
X-34021D01*
Y-4513D01*
X-40696D01*
Y-12188D01*
X-38518D01*
Y-35812D01*
X-40696D01*
Y-41847D01*
X-44320Y-45471D01*
X-44571Y-45847D01*
X-44660Y-46291D01*
Y-51813D01*
X-45862D01*
Y-57187D01*
X-41138D01*
Y-55660D01*
X-38543D01*
Y-57028D01*
Y-62028D01*
Y-67027D01*
Y-68309D01*
X-41852D01*
X-43525Y-66636D01*
X-43523Y-66587D01*
X-43328Y-66126D01*
X-43056Y-66071D01*
X-42680Y-65820D01*
X-42429Y-65444D01*
X-42340Y-65000D01*
Y-63699D01*
X-40925D01*
Y-61799D01*
X-43500D01*
X-46075D01*
Y-63379D01*
X-46575Y-63586D01*
X-53632Y-56529D01*
X-53583Y-56150D01*
X-52850Y-55417D01*
X-52331Y-54520D01*
X-52063Y-53518D01*
Y-52482D01*
X-52331Y-51480D01*
X-52850Y-50583D01*
X-53583Y-49850D01*
X-54480Y-49331D01*
X-55482Y-49063D01*
X-56518D01*
X-57520Y-49331D01*
X-58417Y-49850D01*
X-59150Y-50583D01*
X-59669Y-51480D01*
X-59937Y-52482D01*
Y-53518D01*
X-59669Y-54520D01*
X-59150Y-55417D01*
X-58417Y-56150D01*
X-57520Y-56669D01*
X-56518Y-56937D01*
X-56340D01*
X-56330Y-56986D01*
X-56079Y-57362D01*
X-54681Y-58760D01*
X-54940Y-59208D01*
X-55482Y-59063D01*
X-56518D01*
X-57520Y-59331D01*
X-58417Y-59850D01*
X-59150Y-60583D01*
X-59669Y-61480D01*
X-59937Y-62482D01*
Y-63518D01*
X-59669Y-64520D01*
X-59150Y-65417D01*
X-58417Y-66150D01*
X-57520Y-66669D01*
X-56518Y-66937D01*
X-55482D01*
X-54480Y-66669D01*
X-54158Y-66482D01*
X-45351Y-75288D01*
X-44975Y-75540D01*
X-44532Y-75628D01*
X-38543D01*
Y-78309D01*
X-49051D01*
X-52518Y-74842D01*
X-52331Y-74520D01*
X-52063Y-73518D01*
Y-72482D01*
X-52331Y-71480D01*
X-52850Y-70583D01*
X-53583Y-69850D01*
X-54480Y-69331D01*
X-55482Y-69063D01*
X-56518D01*
X-57520Y-69331D01*
X-58417Y-69850D01*
X-59150Y-70583D01*
X-59669Y-71480D01*
X-59937Y-72482D01*
Y-73518D01*
X-59669Y-74520D01*
X-59150Y-75417D01*
X-58417Y-76150D01*
X-57520Y-76669D01*
X-56518Y-76937D01*
X-55482D01*
X-54480Y-76669D01*
X-54158Y-76482D01*
X-50352Y-80288D01*
X-49975Y-80540D01*
X-49531Y-80628D01*
X-38543D01*
Y-81840D01*
X-52235D01*
X-52331Y-81480D01*
X-52850Y-80583D01*
X-53583Y-79850D01*
X-54480Y-79331D01*
X-55482Y-79063D01*
X-56518D01*
X-57520Y-79331D01*
X-58417Y-79850D01*
X-59150Y-80583D01*
X-59669Y-81480D01*
X-59937Y-82482D01*
Y-83518D01*
X-59669Y-84520D01*
X-59150Y-85417D01*
X-58417Y-86150D01*
X-57520Y-86669D01*
X-56518Y-86937D01*
X-55482D01*
X-54480Y-86669D01*
X-53583Y-86150D01*
X-52850Y-85417D01*
X-52331Y-84520D01*
X-52235Y-84160D01*
X-38543D01*
Y-88309D01*
X-40186D01*
X-40496Y-87998D01*
X-41148Y-87728D01*
X-41852D01*
X-42504Y-87998D01*
X-43002Y-88496D01*
X-43272Y-89148D01*
Y-89852D01*
X-43002Y-90504D01*
X-42504Y-91002D01*
X-41852Y-91272D01*
X-41148D01*
X-40496Y-91002D01*
X-40123Y-90628D01*
X-38543D01*
Y-93309D01*
X-39869D01*
X-39998Y-92996D01*
X-40496Y-92498D01*
X-41148Y-92228D01*
X-41852D01*
X-42504Y-92498D01*
X-43002Y-92996D01*
X-43272Y-93648D01*
Y-94352D01*
X-43002Y-95004D01*
X-42504Y-95502D01*
X-41852Y-95772D01*
X-41148D01*
X-40801Y-95628D01*
X-38543D01*
Y-98156D01*
X-48988D01*
X-52438Y-94705D01*
X-52331Y-94520D01*
X-52063Y-93518D01*
Y-92482D01*
X-52331Y-91480D01*
X-52850Y-90583D01*
X-53583Y-89850D01*
X-54480Y-89331D01*
X-55482Y-89063D01*
X-56518D01*
X-57520Y-89331D01*
X-58417Y-89850D01*
X-59150Y-90583D01*
X-59669Y-91480D01*
X-59937Y-92482D01*
Y-93518D01*
X-59669Y-94520D01*
X-59150Y-95417D01*
X-58417Y-96150D01*
X-57520Y-96669D01*
X-56518Y-96937D01*
X-55482D01*
X-54480Y-96669D01*
X-54295Y-96561D01*
X-50460Y-100397D01*
X-50034Y-100681D01*
X-49531Y-100781D01*
X-38543D01*
Y-101884D01*
X-52017D01*
Y-101425D01*
X-52200Y-100504D01*
X-52722Y-99722D01*
X-53504Y-99200D01*
X-54425Y-99017D01*
X-57575D01*
X-58496Y-99200D01*
X-59278Y-99722D01*
X-59800Y-100504D01*
X-59983Y-101425D01*
Y-104575D01*
X-59800Y-105497D01*
X-59278Y-106278D01*
X-58496Y-106800D01*
X-57575Y-106983D01*
X-54425D01*
X-53504Y-106800D01*
X-52722Y-106278D01*
X-52200Y-105497D01*
X-52017Y-104575D01*
Y-104509D01*
X-38543D01*
Y-107744D01*
X-39028Y-107967D01*
X-39679Y-107697D01*
X-40384D01*
X-41035Y-107967D01*
X-41533Y-108465D01*
X-41803Y-109116D01*
Y-109821D01*
X-41533Y-110472D01*
X-41035Y-110970D01*
X-40384Y-111240D01*
X-39679D01*
X-39028Y-110970D01*
X-38543Y-111193D01*
Y-112298D01*
X-39043Y-112479D01*
X-39648Y-112228D01*
X-40352D01*
X-41004Y-112498D01*
X-41502Y-112996D01*
X-41772Y-113648D01*
Y-114352D01*
X-41502Y-115004D01*
X-41004Y-115502D01*
X-40352Y-115772D01*
X-39648D01*
X-39301Y-115628D01*
X-38543D01*
Y-116697D01*
X-38756D01*
Y-118468D01*
X-34803D01*
Y-119468D01*
X-33803D01*
Y-122240D01*
X-30850D01*
Y-120628D01*
X-28658D01*
X-28500Y-120660D01*
X-28056Y-120571D01*
X-27680Y-120320D01*
X-27429Y-119944D01*
X-27340Y-119500D01*
X-27429Y-119056D01*
X-27680Y-118680D01*
X-27711Y-118649D01*
X-28088Y-118397D01*
X-28532Y-118309D01*
X-30850D01*
Y-116697D01*
X-31063D01*
Y-112028D01*
Y-105781D01*
X-24724D01*
X-24504Y-106002D01*
X-23852Y-106272D01*
X-23148D01*
X-22496Y-106002D01*
X-21998Y-105504D01*
X-21728Y-104852D01*
Y-104148D01*
X-21998Y-103496D01*
X-22496Y-102998D01*
X-23148Y-102728D01*
X-23852D01*
X-24504Y-102998D01*
X-24661Y-103156D01*
X-31063D01*
Y-100781D01*
X-28724D01*
X-28504Y-101002D01*
X-27852Y-101272D01*
X-27148D01*
X-26496Y-101002D01*
X-25998Y-100504D01*
X-25728Y-99852D01*
Y-99148D01*
X-25998Y-98496D01*
X-26496Y-97998D01*
X-27148Y-97728D01*
X-27852D01*
X-28504Y-97998D01*
X-28661Y-98156D01*
X-31063D01*
Y-92027D01*
Y-87028D01*
Y-82028D01*
Y-77027D01*
Y-72027D01*
Y-67027D01*
Y-62028D01*
Y-57028D01*
Y-51910D01*
X-38543D01*
Y-53340D01*
X-40372D01*
X-40563Y-52878D01*
X-32170Y-44485D01*
X-31614Y-44637D01*
X-31199Y-45051D01*
X-30548Y-45321D01*
X-30543D01*
X-30439Y-45425D01*
Y-48276D01*
X-30413Y-48402D01*
Y-53287D01*
X15986D01*
Y-54146D01*
X16074Y-54589D01*
X16326Y-54966D01*
X17025Y-55665D01*
Y-56149D01*
X17294Y-56800D01*
X17793Y-57298D01*
X18444Y-57568D01*
X19149D01*
X19800Y-57298D01*
X20298Y-56800D01*
X20568Y-56149D01*
Y-55444D01*
X20298Y-54793D01*
X19800Y-54294D01*
X19149Y-54025D01*
X18835D01*
X18646Y-53787D01*
X18888Y-53287D01*
X28376D01*
X28573Y-53787D01*
X28012Y-54347D01*
X27529D01*
X26877Y-54617D01*
X26379Y-55115D01*
X26109Y-55767D01*
Y-56472D01*
X26379Y-57123D01*
X26877Y-57621D01*
X27529Y-57891D01*
X28233D01*
X28885Y-57621D01*
X29383Y-57123D01*
X29653Y-56472D01*
Y-56237D01*
X29854Y-56087D01*
X30354Y-56337D01*
Y-62498D01*
X30010Y-62728D01*
X29305D01*
X28654Y-62998D01*
X28155Y-63496D01*
X27886Y-64148D01*
Y-64852D01*
X28155Y-65504D01*
X28654Y-66002D01*
X29305Y-66272D01*
X30010D01*
X30354Y-66502D01*
Y-72027D01*
Y-77027D01*
Y-82028D01*
Y-87028D01*
Y-93081D01*
X29854Y-93214D01*
X29272Y-92632D01*
Y-92148D01*
X29002Y-91496D01*
X28504Y-90998D01*
X27852Y-90728D01*
X27148D01*
X26496Y-90998D01*
X25998Y-91496D01*
X25728Y-92148D01*
Y-92852D01*
X25998Y-93504D01*
X26496Y-94002D01*
X27148Y-94272D01*
X27632D01*
X28648Y-95288D01*
X29025Y-95540D01*
X29469Y-95628D01*
X30354D01*
Y-98081D01*
X29854Y-98214D01*
X29272Y-97632D01*
Y-97148D01*
X29002Y-96496D01*
X28504Y-95998D01*
X27852Y-95728D01*
X27148D01*
X26496Y-95998D01*
X25998Y-96496D01*
X25728Y-97148D01*
Y-97852D01*
X25998Y-98504D01*
X26496Y-99002D01*
X27148Y-99272D01*
X27632D01*
X28648Y-100288D01*
X29025Y-100540D01*
X29469Y-100628D01*
X30354D01*
Y-103081D01*
X29854Y-103214D01*
X29272Y-102632D01*
Y-102148D01*
X29002Y-101496D01*
X28504Y-100998D01*
X27852Y-100728D01*
X27148D01*
X26496Y-100998D01*
X25998Y-101496D01*
X25728Y-102148D01*
Y-102852D01*
X25998Y-103504D01*
X26496Y-104002D01*
X27148Y-104272D01*
X27632D01*
X28648Y-105289D01*
X29025Y-105540D01*
X29469Y-105628D01*
X30354D01*
Y-108081D01*
X29854Y-108214D01*
X29272Y-107632D01*
Y-107148D01*
X29002Y-106496D01*
X28504Y-105998D01*
X27852Y-105728D01*
X27148D01*
X26496Y-105998D01*
X25998Y-106496D01*
X25728Y-107148D01*
Y-107852D01*
X25998Y-108504D01*
X26496Y-109002D01*
X27148Y-109272D01*
X27632D01*
X28648Y-110289D01*
X29025Y-110540D01*
X29469Y-110628D01*
X30354D01*
Y-112028D01*
Y-116697D01*
X30142D01*
Y-118309D01*
X27531D01*
X27531Y-118309D01*
X27088Y-118397D01*
X26711Y-118649D01*
X26680Y-118680D01*
X26429Y-119056D01*
X26340Y-119500D01*
X26429Y-119944D01*
X26680Y-120320D01*
X27056Y-120571D01*
X27500Y-120660D01*
X27658Y-120628D01*
X30142D01*
Y-122240D01*
X33094D01*
Y-119468D01*
X35094D01*
Y-122240D01*
X36697D01*
Y-123796D01*
X-48501D01*
X-66296Y-106001D01*
Y111001D01*
X-56962Y120335D01*
X-56500Y120144D01*
Y115231D01*
X-57944D01*
X-58388Y115143D01*
X-58764Y114891D01*
X-59015Y114515D01*
X-59104Y114071D01*
X-59015Y113628D01*
X-58764Y113251D01*
X-58388Y113000D01*
X-57944Y112912D01*
X-56500D01*
Y110938D01*
X-58006D01*
X-58450Y110849D01*
X-58826Y110598D01*
X-59078Y110222D01*
X-59166Y109778D01*
X-59078Y109334D01*
X-58826Y108958D01*
X-58450Y108707D01*
X-58006Y108618D01*
X-56500D01*
Y107467D01*
X-57692D01*
X-57692Y107467D01*
X-58136Y107379D01*
X-58512Y107128D01*
X-58513Y107128D01*
X-58820Y106820D01*
X-58820Y106820D01*
X-59002Y106547D01*
X-59071Y106444D01*
Y106444D01*
X-59071Y106444D01*
X-59121Y106193D01*
X-59160Y106000D01*
X-59160Y106000D01*
X-59160Y106000D01*
X-59160Y105565D01*
X-59071Y105121D01*
X-58820Y104745D01*
X-58444Y104494D01*
X-58000Y104405D01*
X-57556Y104494D01*
X-57180Y104745D01*
X-57000Y105014D01*
X-56500Y104908D01*
Y99000D01*
X-54699D01*
Y97500D01*
X-51799D01*
X-48900D01*
Y98623D01*
X-48687Y98753D01*
X-48187Y98472D01*
Y94138D01*
X-42813D01*
X-42587Y93731D01*
Y92313D01*
X-39100D01*
Y92100D01*
X-38160D01*
Y90500D01*
X-38071Y90056D01*
X-38141Y89750D01*
X-38287Y89517D01*
X-38569Y89473D01*
X-38866Y89671D01*
X-39310Y89760D01*
X-43900D01*
X-44344Y89671D01*
X-44720Y89420D01*
X-47820Y86320D01*
X-48071Y85944D01*
X-48123Y85687D01*
X-49362D01*
Y80313D01*
X-44638D01*
Y81840D01*
X-41700D01*
X-41256Y81929D01*
X-40981Y82113D01*
X-38813D01*
X-38738Y82073D01*
X-38652Y81462D01*
X-39040Y81075D01*
X-39299D01*
Y78500D01*
X-40299D01*
Y77500D01*
X-43199D01*
Y75925D01*
X-41660D01*
Y74500D01*
X-41571Y74056D01*
X-41320Y73680D01*
X-40944Y73429D01*
X-40500Y73340D01*
X-40056Y73429D01*
X-39680Y73680D01*
X-39429Y74056D01*
X-39340Y74500D01*
Y75925D01*
X-37400D01*
Y79283D01*
X-37187Y79447D01*
X-36687Y79202D01*
Y76138D01*
X-32144D01*
X-32050Y76023D01*
Y72514D01*
X-31962Y72070D01*
X-31710Y71694D01*
X-31362Y71346D01*
Y67612D01*
X-26905D01*
X-26583Y67162D01*
X-26691Y66900D01*
X-28000D01*
Y64000D01*
X-30000D01*
Y66900D01*
X-31575D01*
Y65160D01*
X-32157D01*
X-32601Y65071D01*
X-32977Y64820D01*
X-33671Y64126D01*
X-33944Y64071D01*
X-34320Y63820D01*
X-34571Y63444D01*
X-34660Y63000D01*
X-34571Y62556D01*
X-34320Y62180D01*
X-33944Y61929D01*
X-33500Y61840D01*
X-33157D01*
X-32713Y61929D01*
X-32337Y62180D01*
X-32075Y62442D01*
X-31575Y62235D01*
Y61100D01*
X-30160D01*
Y59000D01*
X-30071Y58556D01*
X-29820Y58180D01*
X-29444Y57929D01*
X-29000Y57840D01*
X-28556Y57929D01*
X-28180Y58180D01*
X-27929Y58556D01*
X-27840Y59000D01*
Y61100D01*
X-26425D01*
Y63839D01*
X-26362Y64313D01*
X-25925Y64313D01*
X-21638D01*
Y65687D01*
X-21575D01*
X-21073Y65787D01*
X-21028Y65818D01*
X-20528Y65550D01*
Y61213D01*
Y57276D01*
X-15898D01*
Y57102D01*
X-15724D01*
Y52472D01*
X-4158D01*
X-3967Y52011D01*
X-6914Y49063D01*
X-7613D01*
Y49637D01*
X-14787D01*
Y46068D01*
X-15213Y45887D01*
X-15287Y45887D01*
X-22387D01*
Y45160D01*
X-23154D01*
X-23496Y45502D01*
X-24148Y45772D01*
X-24852D01*
X-25504Y45502D01*
X-26002Y45004D01*
X-26272Y44352D01*
Y43648D01*
X-26002Y42996D01*
X-25504Y42498D01*
X-24852Y42228D01*
X-24148D01*
X-23496Y42498D01*
X-23154Y42840D01*
X-22387D01*
Y42113D01*
X-15287D01*
X-15213Y42113D01*
X-14787Y41932D01*
Y38363D01*
X-7613D01*
Y38937D01*
X507D01*
X2073Y37372D01*
X2499Y37087D01*
X3001Y36987D01*
X12952D01*
X13454Y37087D01*
X13880Y37372D01*
X18577Y42069D01*
X18862Y42495D01*
X18962Y42997D01*
Y55122D01*
X19584D01*
Y53369D01*
X19673Y52925D01*
X19924Y52549D01*
X20300Y52298D01*
X20744Y52209D01*
X21188Y52298D01*
X21564Y52549D01*
X21815Y52925D01*
X21904Y53369D01*
Y55122D01*
X23122D01*
Y56500D01*
X20744D01*
Y58500D01*
X23122D01*
Y59878D01*
X21904D01*
Y61256D01*
X21815Y61700D01*
X21564Y62076D01*
X21188Y62327D01*
X20744Y62416D01*
X20300Y62327D01*
X19924Y62076D01*
X19673Y61700D01*
X19584Y61256D01*
Y59878D01*
X18962D01*
Y62510D01*
X19977Y63525D01*
X20261Y63951D01*
X20361Y64454D01*
Y71605D01*
X20261Y72107D01*
X19977Y72533D01*
X19582Y72928D01*
X19156Y73213D01*
X18986Y73246D01*
Y74362D01*
X13612D01*
Y71222D01*
X13150Y71031D01*
X12687Y71494D01*
Y74362D01*
X7313D01*
Y73313D01*
X5003D01*
X4500Y73213D01*
X4074Y72928D01*
X2871Y71724D01*
X-1102D01*
Y71898D01*
X-1276D01*
Y75280D01*
X-1060D01*
X-616Y75369D01*
X-240Y75620D01*
X335Y76195D01*
X417Y76318D01*
X1320Y77221D01*
X1320Y77221D01*
X1571Y77597D01*
X1660Y78041D01*
Y78384D01*
X1571Y78828D01*
X1320Y79204D01*
X944Y79456D01*
X500Y79544D01*
X56Y79456D01*
X-320Y79204D01*
X-571Y78828D01*
X-626Y78555D01*
X-1305Y77876D01*
X-1388Y77752D01*
X-1540Y77600D01*
X-2940D01*
X-3242Y78100D01*
X-3078Y78497D01*
Y79202D01*
X-3101Y79259D01*
X-2806Y79554D01*
X-2555Y79930D01*
X-2466Y80374D01*
Y80770D01*
X-1244D01*
X-822Y80854D01*
X-464Y81093D01*
X-224Y81452D01*
X-140Y81874D01*
Y82107D01*
X360Y82405D01*
X641Y82349D01*
X1084Y82438D01*
X1461Y82689D01*
X1640Y82958D01*
X2140Y82850D01*
Y81874D01*
X2224Y81452D01*
X2464Y81093D01*
X2822Y80854D01*
X3244Y80770D01*
X8008D01*
X8430Y80854D01*
X8788Y81093D01*
X9028Y81452D01*
X9112Y81874D01*
Y83646D01*
X9028Y84068D01*
X8996Y84115D01*
X8942Y84680D01*
X9228Y85109D01*
X9274Y85340D01*
X10500D01*
X10944Y85429D01*
X11320Y85680D01*
X11571Y86056D01*
X11660Y86500D01*
X11571Y86944D01*
X11320Y87320D01*
X10944Y87571D01*
X10500Y87660D01*
X9274D01*
X9228Y87891D01*
X9173Y87974D01*
X8968Y88370D01*
X9173Y88766D01*
X9228Y88849D01*
X9274Y89081D01*
X9829D01*
X10056Y88929D01*
X10500Y88840D01*
X10944Y88929D01*
X11320Y89180D01*
X11571Y89556D01*
X11660Y90000D01*
X11571Y90444D01*
X11320Y90820D01*
X11080Y91060D01*
X10704Y91312D01*
X10260Y91400D01*
X9274D01*
X9228Y91631D01*
X8942Y92060D01*
X8513Y92346D01*
X8008Y92447D01*
X6626D01*
Y90240D01*
X4626D01*
Y92447D01*
X3244D01*
X2739Y92346D01*
X2310Y92060D01*
X2024Y91631D01*
X2021Y91616D01*
X1478Y91451D01*
X609Y92321D01*
Y95516D01*
X1599D01*
Y98779D01*
X3598D01*
Y95516D01*
X4780D01*
Y96216D01*
X5280Y96462D01*
X5511Y96285D01*
X6008Y96079D01*
Y101043D01*
Y106008D01*
X5511Y105802D01*
X4891Y105326D01*
X4415Y104706D01*
X4116Y103984D01*
X4014Y103209D01*
Y102043D01*
X2126D01*
X2027Y102543D01*
X2549Y102760D01*
X3130Y103341D01*
X3445Y104101D01*
Y104923D01*
X3130Y105683D01*
X2549Y106264D01*
X1789Y106579D01*
X967D01*
X207Y106264D01*
X-374Y105683D01*
X-656Y105003D01*
X-1151Y104791D01*
X-3668Y107308D01*
X-3476Y107770D01*
X10770D01*
Y94500D01*
X10939Y93647D01*
X11423Y92923D01*
X14423Y89923D01*
X15146Y89439D01*
X16000Y89270D01*
X16853Y89439D01*
X17577Y89923D01*
X18060Y90646D01*
X18230Y91500D01*
X18060Y92353D01*
X17577Y93077D01*
X15230Y95424D01*
Y96813D01*
X16762D01*
Y96750D01*
X16862Y96248D01*
X17147Y95822D01*
X20725Y92244D01*
X20676Y91746D01*
X20423Y91577D01*
X15621Y86775D01*
X15325Y86577D01*
X14841Y85853D01*
X14672Y85000D01*
X14841Y84146D01*
X15325Y83423D01*
X16048Y82939D01*
X16902Y82770D01*
X17000D01*
X17853Y82939D01*
X18577Y83423D01*
X20963Y85809D01*
X21425Y85618D01*
Y85201D01*
X24000D01*
Y84201D01*
X25000D01*
Y81301D01*
X26425D01*
Y80301D01*
X28000D01*
Y83201D01*
X30000D01*
Y80301D01*
X31575D01*
Y81301D01*
X33000D01*
Y84201D01*
X35000D01*
Y81301D01*
X36575D01*
X36638Y81514D01*
X41013D01*
X41425Y81301D01*
X41774Y81301D01*
X43000D01*
Y84201D01*
Y87100D01*
X41774D01*
X41425Y87100D01*
X41013Y86888D01*
X39047D01*
X38853Y87178D01*
X38680Y87351D01*
X38872Y87813D01*
X41362D01*
Y87813D01*
X41638D01*
Y87813D01*
X46362D01*
Y93187D01*
X44662D01*
Y94158D01*
X45004Y94500D01*
X45274Y95151D01*
Y95856D01*
X45140Y96178D01*
X45474Y96678D01*
X49313D01*
Y94213D01*
X63687D01*
Y99187D01*
X49313D01*
Y98997D01*
X42535D01*
X42535Y98997D01*
X42091Y98909D01*
X42000Y98848D01*
X41953Y98870D01*
X41901Y98974D01*
X41834Y99479D01*
X41903Y99582D01*
X41964Y99890D01*
Y100677D01*
X41903Y100984D01*
X41766Y101189D01*
X41903Y101394D01*
X41964Y101701D01*
Y101840D01*
X45000D01*
X45444Y101929D01*
X45820Y102180D01*
X46071Y102556D01*
X46160Y103000D01*
X46071Y103444D01*
X45820Y103820D01*
X45444Y104071D01*
X45000Y104160D01*
X41964D01*
Y104299D01*
X41903Y104606D01*
X41766Y104811D01*
X41903Y105016D01*
X41964Y105323D01*
Y106110D01*
X41903Y106418D01*
X41729Y106678D01*
X41469Y106852D01*
X41468Y106852D01*
X41517Y107352D01*
X49108D01*
X49313Y107147D01*
Y103813D01*
X63687D01*
Y108787D01*
X50953D01*
X50408Y109332D01*
X50032Y109583D01*
X49588Y109671D01*
X39600D01*
X39592Y109712D01*
X39314Y110129D01*
X38897Y110407D01*
X38405Y110505D01*
X37914Y110407D01*
X37808Y110336D01*
X37421Y110163D01*
X37035Y110336D01*
X36929Y110407D01*
X36437Y110505D01*
X36128Y110444D01*
X35628Y110751D01*
Y112138D01*
X37687D01*
Y116862D01*
X37687D01*
Y117138D01*
X37687D01*
Y121862D01*
X32313D01*
Y121730D01*
X21251D01*
X20398Y121561D01*
X19674Y121077D01*
X11423Y112826D01*
X11025Y112230D01*
X-29713D01*
Y113113D01*
X-29213Y113370D01*
X-28766Y113072D01*
X-28008Y112921D01*
Y117500D01*
Y122079D01*
X-28766Y121928D01*
X-29423Y121490D01*
X-29861Y120833D01*
X-29870Y120787D01*
X-41287D01*
Y101706D01*
X-41666Y101375D01*
X-41769Y101399D01*
X-41990Y101964D01*
X-41929Y102056D01*
X-41840Y102500D01*
X-41929Y102944D01*
X-42180Y103320D01*
X-42556Y103571D01*
X-43000Y103660D01*
X-44500D01*
Y104681D01*
X-43000D01*
X-42556Y104769D01*
X-42180Y105020D01*
X-41929Y105396D01*
X-41840Y105840D01*
X-41929Y106284D01*
X-42180Y106660D01*
X-42556Y106912D01*
X-43000Y107000D01*
X-44500D01*
Y107969D01*
X-44000Y108237D01*
X-43878Y108155D01*
X-43434Y108067D01*
X-43091D01*
X-42647Y108155D01*
X-42271Y108406D01*
X-42019Y108782D01*
X-41931Y109226D01*
X-42019Y109670D01*
X-42271Y110046D01*
X-42647Y110298D01*
X-42919Y110352D01*
X-43387Y110820D01*
X-43764Y111071D01*
X-44208Y111160D01*
X-44500D01*
Y111840D01*
X-43000D01*
X-42556Y111929D01*
X-42180Y112180D01*
X-41929Y112556D01*
X-41840Y113000D01*
X-41929Y113444D01*
X-42180Y113820D01*
X-42556Y114071D01*
X-43000Y114160D01*
X-44500D01*
Y115937D01*
X-43000D01*
X-42556Y116025D01*
X-42180Y116277D01*
X-41929Y116653D01*
X-41840Y117097D01*
X-41929Y117541D01*
X-42180Y117917D01*
X-42556Y118168D01*
X-43000Y118256D01*
X-43716D01*
X-43923Y118756D01*
X-42180Y120499D01*
X-41929Y120876D01*
X-41840Y121319D01*
X-41929Y121763D01*
X-42180Y122139D01*
X-42556Y122391D01*
X-43000Y122479D01*
X-43444Y122391D01*
X-43820Y122139D01*
X-44959Y121000D01*
X-49500D01*
Y110000D01*
X-51500D01*
Y121000D01*
X-55644D01*
X-55835Y121462D01*
X-51001Y126296D01*
X51001D01*
X66296Y111001D01*
D02*
G37*
G36*
X41161Y105323D02*
X38110D01*
Y104299D01*
X41161D01*
Y103512D01*
X38110D01*
Y102488D01*
X41161D01*
Y101701D01*
X38110D01*
Y100677D01*
X41161D01*
Y99890D01*
X23839D01*
Y100677D01*
X26890D01*
Y101701D01*
X23839D01*
Y102488D01*
X26890D01*
Y103512D01*
X23839D01*
Y104299D01*
X26890D01*
Y105323D01*
X23839D01*
Y106110D01*
X41161D01*
Y105323D01*
D02*
G37*
G36*
X23036Y105491D02*
Y105323D01*
X23097Y105016D01*
X23234Y104811D01*
X23097Y104606D01*
X23036Y104299D01*
Y104160D01*
X21500D01*
X21056Y104071D01*
X20680Y103820D01*
X20429Y103444D01*
X20340Y103000D01*
X20429Y102556D01*
X20680Y102180D01*
X21056Y101929D01*
X21500Y101840D01*
X23036D01*
Y101701D01*
X23097Y101394D01*
X23234Y101189D01*
X23097Y100984D01*
X23036Y100677D01*
Y99890D01*
X23097Y99582D01*
X23271Y99322D01*
X23531Y99148D01*
X23839Y99087D01*
X25118D01*
X25388Y98587D01*
X25310Y98197D01*
Y97135D01*
X24971Y96796D01*
X24184D01*
X23732Y97248D01*
X23081Y97518D01*
X22376D01*
X21725Y97248D01*
X21226Y96750D01*
X21054Y96334D01*
X20495Y96186D01*
X19387Y97294D01*
Y98425D01*
X19362Y98552D01*
Y102187D01*
X15230D01*
Y103112D01*
X19362D01*
Y104639D01*
X20997D01*
X21441Y104728D01*
X21817Y104979D01*
X22536Y105698D01*
X23036Y105491D01*
D02*
G37*
G36*
X-12056Y95722D02*
X-11804Y95346D01*
X-11628Y95170D01*
Y78313D01*
X-12090Y78122D01*
X-13138Y79169D01*
Y82687D01*
X-17516D01*
X-17820Y83187D01*
X-17709Y83400D01*
X-16500D01*
Y86299D01*
X-15500D01*
Y87299D01*
X-12925D01*
Y89199D01*
X-14340D01*
Y91000D01*
X-14429Y91444D01*
X-14680Y91820D01*
X-15056Y92071D01*
X-15500Y92160D01*
X-15944Y92071D01*
X-16320Y91820D01*
X-16571Y91444D01*
X-16660Y91000D01*
Y89199D01*
X-18070D01*
Y95728D01*
X-12057D01*
X-12056Y95722D01*
D02*
G37*
G36*
X-30362Y83313D02*
X-25638D01*
Y83313D01*
X-25362D01*
Y83313D01*
X-20638D01*
X-20390Y82916D01*
Y81362D01*
X-23687D01*
Y76638D01*
X-18313D01*
Y77194D01*
X-17862Y77313D01*
Y77313D01*
X-16813D01*
Y76303D01*
X-16713Y75801D01*
X-16428Y75375D01*
X-16165Y75112D01*
X-16372Y74612D01*
X-21638D01*
Y75986D01*
X-26154D01*
X-26279Y76138D01*
X-26043Y76638D01*
X-24612D01*
Y81362D01*
X-29986D01*
Y78448D01*
X-30343Y78210D01*
X-30851Y77702D01*
X-31313Y77893D01*
Y80862D01*
X-32840D01*
Y82113D01*
X-31413D01*
Y87506D01*
X-30362D01*
Y83313D01*
D02*
G37*
G36*
X11437Y60819D02*
X8872Y58254D01*
X8587Y57828D01*
X8487Y57325D01*
Y49637D01*
X6213D01*
Y46068D01*
X5787Y45887D01*
X5723Y45887D01*
X910D01*
Y46750D01*
X821Y47194D01*
X570Y47570D01*
X570Y47570D01*
X-129Y48269D01*
Y48753D01*
X-399Y49404D01*
X-897Y49902D01*
X-1433Y50125D01*
X-1630Y50634D01*
X7457Y59722D01*
X7742Y60148D01*
X7842Y60650D01*
Y61472D01*
X9528Y63159D01*
X9813Y63585D01*
X9913Y64087D01*
Y64638D01*
X11437D01*
Y60819D01*
D02*
G37*
G36*
X-3624Y47933D02*
X-3402Y47397D01*
X-2904Y46899D01*
X-2253Y46629D01*
X-1769D01*
X-1410Y46270D01*
Y44750D01*
X-1387Y44638D01*
Y42113D01*
X5723D01*
X5787Y42113D01*
X6213Y41932D01*
Y39613D01*
X3545D01*
X1979Y41178D01*
X1553Y41463D01*
X1051Y41563D01*
X-7613D01*
Y42137D01*
X-14713D01*
X-14787Y42137D01*
X-15213Y42318D01*
Y45682D01*
X-14787Y45863D01*
X-14713Y45863D01*
X-7613D01*
Y46437D01*
X-6371D01*
X-5868Y46537D01*
X-5443Y46822D01*
X-4134Y48130D01*
X-3624Y47933D01*
D02*
G37*
G36*
X-15073Y19760D02*
X-14655Y19481D01*
X-14599Y19469D01*
X-13031Y17901D01*
X-13019Y17845D01*
X-12740Y17427D01*
X-12640Y17360D01*
Y16758D01*
X-12740Y16691D01*
X-13019Y16273D01*
X-13118Y15779D01*
X-13019Y15286D01*
X-12740Y14868D01*
X-12640Y14801D01*
Y14199D01*
X-12740Y14132D01*
X-13019Y13714D01*
X-13118Y13220D01*
X-13019Y12727D01*
X-12748Y12321D01*
X-12763Y12243D01*
X-12910Y11821D01*
X-14387D01*
X-14831Y11733D01*
X-15207Y11481D01*
X-17158Y9531D01*
X-17214Y9519D01*
X-17632Y9240D01*
X-18173Y9331D01*
X-18214Y9393D01*
X-18280Y9437D01*
Y7212D01*
X-20279D01*
Y9437D01*
X-20345Y9393D01*
X-20386Y9331D01*
X-20927Y9240D01*
X-21345Y9519D01*
X-21839Y9618D01*
X-22332Y9519D01*
X-22750Y9240D01*
X-23030Y8822D01*
X-23060Y8668D01*
X-23926D01*
X-24092Y8885D01*
X-23882Y9430D01*
X-23678Y9470D01*
X-23260Y9750D01*
X-22981Y10168D01*
X-22882Y10661D01*
X-22981Y11155D01*
X-23260Y11573D01*
X-23360Y11640D01*
Y12242D01*
X-23260Y12309D01*
X-22981Y12727D01*
X-22882Y13220D01*
X-22981Y13714D01*
X-23260Y14132D01*
X-23360Y14199D01*
Y14801D01*
X-23260Y14868D01*
X-22981Y15286D01*
X-22882Y15779D01*
X-22981Y16273D01*
X-23182Y16574D01*
X-23036Y16977D01*
X-22960Y17074D01*
X-22907D01*
Y18216D01*
X-22407Y18423D01*
X-21151Y17167D01*
X-21151Y17167D01*
X-20775Y16916D01*
X-20331Y16827D01*
X-20331Y16827D01*
X-19823D01*
X-19480Y16485D01*
X-18829Y16216D01*
X-18124D01*
X-17473Y16485D01*
X-16975Y16984D01*
X-16705Y17635D01*
Y18339D01*
X-16945Y18917D01*
X-16795Y19228D01*
X-16670Y19392D01*
X-16227Y19481D01*
X-15809Y19760D01*
X-15742Y19860D01*
X-15140D01*
X-15073Y19760D01*
D02*
G37*
G36*
X29381Y36929D02*
X29825Y36840D01*
X40020D01*
X53580Y23280D01*
Y13125D01*
X53181Y12882D01*
X52160D01*
Y15000D01*
X52071Y15444D01*
X51820Y15820D01*
X51444Y16071D01*
X51000Y16160D01*
X50556Y16071D01*
X50180Y15820D01*
X49929Y15444D01*
X49840Y15000D01*
Y12882D01*
X48819D01*
X48419Y13125D01*
Y15705D01*
X48331Y16148D01*
X48080Y16524D01*
X44575Y20030D01*
Y21799D01*
X42000D01*
Y23799D01*
X44575D01*
Y25699D01*
X43160D01*
Y27500D01*
X43071Y27944D01*
X42820Y28320D01*
X42444Y28571D01*
X42000Y28660D01*
X41556Y28571D01*
X41180Y28320D01*
X40929Y27944D01*
X40840Y27500D01*
Y25699D01*
X39425D01*
Y22376D01*
X38925Y22108D01*
X38862Y22151D01*
Y25486D01*
X34349D01*
X34078Y25581D01*
X33887Y25883D01*
Y26352D01*
X33618Y27004D01*
X33119Y27502D01*
X32468Y27772D01*
X31984D01*
X28674Y31082D01*
Y36844D01*
X29174Y37067D01*
X29381Y36929D01*
D02*
G37*
G36*
X66296Y-44766D02*
X65986Y-45138D01*
X65796Y-45138D01*
X64660D01*
Y-44346D01*
X65002Y-44004D01*
X65272Y-43352D01*
Y-42648D01*
X65002Y-41996D01*
X64504Y-41498D01*
X63852Y-41228D01*
X63148D01*
X62496Y-41498D01*
X61998Y-41996D01*
X61728Y-42648D01*
Y-43352D01*
X61998Y-44004D01*
X62340Y-44346D01*
Y-45138D01*
X60612D01*
Y-49862D01*
X65796D01*
X65986Y-49862D01*
X66296Y-50234D01*
Y-105204D01*
X47704Y-123796D01*
X37500D01*
Y-122028D01*
X37835D01*
Y-117682D01*
X38335Y-117361D01*
X38425Y-117400D01*
Y-117400D01*
X38481Y-117400D01*
X40500D01*
Y-114500D01*
Y-111600D01*
X38507D01*
X38425Y-111600D01*
Y-111600D01*
X38335Y-111624D01*
X37835Y-111279D01*
Y-107027D01*
Y-102027D01*
Y-97027D01*
Y-92027D01*
Y-90073D01*
X38179Y-89919D01*
X38335Y-89903D01*
X38925Y-90493D01*
Y-91049D01*
X39195Y-91701D01*
X39693Y-92199D01*
X40345Y-92469D01*
X41050D01*
X41701Y-92199D01*
X42199Y-91701D01*
X42469Y-91049D01*
Y-90345D01*
X42199Y-89693D01*
X42111Y-89605D01*
X42318Y-89105D01*
X42598D01*
X43022Y-89021D01*
X43382Y-88781D01*
X44976Y-87187D01*
X45313Y-86862D01*
Y-86862D01*
X45313Y-86862D01*
X50687D01*
Y-85660D01*
X51313D01*
Y-86862D01*
X56687D01*
Y-82138D01*
X51313D01*
Y-83340D01*
X50687D01*
Y-82138D01*
X47043D01*
X46835Y-81638D01*
X55646Y-72827D01*
X55887Y-72467D01*
X55905Y-72377D01*
X56424Y-72326D01*
X56498Y-72504D01*
X56996Y-73002D01*
X57648Y-73272D01*
X58352D01*
X59004Y-73002D01*
X59502Y-72504D01*
X59772Y-71852D01*
Y-71148D01*
X59502Y-70496D01*
X59004Y-69998D01*
X58352Y-69728D01*
X58085D01*
X57750Y-69393D01*
Y-66925D01*
X57650Y-66423D01*
X57641Y-66410D01*
Y-65858D01*
X58425D01*
Y-64437D01*
X58925D01*
Y-64067D01*
X60303D01*
X60764Y-63975D01*
X60821Y-63937D01*
X61625D01*
X61616Y-63893D01*
X61325Y-63458D01*
X61416Y-63323D01*
X61507Y-62862D01*
X61416Y-62401D01*
X61198Y-62075D01*
X61416Y-61748D01*
X61507Y-61287D01*
X61416Y-60827D01*
X61198Y-60500D01*
X61416Y-60173D01*
X61507Y-59713D01*
X61416Y-59252D01*
X61198Y-58925D01*
X61416Y-58599D01*
X61507Y-58138D01*
X61416Y-57677D01*
X61198Y-57350D01*
X61416Y-57024D01*
X61507Y-56563D01*
X61416Y-56102D01*
X61155Y-55712D01*
X60764Y-55450D01*
X60303Y-55359D01*
X57641D01*
Y-52697D01*
X57550Y-52236D01*
X57288Y-51845D01*
X56898Y-51584D01*
X56437Y-51493D01*
X56408Y-51498D01*
X56022Y-51181D01*
Y-50075D01*
X56500D01*
Y-48000D01*
X54100D01*
Y-48135D01*
X53674Y-48430D01*
X53569Y-48429D01*
X53272Y-48132D01*
Y-47648D01*
X53002Y-46996D01*
X52504Y-46498D01*
X51852Y-46228D01*
X51148D01*
X50496Y-46498D01*
X50486Y-46508D01*
X49986Y-46301D01*
Y-43638D01*
X44612D01*
Y-48362D01*
X46890D01*
Y-49034D01*
X46978Y-49478D01*
X47230Y-49854D01*
X48393Y-51017D01*
X48228Y-51559D01*
X48102Y-51584D01*
X47712Y-51845D01*
X47684Y-51887D01*
X46815D01*
X46772Y-51843D01*
Y-51648D01*
X46502Y-50996D01*
X46004Y-50498D01*
X45352Y-50228D01*
X44648D01*
X43996Y-50498D01*
X43498Y-50996D01*
X43228Y-51648D01*
Y-52352D01*
X43498Y-53004D01*
X43996Y-53502D01*
X44648Y-53772D01*
X45352D01*
X45400Y-53752D01*
X45515Y-53867D01*
X45515Y-53867D01*
X45891Y-54118D01*
X46335Y-54207D01*
X46335Y-54207D01*
X47359D01*
Y-55142D01*
X46575D01*
Y-56563D01*
X45575D01*
Y-55142D01*
X44697D01*
X44153Y-55250D01*
X44075Y-55302D01*
X43575Y-55094D01*
Y-53801D01*
X41500D01*
Y-56701D01*
Y-59600D01*
X43104D01*
X43212Y-59850D01*
X42876Y-60313D01*
X38638D01*
Y-60321D01*
X38176Y-60513D01*
X37835Y-60171D01*
Y-57028D01*
Y-51910D01*
X37500D01*
Y-51000D01*
X31500Y-45000D01*
X25420D01*
X20599Y-40180D01*
X20223Y-39929D01*
X19780Y-39840D01*
X17575D01*
Y-38500D01*
X15000D01*
X12425D01*
Y-39840D01*
X10000D01*
Y-5500D01*
X14638D01*
Y-8486D01*
X15301D01*
X15508Y-8986D01*
X15498Y-8996D01*
X15228Y-9648D01*
Y-10352D01*
X15498Y-11004D01*
X15996Y-11502D01*
X16239Y-11602D01*
X16254Y-11723D01*
X16189Y-12123D01*
X15647Y-12348D01*
X15149Y-12846D01*
X14879Y-13497D01*
Y-13981D01*
X14180Y-14680D01*
X13929Y-15056D01*
X13840Y-15500D01*
Y-16014D01*
X12638D01*
Y-21388D01*
X17362D01*
Y-16014D01*
X17361D01*
X17262Y-15514D01*
X17654Y-15351D01*
X18153Y-14853D01*
X18422Y-14202D01*
Y-13497D01*
X18153Y-12846D01*
X17654Y-12348D01*
X17412Y-12247D01*
X17397Y-12126D01*
X17461Y-11727D01*
X18004Y-11502D01*
X18502Y-11004D01*
X18772Y-10352D01*
Y-9648D01*
X18502Y-8996D01*
X18492Y-8986D01*
X18699Y-8486D01*
X19362D01*
Y-5500D01*
X25360D01*
X27860Y-8000D01*
X29500D01*
Y-6360D01*
X29102Y-5962D01*
X29293Y-5500D01*
X42130D01*
X42228Y-5648D01*
Y-6352D01*
X42498Y-7004D01*
X42996Y-7502D01*
X43648Y-7772D01*
X44352D01*
X45004Y-7502D01*
X45502Y-7004D01*
X45750Y-6405D01*
X46000Y-6377D01*
X46250Y-6405D01*
X46498Y-7004D01*
X46996Y-7502D01*
X47648Y-7772D01*
X48352D01*
X49004Y-7502D01*
X49502Y-7004D01*
X49750Y-6405D01*
X50000Y-6377D01*
X50250Y-6405D01*
X50498Y-7004D01*
X50996Y-7502D01*
X51648Y-7772D01*
X52352D01*
X53004Y-7502D01*
X53502Y-7004D01*
X53772Y-6352D01*
Y-5648D01*
X53870Y-5500D01*
X66296D01*
Y-44766D01*
D02*
G37*
G36*
X21678Y-44538D02*
X21486Y-45000D01*
X10000D01*
Y-42160D01*
X19299D01*
X21678Y-44538D01*
D02*
G37*
G36*
X-34914Y-43949D02*
X-41878Y-50914D01*
X-42340Y-50722D01*
Y-46772D01*
X-39056Y-43487D01*
X-35105D01*
X-34914Y-43949D01*
D02*
G37*
G36*
X36697Y-51333D02*
Y-51910D01*
X30354D01*
Y-52873D01*
X30205Y-52999D01*
X29934Y-52930D01*
X29705Y-52766D01*
Y-45807D01*
X30203Y-45803D01*
X31168D01*
X36697Y-51333D01*
D02*
G37*
G36*
X-43153Y-70288D02*
X-42776Y-70540D01*
X-42333Y-70628D01*
X-38543D01*
Y-73309D01*
X-44051D01*
X-52518Y-64842D01*
X-52331Y-64520D01*
X-52063Y-63518D01*
Y-62482D01*
X-52208Y-61940D01*
X-51760Y-61681D01*
X-43153Y-70288D01*
D02*
G37*
G36*
X44043Y-74912D02*
X44469Y-75197D01*
X44971Y-75297D01*
X49333D01*
X49549Y-75789D01*
X46234Y-79104D01*
X45687Y-78943D01*
X45502Y-78496D01*
X45004Y-77998D01*
X44352Y-77728D01*
X43648D01*
X42996Y-77998D01*
X42654Y-78340D01*
X37835D01*
Y-77027D01*
Y-72027D01*
Y-69358D01*
X38297Y-69166D01*
X44043Y-74912D01*
D02*
G37*
%LPC*%
G36*
X40299Y122075D02*
X38400D01*
Y120500D01*
X40299D01*
Y122075D01*
D02*
G37*
G36*
X8008Y122079D02*
Y118500D01*
X10015D01*
Y120059D01*
X9861Y120833D01*
X9423Y121490D01*
X8766Y121928D01*
X8008Y122079D01*
D02*
G37*
G36*
X6008D02*
X5249Y121928D01*
X4593Y121490D01*
X4154Y120833D01*
X4000Y120059D01*
Y118500D01*
X6008D01*
Y122079D01*
D02*
G37*
G36*
X-26008D02*
Y118500D01*
X-24001D01*
Y120059D01*
X-24155Y120833D01*
X-24593Y121490D01*
X-25249Y121928D01*
X-26008Y122079D01*
D02*
G37*
G36*
X10015Y116500D02*
X8008D01*
Y112921D01*
X8766Y113072D01*
X9423Y113510D01*
X9861Y114167D01*
X10015Y114941D01*
Y116500D01*
D02*
G37*
G36*
X-24001Y116500D02*
X-26008D01*
Y112921D01*
X-25249Y113072D01*
X-24593Y113510D01*
X-24155Y114167D01*
X-24001Y114941D01*
Y116500D01*
D02*
G37*
G36*
X6008Y116500D02*
X4000D01*
Y114941D01*
X4154Y114167D01*
X4593Y113510D01*
X5249Y113072D01*
X6008Y112921D01*
Y116500D01*
D02*
G37*
G36*
X44199Y122075D02*
X42299D01*
Y119500D01*
X41299D01*
Y118500D01*
X38400D01*
Y116925D01*
Y115500D01*
X41299D01*
Y114500D01*
X42299D01*
Y111925D01*
X44199D01*
Y113340D01*
X45000D01*
X45444Y113429D01*
X45820Y113680D01*
X46320Y114180D01*
X46571Y114556D01*
X46660Y115000D01*
X46571Y115444D01*
X46320Y115820D01*
X45944Y116071D01*
X45500Y116160D01*
X45056Y116071D01*
X44699Y115833D01*
X44620Y115848D01*
X44199Y116046D01*
Y118340D01*
X45500D01*
X45944Y118429D01*
X46320Y118680D01*
X46571Y119056D01*
X46660Y119500D01*
X46571Y119944D01*
X46320Y120320D01*
X45944Y120571D01*
X45500Y120660D01*
X44199D01*
Y122075D01*
D02*
G37*
G36*
X40299Y113500D02*
X38400D01*
Y111925D01*
X40299D01*
Y113500D01*
D02*
G37*
G36*
X8008Y106008D02*
Y102043D01*
X10002D01*
Y103209D01*
X9900Y103984D01*
X9601Y104706D01*
X9125Y105326D01*
X8505Y105802D01*
X8008Y106008D01*
D02*
G37*
G36*
X10002Y100043D02*
X8008D01*
Y96079D01*
X8505Y96285D01*
X9125Y96761D01*
X9601Y97381D01*
X9900Y98103D01*
X10002Y98878D01*
Y100043D01*
D02*
G37*
G36*
X-48900Y95500D02*
X-50799D01*
Y93925D01*
X-48900D01*
Y95500D01*
D02*
G37*
G36*
X-52799D02*
X-54699D01*
Y93925D01*
X-52799D01*
Y95500D01*
D02*
G37*
G36*
X-55000Y91028D02*
Y88000D01*
X-51972D01*
X-52133Y88602D01*
X-52680Y89548D01*
X-53452Y90320D01*
X-54398Y90867D01*
X-55000Y91028D01*
D02*
G37*
G36*
X-57000D02*
X-57602Y90867D01*
X-58548Y90320D01*
X-59320Y89548D01*
X-59867Y88602D01*
X-60028Y88000D01*
X-57000D01*
Y91028D01*
D02*
G37*
G36*
X-51972Y86000D02*
X-55000D01*
Y82972D01*
X-54398Y83133D01*
X-53452Y83679D01*
X-52680Y84452D01*
X-52133Y85398D01*
X-51972Y86000D01*
D02*
G37*
G36*
X-57000D02*
X-60028D01*
X-59867Y85398D01*
X-59320Y84452D01*
X-58548Y83679D01*
X-57602Y83133D01*
X-57000Y82972D01*
Y86000D01*
D02*
G37*
G36*
X45000Y87100D02*
Y84201D01*
Y81301D01*
X46575D01*
Y82840D01*
X48660D01*
X49104Y82929D01*
X49480Y83180D01*
X49731Y83556D01*
X49819Y84000D01*
X49731Y84444D01*
X49480Y84820D01*
X49104Y85071D01*
X48660Y85160D01*
X46575D01*
Y87100D01*
X45000D01*
D02*
G37*
G36*
X-41299Y81075D02*
X-43199D01*
Y79500D01*
X-41299D01*
Y81075D01*
D02*
G37*
G36*
X23000Y83201D02*
X21425D01*
Y82941D01*
X19680Y81196D01*
X19429Y80820D01*
X19340Y80376D01*
Y80000D01*
X19429Y79556D01*
X19680Y79180D01*
X20056Y78929D01*
X20500Y78840D01*
X20944Y78929D01*
X21320Y79180D01*
X21571Y79556D01*
X21634Y79870D01*
X23000Y81236D01*
Y83201D01*
D02*
G37*
G36*
X-44425Y79600D02*
X-46000D01*
Y77701D01*
X-44425D01*
Y79600D01*
D02*
G37*
G36*
X-48000D02*
X-49575D01*
Y77701D01*
X-48000D01*
Y79600D01*
D02*
G37*
G36*
X48500Y81160D02*
X48056Y81071D01*
X47680Y80820D01*
X47429Y80444D01*
X47374Y80171D01*
X46680Y79477D01*
X46429Y79101D01*
X46340Y78657D01*
Y78634D01*
X45122D01*
Y77256D01*
X47500D01*
Y76256D01*
X48500D01*
Y73878D01*
X49878D01*
Y75096D01*
X50413D01*
X50856Y75185D01*
X51233Y75436D01*
X51671Y75874D01*
X51944Y75929D01*
X52320Y76180D01*
X52571Y76556D01*
X52660Y77000D01*
X52571Y77444D01*
X52320Y77820D01*
X51944Y78071D01*
X51500Y78160D01*
X51157D01*
X50713Y78071D01*
X50378Y77848D01*
X50215Y77886D01*
X49878Y78068D01*
Y78634D01*
X49786D01*
X49519Y79134D01*
X49571Y79213D01*
X49660Y79657D01*
Y80000D01*
X49571Y80444D01*
X49320Y80820D01*
X48944Y81071D01*
X48500Y81160D01*
D02*
G37*
G36*
X46500Y75256D02*
X45122D01*
Y73878D01*
X46500D01*
Y75256D01*
D02*
G37*
G36*
X-55482Y80937D02*
X-56518D01*
X-57520Y80669D01*
X-58417Y80150D01*
X-59150Y79417D01*
X-59669Y78520D01*
X-59937Y77518D01*
Y76482D01*
X-59669Y75480D01*
X-59150Y74583D01*
X-58417Y73850D01*
X-57520Y73331D01*
X-56518Y73063D01*
X-55482D01*
X-54480Y73331D01*
X-53583Y73850D01*
X-52850Y74583D01*
X-52331Y75480D01*
X-52063Y76482D01*
Y77518D01*
X-52331Y78520D01*
X-52850Y79417D01*
X-53583Y80150D01*
X-54480Y80669D01*
X-55482Y80937D01*
D02*
G37*
G36*
X-44425Y75701D02*
X-47000D01*
X-49575D01*
Y73801D01*
X-48160D01*
Y72000D01*
X-48071Y71556D01*
X-47820Y71180D01*
X-47444Y70929D01*
X-47000Y70840D01*
X-46556Y70929D01*
X-46180Y71180D01*
X-45929Y71556D01*
X-45840Y72000D01*
Y73801D01*
X-44425D01*
Y75701D01*
D02*
G37*
G36*
X58500Y70160D02*
X58056Y70071D01*
X57680Y69820D01*
X57429Y69444D01*
X57340Y69000D01*
X57376Y68822D01*
Y66874D01*
X55653D01*
Y64500D01*
X61418D01*
Y66874D01*
X59695D01*
Y68965D01*
X59607Y69408D01*
X59355Y69785D01*
X59320Y69820D01*
X58944Y70071D01*
X58500Y70160D01*
D02*
G37*
G36*
X-55482Y70937D02*
X-56518D01*
X-57520Y70669D01*
X-58417Y70150D01*
X-59150Y69417D01*
X-59669Y68520D01*
X-59937Y67518D01*
Y66482D01*
X-59669Y65480D01*
X-59150Y64583D01*
X-58417Y63850D01*
X-57520Y63331D01*
X-56518Y63063D01*
X-55482D01*
X-54480Y63331D01*
X-53583Y63850D01*
X-52850Y64583D01*
X-52331Y65480D01*
X-52063Y66482D01*
Y67518D01*
X-52331Y68520D01*
X-52850Y69417D01*
X-53583Y70150D01*
X-54480Y70669D01*
X-55482Y70937D01*
D02*
G37*
G36*
Y60937D02*
X-56518D01*
X-57520Y60669D01*
X-58417Y60150D01*
X-59150Y59417D01*
X-59669Y58520D01*
X-59937Y57518D01*
Y56482D01*
X-59669Y55480D01*
X-59150Y54583D01*
X-58417Y53850D01*
X-57520Y53331D01*
X-56518Y53063D01*
X-55482D01*
X-54480Y53331D01*
X-53583Y53850D01*
X-52850Y54583D01*
X-52331Y55480D01*
X-52063Y56482D01*
Y57518D01*
X-52331Y58520D01*
X-52850Y59417D01*
X-53583Y60150D01*
X-54480Y60669D01*
X-55482Y60937D01*
D02*
G37*
G36*
X61418Y62500D02*
X55653D01*
Y60126D01*
X57443D01*
X57464Y60021D01*
X57715Y59645D01*
X58612Y58748D01*
Y58536D01*
X58360Y58160D01*
X58272Y57716D01*
Y56040D01*
X55371D01*
Y51500D01*
X63493D01*
Y56040D01*
X60591D01*
Y57236D01*
X61006Y57651D01*
X61006Y57651D01*
X61257Y58027D01*
X61346Y58471D01*
X61346Y58471D01*
Y58814D01*
X61257Y59258D01*
X61006Y59634D01*
X61006Y59634D01*
X60976Y59664D01*
X61168Y60126D01*
X61418D01*
Y62500D01*
D02*
G37*
G36*
X63493Y49500D02*
X60432D01*
Y44960D01*
X63493D01*
Y49500D01*
D02*
G37*
G36*
X58432D02*
X55371D01*
Y44960D01*
X58432D01*
Y49500D01*
D02*
G37*
G36*
X44878Y46122D02*
X43500D01*
Y44744D01*
X44878D01*
Y46122D01*
D02*
G37*
G36*
X41500D02*
X40122D01*
Y44744D01*
X41500D01*
Y46122D01*
D02*
G37*
G36*
X-55482Y50937D02*
X-56518D01*
X-57520Y50669D01*
X-58417Y50150D01*
X-59150Y49417D01*
X-59669Y48520D01*
X-59937Y47518D01*
Y46482D01*
X-59669Y45480D01*
X-59150Y44583D01*
X-58417Y43850D01*
X-57520Y43331D01*
X-56518Y43063D01*
X-55482D01*
X-54480Y43331D01*
X-53583Y43850D01*
X-52850Y44583D01*
X-52331Y45480D01*
X-52063Y46482D01*
Y47518D01*
X-52331Y48520D01*
X-52850Y49417D01*
X-53583Y50150D01*
X-54480Y50669D01*
X-55482Y50937D01*
D02*
G37*
G36*
X44878Y42744D02*
X42500D01*
X40122D01*
Y41366D01*
X41340D01*
Y40244D01*
X41429Y39800D01*
X41680Y39424D01*
X42056Y39173D01*
X42500Y39084D01*
X42944Y39173D01*
X43320Y39424D01*
X43571Y39800D01*
X43660Y40244D01*
Y41366D01*
X44878D01*
Y42744D01*
D02*
G37*
G36*
X15852Y36772D02*
X15148D01*
X14496Y36502D01*
X13998Y36004D01*
X13728Y35352D01*
Y34648D01*
X13998Y33996D01*
X14496Y33498D01*
X15148Y33228D01*
X15852D01*
X16504Y33498D01*
X17002Y33996D01*
X17272Y34648D01*
Y35352D01*
X17002Y36004D01*
X16504Y36502D01*
X15852Y36772D01*
D02*
G37*
G36*
X-55482Y40937D02*
X-56518D01*
X-57520Y40669D01*
X-58417Y40150D01*
X-59150Y39417D01*
X-59669Y38520D01*
X-59937Y37518D01*
Y36482D01*
X-59669Y35480D01*
X-59150Y34583D01*
X-58417Y33850D01*
X-57520Y33331D01*
X-56518Y33063D01*
X-55482D01*
X-54480Y33331D01*
X-53583Y33850D01*
X-52850Y34583D01*
X-52331Y35480D01*
X-52063Y36482D01*
Y37518D01*
X-52331Y38520D01*
X-52850Y39417D01*
X-53583Y40150D01*
X-54480Y40669D01*
X-55482Y40937D01*
D02*
G37*
G36*
X13299Y31075D02*
X11400D01*
Y29500D01*
X13299D01*
Y31075D01*
D02*
G37*
G36*
X17199D02*
X15299D01*
Y28500D01*
X14299D01*
Y27500D01*
X11400D01*
Y25925D01*
Y24500D01*
X14299D01*
Y23500D01*
X15299D01*
Y20925D01*
X17199D01*
Y22340D01*
X18500D01*
X18944Y22429D01*
X19320Y22680D01*
X19571Y23056D01*
X19660Y23500D01*
X19571Y23944D01*
X19320Y24320D01*
X18944Y24571D01*
X18500Y24660D01*
X17199D01*
Y26954D01*
X17620Y27152D01*
X17699Y27167D01*
X18056Y26929D01*
X18500Y26840D01*
X18944Y26929D01*
X19320Y27180D01*
X19571Y27556D01*
X19660Y28000D01*
X19571Y28444D01*
X19320Y28820D01*
X18820Y29320D01*
X18444Y29571D01*
X18000Y29660D01*
X17199D01*
Y31075D01*
D02*
G37*
G36*
X-55482Y30937D02*
X-56518D01*
X-57520Y30669D01*
X-58417Y30150D01*
X-59150Y29417D01*
X-59669Y28520D01*
X-59937Y27518D01*
Y26482D01*
X-59669Y25480D01*
X-59150Y24583D01*
X-58417Y23850D01*
X-57520Y23331D01*
X-56518Y23063D01*
X-55482D01*
X-54480Y23331D01*
X-53583Y23850D01*
X-52850Y24583D01*
X-52331Y25480D01*
X-52063Y26482D01*
Y27518D01*
X-52331Y28520D01*
X-52850Y29417D01*
X-53583Y30150D01*
X-54480Y30669D01*
X-55482Y30937D01*
D02*
G37*
G36*
X13299Y22500D02*
X11400D01*
Y20925D01*
X13299D01*
Y22500D01*
D02*
G37*
G36*
X-55482Y20937D02*
X-56518D01*
X-57520Y20669D01*
X-58417Y20150D01*
X-59150Y19417D01*
X-59669Y18520D01*
X-59937Y17518D01*
Y16482D01*
X-59669Y15480D01*
X-59150Y14583D01*
X-58417Y13850D01*
X-57520Y13331D01*
X-56518Y13063D01*
X-55482D01*
X-54480Y13331D01*
X-53583Y13850D01*
X-52850Y14583D01*
X-52331Y15480D01*
X-52063Y16482D01*
Y17518D01*
X-52331Y18520D01*
X-52850Y19417D01*
X-53583Y20150D01*
X-54480Y20669D01*
X-55482Y20937D01*
D02*
G37*
G36*
X-1425Y9400D02*
X-3000D01*
Y7500D01*
X-1425D01*
Y9400D01*
D02*
G37*
G36*
Y5500D02*
X-3000D01*
Y3600D01*
X-1425D01*
Y5500D01*
D02*
G37*
G36*
X-5000Y9400D02*
X-6575D01*
Y7660D01*
X-8000D01*
X-8444Y7571D01*
X-8820Y7320D01*
X-9071Y6944D01*
X-9160Y6500D01*
X-9071Y6056D01*
X-8820Y5680D01*
X-8444Y5429D01*
X-8000Y5340D01*
X-6575D01*
Y3600D01*
X-5000D01*
Y6500D01*
Y9400D01*
D02*
G37*
G36*
X-55482Y10937D02*
X-56518D01*
X-57520Y10669D01*
X-58417Y10150D01*
X-59150Y9417D01*
X-59669Y8520D01*
X-59937Y7518D01*
Y6482D01*
X-59669Y5480D01*
X-59150Y4583D01*
X-58417Y3850D01*
X-57520Y3331D01*
X-56518Y3063D01*
X-55482D01*
X-54480Y3331D01*
X-53583Y3850D01*
X-52850Y4583D01*
X-52331Y5480D01*
X-52063Y6482D01*
Y7518D01*
X-52331Y8520D01*
X-52850Y9417D01*
X-53583Y10150D01*
X-54480Y10669D01*
X-55482Y10937D01*
D02*
G37*
G36*
Y937D02*
X-56518D01*
X-57520Y669D01*
X-58417Y150D01*
X-59150Y-583D01*
X-59669Y-1480D01*
X-59937Y-2482D01*
Y-3518D01*
X-59669Y-4520D01*
X-59150Y-5417D01*
X-58417Y-6150D01*
X-57520Y-6669D01*
X-56518Y-6937D01*
X-55482D01*
X-54480Y-6669D01*
X-53583Y-6150D01*
X-52850Y-5417D01*
X-52331Y-4520D01*
X-52063Y-3518D01*
Y-2482D01*
X-52331Y-1480D01*
X-52850Y-583D01*
X-53583Y150D01*
X-54480Y669D01*
X-55482Y937D01*
D02*
G37*
G36*
X-16092Y-4300D02*
X-18642D01*
Y-7350D01*
X-16092D01*
Y-4300D01*
D02*
G37*
G36*
X-46648Y-10228D02*
X-47352D01*
X-48004Y-10498D01*
X-48502Y-10996D01*
X-48772Y-11648D01*
Y-12352D01*
X-48502Y-13004D01*
X-48004Y-13502D01*
X-47352Y-13772D01*
X-46648D01*
X-45996Y-13502D01*
X-45498Y-13004D01*
X-45228Y-12352D01*
Y-11648D01*
X-45498Y-10996D01*
X-45996Y-10498D01*
X-46648Y-10228D01*
D02*
G37*
G36*
X-20642Y-4300D02*
X-23192D01*
Y-6729D01*
X-23333Y-7191D01*
X-23776Y-7279D01*
X-24153Y-7530D01*
X-24485Y-7862D01*
X-24757Y-7916D01*
X-25133Y-8168D01*
X-25385Y-8544D01*
X-25473Y-8988D01*
X-25385Y-9432D01*
X-25133Y-9808D01*
X-24757Y-10059D01*
X-24313Y-10148D01*
X-23970D01*
X-23692Y-10092D01*
X-23192Y-10391D01*
Y-12400D01*
X-21189D01*
Y-13272D01*
X-21101Y-13716D01*
X-20849Y-14092D01*
X-20473Y-14343D01*
X-20029Y-14432D01*
X-19585Y-14343D01*
X-19209Y-14092D01*
X-18958Y-13716D01*
X-18869Y-13272D01*
Y-12400D01*
X-16092D01*
Y-9350D01*
X-19642D01*
Y-8350D01*
X-20642D01*
Y-4300D01*
D02*
G37*
G36*
X-55482Y-9063D02*
X-56518D01*
X-57520Y-9331D01*
X-58417Y-9850D01*
X-59150Y-10583D01*
X-59669Y-11480D01*
X-59937Y-12482D01*
Y-13518D01*
X-59669Y-14520D01*
X-59150Y-15417D01*
X-58417Y-16150D01*
X-57520Y-16669D01*
X-56518Y-16937D01*
X-55482D01*
X-54480Y-16669D01*
X-53583Y-16150D01*
X-52850Y-15417D01*
X-52331Y-14520D01*
X-52063Y-13518D01*
Y-12482D01*
X-52331Y-11480D01*
X-52850Y-10583D01*
X-53583Y-9850D01*
X-54480Y-9331D01*
X-55482Y-9063D01*
D02*
G37*
G36*
X2000Y-18840D02*
X1556Y-18929D01*
X1180Y-19180D01*
X929Y-19556D01*
X840Y-20000D01*
Y-21301D01*
X-1840D01*
Y-20000D01*
X-1929Y-19556D01*
X-2180Y-19180D01*
X-2556Y-18929D01*
X-3000Y-18840D01*
X-3444Y-18929D01*
X-3820Y-19180D01*
X-4071Y-19556D01*
X-4160Y-20000D01*
Y-21301D01*
X-6840D01*
Y-20000D01*
X-6929Y-19556D01*
X-7180Y-19180D01*
X-7556Y-18929D01*
X-8000Y-18840D01*
X-8444Y-18929D01*
X-8820Y-19180D01*
X-9071Y-19556D01*
X-9160Y-20000D01*
Y-21301D01*
X-10575D01*
Y-23201D01*
X-8000D01*
Y-24201D01*
X-7000D01*
Y-27100D01*
X-4000D01*
Y-24201D01*
X-2000D01*
Y-27100D01*
X1000D01*
Y-24201D01*
X2000D01*
Y-23201D01*
X4575D01*
Y-21301D01*
X3160D01*
Y-20000D01*
X3071Y-19556D01*
X2820Y-19180D01*
X2444Y-18929D01*
X2000Y-18840D01*
D02*
G37*
G36*
X-55482Y-19063D02*
X-56518D01*
X-57520Y-19331D01*
X-58417Y-19850D01*
X-59150Y-20583D01*
X-59669Y-21480D01*
X-59937Y-22482D01*
Y-23518D01*
X-59669Y-24520D01*
X-59150Y-25417D01*
X-58417Y-26150D01*
X-57520Y-26669D01*
X-56518Y-26937D01*
X-55482D01*
X-54480Y-26669D01*
X-53583Y-26150D01*
X-52850Y-25417D01*
X-52331Y-24520D01*
X-52063Y-23518D01*
Y-22482D01*
X-52331Y-21480D01*
X-52850Y-20583D01*
X-53583Y-19850D01*
X-54480Y-19331D01*
X-55482Y-19063D01*
D02*
G37*
G36*
X4575Y-25201D02*
X3000D01*
Y-27100D01*
X4575D01*
Y-25201D01*
D02*
G37*
G36*
X-9000D02*
X-10575D01*
Y-27100D01*
X-9000D01*
Y-25201D01*
D02*
G37*
G36*
X-55482Y-29063D02*
X-56518D01*
X-57520Y-29331D01*
X-58417Y-29850D01*
X-59150Y-30583D01*
X-59669Y-31480D01*
X-59937Y-32482D01*
Y-33518D01*
X-59669Y-34520D01*
X-59150Y-35417D01*
X-58417Y-36150D01*
X-57520Y-36669D01*
X-56518Y-36937D01*
X-55482D01*
X-54480Y-36669D01*
X-53583Y-36150D01*
X-52850Y-35417D01*
X-52331Y-34520D01*
X-52063Y-33518D01*
Y-32482D01*
X-52331Y-31480D01*
X-52850Y-30583D01*
X-53583Y-29850D01*
X-54480Y-29331D01*
X-55482Y-29063D01*
D02*
G37*
G36*
X-16092Y-40650D02*
X-18642D01*
Y-43700D01*
X-16092D01*
Y-40650D01*
D02*
G37*
G36*
X-20642D02*
X-23192D01*
Y-43700D01*
X-20642D01*
Y-40650D01*
D02*
G37*
G36*
X-55482Y-39063D02*
X-56518D01*
X-57520Y-39331D01*
X-58417Y-39850D01*
X-59150Y-40583D01*
X-59669Y-41480D01*
X-59937Y-42482D01*
Y-43518D01*
X-59669Y-44520D01*
X-59150Y-45417D01*
X-58417Y-46150D01*
X-57520Y-46669D01*
X-56518Y-46937D01*
X-55482D01*
X-54480Y-46669D01*
X-53583Y-46150D01*
X-52850Y-45417D01*
X-52331Y-44520D01*
X-52063Y-43518D01*
Y-42482D01*
X-52331Y-41480D01*
X-52850Y-40583D01*
X-53583Y-39850D01*
X-54480Y-39331D01*
X-55482Y-39063D01*
D02*
G37*
G36*
X-40925Y-57900D02*
X-42500D01*
Y-59799D01*
X-40925D01*
Y-57900D01*
D02*
G37*
G36*
X-44500D02*
X-46075D01*
Y-59799D01*
X-44500D01*
Y-57900D01*
D02*
G37*
G36*
X11000Y-78340D02*
X10556Y-78429D01*
X10180Y-78680D01*
X9929Y-79056D01*
X9840Y-79500D01*
X9903Y-79817D01*
Y-80791D01*
X6711D01*
Y-79551D01*
X6623Y-79107D01*
X6371Y-78731D01*
X6320Y-78680D01*
X5944Y-78429D01*
X5500Y-78340D01*
X5056Y-78429D01*
X4680Y-78680D01*
X4429Y-79056D01*
X4340Y-79500D01*
X4391Y-79757D01*
Y-80791D01*
X1199D01*
Y-79539D01*
X1199Y-79539D01*
X1111Y-79096D01*
X859Y-78719D01*
X820Y-78680D01*
X444Y-78429D01*
X0Y-78340D01*
X-444Y-78429D01*
X-820Y-78680D01*
X-1071Y-79056D01*
X-1160Y-79500D01*
X-1120Y-79698D01*
Y-80791D01*
X-2732D01*
Y-82403D01*
X-4683D01*
X-5000Y-82340D01*
X-5444Y-82429D01*
X-5820Y-82680D01*
X-6071Y-83056D01*
X-6160Y-83500D01*
X-6071Y-83944D01*
X-5820Y-84320D01*
X-5757Y-84383D01*
X-5381Y-84634D01*
X-4937Y-84723D01*
X-2732D01*
Y-87915D01*
X-4624D01*
X-5000Y-87840D01*
X-5444Y-87929D01*
X-5820Y-88180D01*
X-6071Y-88556D01*
X-6160Y-89000D01*
X-6071Y-89444D01*
X-5820Y-89820D01*
X-5745Y-89895D01*
X-5369Y-90146D01*
X-4925Y-90235D01*
X-2732D01*
Y-93427D01*
X-4565D01*
X-5000Y-93340D01*
X-5444Y-93429D01*
X-5820Y-93680D01*
X-6071Y-94056D01*
X-6160Y-94500D01*
X-6071Y-94944D01*
X-5820Y-95320D01*
X-5733Y-95407D01*
X-5733Y-95407D01*
X-5357Y-95658D01*
X-4913Y-95746D01*
X-4913Y-95746D01*
X-2732D01*
Y-97358D01*
X-1120D01*
Y-99620D01*
X-1032Y-100064D01*
X-781Y-100440D01*
X-404Y-100692D01*
X39Y-100780D01*
X483Y-100692D01*
X859Y-100440D01*
X1111Y-100064D01*
X1199Y-99620D01*
Y-97358D01*
X4340D01*
Y-99660D01*
X4429Y-100103D01*
X4680Y-100480D01*
X5056Y-100731D01*
X5500Y-100819D01*
X5944Y-100731D01*
X6320Y-100480D01*
X6571Y-100103D01*
X6660Y-99660D01*
Y-97358D01*
X9840D01*
Y-99660D01*
X9929Y-100103D01*
X10180Y-100480D01*
X10556Y-100731D01*
X11000Y-100819D01*
X11444Y-100731D01*
X11820Y-100480D01*
X12071Y-100103D01*
X12160Y-99660D01*
Y-97358D01*
X13835D01*
Y-95746D01*
X15413D01*
X15857Y-95658D01*
X16233Y-95407D01*
X16320Y-95320D01*
X16571Y-94944D01*
X16660Y-94500D01*
X16571Y-94056D01*
X16320Y-93680D01*
X15944Y-93429D01*
X15500Y-93340D01*
X15065Y-93427D01*
X13835D01*
Y-90235D01*
X15425D01*
X15869Y-90146D01*
X16245Y-89895D01*
X16320Y-89820D01*
X16571Y-89444D01*
X16660Y-89000D01*
X16571Y-88556D01*
X16320Y-88180D01*
X15944Y-87929D01*
X15500Y-87840D01*
X15124Y-87915D01*
X13835D01*
Y-84723D01*
X15437D01*
X15881Y-84634D01*
X16257Y-84383D01*
X16320Y-84320D01*
X16571Y-83944D01*
X16660Y-83500D01*
X16571Y-83056D01*
X16320Y-82680D01*
X15944Y-82429D01*
X15500Y-82340D01*
X15183Y-82403D01*
X13835D01*
Y-80791D01*
X12223D01*
Y-79563D01*
X12134Y-79119D01*
X11883Y-78743D01*
X11820Y-78680D01*
X11444Y-78429D01*
X11000Y-78340D01*
D02*
G37*
G36*
X-35803Y-120468D02*
X-38756D01*
Y-122240D01*
X-35803D01*
Y-120468D01*
D02*
G37*
G36*
X-12925Y85299D02*
X-14500D01*
Y83400D01*
X-12925D01*
Y85299D01*
D02*
G37*
G36*
X30500Y-6559D02*
Y-8000D01*
X31941D01*
X31682Y-7376D01*
X31124Y-6818D01*
X30500Y-6559D01*
D02*
G37*
G36*
X31941Y-9000D02*
X30500D01*
Y-10441D01*
X31124Y-10182D01*
X31682Y-9624D01*
X31941Y-9000D01*
D02*
G37*
G36*
X29500D02*
X28059D01*
X28318Y-9624D01*
X28876Y-10182D01*
X29500Y-10441D01*
Y-9000D01*
D02*
G37*
G36*
X28188Y-11304D02*
X20513D01*
Y-17979D01*
X22838D01*
Y-19102D01*
X22496Y-19444D01*
X22226Y-20095D01*
Y-20800D01*
X22496Y-21451D01*
X22994Y-21950D01*
X23646Y-22219D01*
X24350D01*
X25002Y-21950D01*
X25500Y-21451D01*
X25770Y-20800D01*
Y-20095D01*
X25500Y-19444D01*
X25158Y-19102D01*
Y-17979D01*
X28188D01*
Y-16616D01*
X28688Y-16282D01*
X29006Y-16413D01*
X29711D01*
X30362Y-16144D01*
X30860Y-15645D01*
X31130Y-14994D01*
Y-14289D01*
X30860Y-13638D01*
X30362Y-13140D01*
X29711Y-12870D01*
X29006D01*
X28688Y-13002D01*
X28188Y-12668D01*
Y-11304D01*
D02*
G37*
G36*
X59487D02*
X51812D01*
Y-16339D01*
X50550Y-17602D01*
X50298Y-17978D01*
X50210Y-18422D01*
Y-18574D01*
X50136Y-18604D01*
X49638Y-19103D01*
X49368Y-19754D01*
Y-20458D01*
X49638Y-21110D01*
X50136Y-21608D01*
X50787Y-21878D01*
X51492D01*
X52143Y-21608D01*
X52642Y-21110D01*
X52911Y-20458D01*
Y-19754D01*
X52642Y-19103D01*
X52529Y-18990D01*
Y-18902D01*
X53452Y-17979D01*
X54842D01*
Y-19102D01*
X54500Y-19444D01*
X54230Y-20095D01*
Y-20800D01*
X54500Y-21451D01*
X54998Y-21950D01*
X55650Y-22219D01*
X56354D01*
X57006Y-21950D01*
X57504Y-21451D01*
X57774Y-20800D01*
Y-20095D01*
X57504Y-19444D01*
X57162Y-19102D01*
Y-17979D01*
X59487D01*
Y-11304D01*
D02*
G37*
G36*
Y-29021D02*
X51812D01*
Y-35696D01*
X59487D01*
Y-29021D01*
D02*
G37*
G36*
X17362Y-22313D02*
X12638D01*
Y-27687D01*
X13840D01*
Y-29014D01*
X12638D01*
Y-34388D01*
X17362D01*
Y-32860D01*
X20513D01*
Y-35696D01*
X28188D01*
Y-29021D01*
X26066D01*
X26033Y-29010D01*
X25655Y-28521D01*
X25660Y-28500D01*
X25660Y-28500D01*
Y-27512D01*
X26002Y-27169D01*
X26272Y-26518D01*
Y-25813D01*
X26002Y-25162D01*
X25504Y-24664D01*
X24852Y-24394D01*
X24148D01*
X23496Y-24664D01*
X22998Y-25162D01*
X22728Y-25813D01*
Y-26518D01*
X22998Y-27169D01*
X23340Y-27512D01*
Y-28114D01*
X23279Y-28206D01*
X23191Y-28650D01*
Y-29021D01*
X20513D01*
Y-30541D01*
X17362D01*
Y-29014D01*
X16160D01*
Y-27687D01*
X17362D01*
Y-22313D01*
D02*
G37*
G36*
X17575Y-35100D02*
X15500D01*
Y-37500D01*
X17575D01*
Y-35100D01*
D02*
G37*
G36*
X14500D02*
X12425D01*
Y-37500D01*
X14500D01*
Y-35100D01*
D02*
G37*
G36*
X59900Y-44925D02*
X57500D01*
Y-47000D01*
X59900D01*
Y-44925D01*
D02*
G37*
G36*
X56500D02*
X54100D01*
Y-47000D01*
X56500D01*
Y-44925D01*
D02*
G37*
G36*
X37352Y-41228D02*
X36648D01*
X35996Y-41498D01*
X35498Y-41996D01*
X35228Y-42648D01*
Y-43352D01*
X35498Y-44004D01*
X35840Y-44346D01*
Y-44701D01*
X35929Y-45145D01*
X36180Y-45521D01*
X37479Y-46820D01*
X37855Y-47071D01*
X38299Y-47160D01*
X38313D01*
Y-48362D01*
X43687D01*
Y-43638D01*
X38962D01*
X38772Y-43352D01*
Y-42648D01*
X38502Y-41996D01*
X38004Y-41498D01*
X37352Y-41228D01*
D02*
G37*
G36*
X59900Y-48000D02*
X57500D01*
Y-50075D01*
X59900D01*
Y-48000D01*
D02*
G37*
G36*
X40500Y-53801D02*
X38425D01*
Y-56201D01*
X40500D01*
Y-53801D01*
D02*
G37*
G36*
Y-57201D02*
X38425D01*
Y-59600D01*
X40500D01*
Y-57201D01*
D02*
G37*
G36*
X61625Y-64937D02*
X59425D01*
Y-65858D01*
X60303D01*
X60847Y-65750D01*
X61308Y-65442D01*
X61616Y-64981D01*
X61625Y-64937D01*
D02*
G37*
G36*
X60352Y-78728D02*
X59648D01*
X58996Y-78998D01*
X58498Y-79496D01*
X58228Y-80148D01*
Y-80852D01*
X58498Y-81504D01*
X58632Y-81638D01*
X58425Y-82138D01*
X57612D01*
Y-86862D01*
X58524D01*
X58661Y-87080D01*
X58770Y-87362D01*
X58528Y-87947D01*
Y-88652D01*
X58797Y-89303D01*
X59296Y-89801D01*
X59947Y-90071D01*
X60652D01*
X61303Y-89801D01*
X61801Y-89303D01*
X62071Y-88652D01*
Y-87947D01*
X61829Y-87362D01*
X61937Y-87080D01*
X62075Y-86862D01*
X62986D01*
Y-82138D01*
X61575D01*
X61368Y-81638D01*
X61502Y-81504D01*
X61772Y-80852D01*
Y-80148D01*
X61502Y-79496D01*
X61004Y-78998D01*
X60352Y-78728D01*
D02*
G37*
G36*
X46352Y-101228D02*
X45648D01*
X44996Y-101498D01*
X44498Y-101996D01*
X44228Y-102648D01*
Y-103352D01*
X44498Y-104004D01*
X44840Y-104346D01*
Y-105514D01*
X43638D01*
Y-105514D01*
X43362D01*
Y-105514D01*
X42160D01*
Y-104346D01*
X42502Y-104004D01*
X42772Y-103352D01*
Y-102648D01*
X42502Y-101996D01*
X42004Y-101498D01*
X41352Y-101228D01*
X40648D01*
X39996Y-101498D01*
X39498Y-101996D01*
X39228Y-102648D01*
Y-103352D01*
X39498Y-104004D01*
X39840Y-104346D01*
Y-105514D01*
X38638D01*
Y-110888D01*
X43362D01*
Y-110888D01*
X43638D01*
Y-110888D01*
X48362D01*
Y-105514D01*
X47160D01*
Y-104346D01*
X47502Y-104004D01*
X47772Y-103352D01*
Y-102648D01*
X47502Y-101996D01*
X47004Y-101498D01*
X46352Y-101228D01*
D02*
G37*
G36*
X46500Y-111600D02*
Y-114000D01*
X48575D01*
Y-111600D01*
X46500D01*
D02*
G37*
G36*
X48575Y-115000D02*
X46500D01*
Y-117400D01*
X48575D01*
Y-115000D01*
D02*
G37*
G36*
X41500Y-111600D02*
Y-114500D01*
Y-117400D01*
X45500D01*
Y-114500D01*
Y-111600D01*
X41500D01*
D02*
G37*
%LPD*%
D10*
X47260Y-1701D02*
Y-913D01*
X44262Y-4699D02*
X47260Y-1701D01*
X44262Y-5738D02*
Y-4699D01*
X44000Y-6000D02*
X44262Y-5738D01*
X40697Y-90697D02*
Y-90697D01*
X39082Y-89082D02*
X40697Y-90697D01*
X39082Y-89082D02*
Y-87997D01*
X42598D01*
X54862Y-72043D02*
Y-66925D01*
X45450Y-81455D02*
X54862Y-72043D01*
X45450Y-85144D02*
Y-81455D01*
X42598Y-87997D02*
X45450Y-85144D01*
X35566Y-87997D02*
X39082D01*
X34095Y-89468D02*
X35566Y-87997D01*
D17*
X-4000Y12799D02*
D03*
Y6500D02*
D03*
X2000Y12799D02*
D03*
Y6500D02*
D03*
X8000Y12799D02*
D03*
Y6500D02*
D03*
X17000Y16299D02*
D03*
Y10000D02*
D03*
Y105799D02*
D03*
Y99500D02*
D03*
X42000Y22799D02*
D03*
Y16500D02*
D03*
X2000Y-24201D02*
D03*
Y-30500D02*
D03*
X-3000Y-24201D02*
D03*
Y-30500D02*
D03*
X-8000Y-24201D02*
D03*
Y-30500D02*
D03*
X-47000Y83000D02*
D03*
Y76701D02*
D03*
X36500Y22799D02*
D03*
Y16500D02*
D03*
X17000Y500D02*
D03*
Y-5799D02*
D03*
X-8000Y-36500D02*
D03*
Y-42799D02*
D03*
X-33500Y17799D02*
D03*
Y11500D02*
D03*
X15000Y-31701D02*
D03*
Y-38000D02*
D03*
X39000Y90500D02*
D03*
Y84201D02*
D03*
X44000Y90500D02*
D03*
Y84201D02*
D03*
X-28000Y92299D02*
D03*
Y86000D02*
D03*
X-24000Y67000D02*
D03*
Y73299D02*
D03*
X-29000Y70299D02*
D03*
Y64000D02*
D03*
X2000Y31500D02*
D03*
Y25201D02*
D03*
X41000Y-56701D02*
D03*
Y-63000D02*
D03*
Y-108201D02*
D03*
Y-114500D02*
D03*
X46000Y-108201D02*
D03*
Y-114500D02*
D03*
X15000Y-18701D02*
D03*
Y-25000D02*
D03*
X34000Y90500D02*
D03*
Y84201D02*
D03*
X24000Y90500D02*
D03*
Y84201D02*
D03*
X-43500Y-54500D02*
D03*
Y-60799D02*
D03*
X-23000Y92299D02*
D03*
Y86000D02*
D03*
X-3000Y-36500D02*
D03*
Y-42799D02*
D03*
X-15500Y80000D02*
D03*
Y86299D02*
D03*
X2000Y-36500D02*
D03*
Y-42799D02*
D03*
X29000Y89500D02*
D03*
Y83201D02*
D03*
D18*
X-4000Y500D02*
D03*
X2299D02*
D03*
X-5000Y19500D02*
D03*
X1299D02*
D03*
X8000Y23500D02*
D03*
X14299D02*
D03*
X-27299Y79000D02*
D03*
X-21000D02*
D03*
X10000Y72000D02*
D03*
X16299D02*
D03*
X10000Y67000D02*
D03*
X16299D02*
D03*
X22201Y114500D02*
D03*
X28500D02*
D03*
X35000Y119500D02*
D03*
X41299D02*
D03*
X35000Y114500D02*
D03*
X41299D02*
D03*
X-23299Y27500D02*
D03*
X-17000D02*
D03*
X23701Y5000D02*
D03*
X30000D02*
D03*
X23701Y0D02*
D03*
X30000D02*
D03*
X-51799Y96500D02*
D03*
X-45500D02*
D03*
X-23299Y32500D02*
D03*
X-17000D02*
D03*
X41000Y-46000D02*
D03*
X47299D02*
D03*
X-40299Y78500D02*
D03*
X-34000D02*
D03*
X54000Y-84500D02*
D03*
X60299D02*
D03*
X41701D02*
D03*
X48000D02*
D03*
X-11299Y32500D02*
D03*
X-5000D02*
D03*
X-11000Y27500D02*
D03*
X-4701D02*
D03*
X8000Y28500D02*
D03*
X14299D02*
D03*
X57000Y-47500D02*
D03*
X63299D02*
D03*
D19*
X47500Y76256D02*
D03*
Y70744D02*
D03*
X42500Y49256D02*
D03*
Y43744D02*
D03*
D20*
Y58815D02*
D03*
Y60587D02*
D03*
Y57043D02*
D03*
Y62358D02*
D03*
Y55272D02*
D03*
Y53500D02*
D03*
X31476Y60587D02*
D03*
Y62358D02*
D03*
Y58815D02*
D03*
Y53500D02*
D03*
Y57043D02*
D03*
Y55272D02*
D03*
D21*
X34453Y48000D02*
D03*
X28547D02*
D03*
D22*
X38432Y73500D02*
D03*
X29568D02*
D03*
X59432Y50500D02*
D03*
X50568D02*
D03*
D23*
X38405Y108512D02*
D03*
X30531D02*
D03*
X34468D02*
D03*
X36437D02*
D03*
X32500D02*
D03*
X38405Y97488D02*
D03*
X30531D02*
D03*
X34468D02*
D03*
X36437D02*
D03*
X32500D02*
D03*
X26594Y108512D02*
D03*
X28563D02*
D03*
Y97488D02*
D03*
X26594D02*
D03*
D24*
X31450Y11515D02*
D03*
Y13485D02*
D03*
Y15453D02*
D03*
Y9546D02*
D03*
X23550Y11515D02*
D03*
Y13485D02*
D03*
Y15453D02*
D03*
Y9546D02*
D03*
D25*
X27500Y12500D02*
D03*
D26*
X55650Y-32358D02*
D03*
Y-14642D02*
D03*
X24350D02*
D03*
Y-32358D02*
D03*
D27*
X54740Y9913D02*
D03*
Y-913D02*
D03*
X47260Y9913D02*
D03*
X51000D02*
D03*
Y-913D02*
D03*
X47260D02*
D03*
D28*
X58535Y63500D02*
D03*
X50465D02*
D03*
D29*
X9800Y47750D02*
D03*
Y40250D02*
D03*
X2200Y44000D02*
D03*
X-11200Y47750D02*
D03*
Y40250D02*
D03*
X-18800Y44000D02*
D03*
D30*
X-2595Y73791D02*
D03*
X-4563D02*
D03*
X-6532D02*
D03*
X-8500D02*
D03*
X-10469D02*
D03*
X-12437D02*
D03*
X-14405D02*
D03*
Y55209D02*
D03*
X-12437D02*
D03*
X-10469D02*
D03*
X-8500D02*
D03*
X-6532D02*
D03*
X-4563D02*
D03*
X-2595D02*
D03*
D31*
X-17791Y70406D02*
D03*
Y68437D02*
D03*
Y66469D02*
D03*
Y64500D02*
D03*
Y62532D02*
D03*
Y60563D02*
D03*
Y58595D02*
D03*
X791D02*
D03*
Y60563D02*
D03*
Y62532D02*
D03*
Y64500D02*
D03*
Y66469D02*
D03*
Y68437D02*
D03*
Y70406D02*
D03*
D33*
X-19642Y-8350D02*
D03*
X-37358D02*
D03*
X-19642Y-39650D02*
D03*
X-37358D02*
D03*
D34*
X-10712Y18339D02*
D03*
Y13220D02*
D03*
Y15779D02*
D03*
Y10661D02*
D03*
X-25288D02*
D03*
Y13220D02*
D03*
Y15779D02*
D03*
D35*
X-19279Y21788D02*
D03*
X-16721D02*
D03*
X-21839D02*
D03*
X-14161D02*
D03*
X-16721Y7212D02*
D03*
X-19279D02*
D03*
X-14161D02*
D03*
X-21839D02*
D03*
D36*
X-25288Y18339D02*
D03*
D37*
X58925Y-58138D02*
D03*
Y-56563D02*
D03*
Y-61287D02*
D03*
Y-62862D02*
D03*
Y-59713D02*
D03*
Y-64437D02*
D03*
X46075Y-62862D02*
D03*
Y-56563D02*
D03*
Y-59713D02*
D03*
Y-61287D02*
D03*
Y-58138D02*
D03*
Y-64437D02*
D03*
D38*
X53287Y-54075D02*
D03*
X54862D02*
D03*
X51713D02*
D03*
X56437D02*
D03*
X53287Y-66925D02*
D03*
X51713D02*
D03*
X56437D02*
D03*
X54862D02*
D03*
X48563Y-54075D02*
D03*
X50138D02*
D03*
X48563Y-66925D02*
D03*
X50138D02*
D03*
D39*
X52500Y-60500D02*
D03*
D40*
X34095Y-54469D02*
D03*
Y-59469D02*
D03*
Y-79469D02*
D03*
Y-74468D02*
D03*
Y-84469D02*
D03*
Y-64468D02*
D03*
Y-69468D02*
D03*
Y-109468D02*
D03*
Y-104469D02*
D03*
Y-94468D02*
D03*
Y-99468D02*
D03*
Y-114469D02*
D03*
Y-119468D02*
D03*
Y-89468D02*
D03*
X-34803Y-64468D02*
D03*
Y-69468D02*
D03*
Y-54469D02*
D03*
Y-59469D02*
D03*
Y-84469D02*
D03*
Y-89468D02*
D03*
Y-74468D02*
D03*
Y-79469D02*
D03*
Y-119468D02*
D03*
Y-104469D02*
D03*
Y-99468D02*
D03*
Y-94468D02*
D03*
Y-109468D02*
D03*
Y-114469D02*
D03*
D41*
X27146Y-49547D02*
D03*
X17146D02*
D03*
X12146D02*
D03*
X22146D02*
D03*
X2146D02*
D03*
X7146D02*
D03*
X-17854D02*
D03*
X-22854D02*
D03*
X-12854D02*
D03*
X-27854D02*
D03*
X-7854D02*
D03*
X-2854D02*
D03*
D42*
X5551Y-83563D02*
D03*
X11063D02*
D03*
X39D02*
D03*
Y-89075D02*
D03*
X11063D02*
D03*
X5551D02*
D03*
X39Y-94587D02*
D03*
X5551D02*
D03*
X11063D02*
D03*
D43*
X26256Y57500D02*
D03*
X20744D02*
D03*
D44*
X5626Y86500D02*
D03*
Y90240D02*
D03*
Y82760D02*
D03*
X-3626D02*
D03*
Y90240D02*
D03*
Y86500D02*
D03*
D45*
X-12953Y98779D02*
D03*
X-9016D02*
D03*
X-10984D02*
D03*
X-5079D02*
D03*
X-7047D02*
D03*
X-3110D02*
D03*
X-16890D02*
D03*
X-14921D02*
D03*
D46*
X2598D02*
D03*
X-551D02*
D03*
X-19449D02*
D03*
X-22598D02*
D03*
D47*
X-33300Y95600D02*
D03*
Y85400D02*
D03*
X-40700Y95600D02*
D03*
X-37000D02*
D03*
X-40700Y85400D02*
D03*
D48*
X56500Y96700D02*
D03*
Y106300D02*
D03*
D49*
X-35500Y110000D02*
D03*
X-50500D02*
D03*
D52*
X36988Y57929D02*
D03*
D55*
X-8500Y64500D02*
D03*
D73*
X32500Y103000D02*
D03*
D74*
X47260Y9913D02*
Y15705D01*
X51000Y9913D02*
Y15000D01*
X54740Y9913D02*
Y23760D01*
Y-1701D02*
Y-913D01*
X52125Y-4316D02*
X54740Y-1701D01*
X52125Y-5875D02*
Y-4316D01*
X52000Y-6000D02*
X52125Y-5875D01*
X51000Y-1701D02*
Y-913D01*
X48243Y-4458D02*
X51000Y-1701D01*
X48243Y-5757D02*
Y-4458D01*
X48000Y-6000D02*
X48243Y-5757D01*
X23701Y-2201D02*
X30000Y-8500D01*
X23701Y-2201D02*
Y0D01*
X24350Y-14642D02*
X29358D01*
X-27500Y32500D02*
X-23299D01*
X-23400Y32600D02*
X-23299Y32500D01*
X-23400Y32600D02*
Y36400D01*
X-45107Y119212D02*
X-43000Y121319D01*
X-48788Y119212D02*
X-45107D01*
X-50500Y117500D02*
X-48788Y119212D01*
X32500Y103000D02*
X45000D01*
X55362Y97838D02*
X56500Y96700D01*
X42535Y97838D02*
X55362D01*
X42185Y97488D02*
X42535Y97838D01*
X38405Y97488D02*
X42185D01*
X36437D02*
X38405D01*
X51800Y106300D02*
X56500D01*
X49588Y108512D02*
X51800Y106300D01*
X38405Y108512D02*
X49588D01*
X36437D02*
X38405D01*
X-21839Y19495D02*
X-20331Y17987D01*
X-18477D01*
X-21839Y19495D02*
Y21788D01*
X54862Y-54075D02*
Y-49313D01*
X56675Y-47500D01*
X57000D01*
X53287Y-54075D02*
Y-49787D01*
X51500Y-48000D02*
X53287Y-49787D01*
X63500Y-46299D02*
Y-43000D01*
X62334Y-47465D02*
X63500Y-46299D01*
X37000Y-44701D02*
X38299Y-46000D01*
X37000Y-44701D02*
Y-43000D01*
X31166Y103000D02*
X32500D01*
X21500D02*
X31166D01*
X24000Y84201D02*
X34000D01*
X20744Y57500D02*
Y61256D01*
Y53369D02*
Y57500D01*
X55650Y-14642D02*
X56002Y-14994D01*
X55508Y-14500D02*
X55650Y-14642D01*
X-52500Y97701D02*
X-51299Y96500D01*
X38299Y-46000D02*
X41000D01*
X-20000Y-35900D02*
X-18408Y-34307D01*
X-18293D01*
X-20000Y-38791D02*
Y-35900D01*
Y-39291D02*
Y-38791D01*
X-9500Y-39500D02*
X3165D01*
X-33500Y-23000D02*
X-26000D01*
X-9500Y-39500D01*
X-24144Y-36429D02*
X-23801D01*
X-23280Y-36950D01*
X-21842D01*
X-20000Y-38791D01*
X51370Y-18422D02*
X55291Y-14500D01*
X51370Y-19876D02*
Y-18422D01*
X51140Y-20106D02*
X51370Y-19876D01*
X19843Y5500D02*
X20343Y5000D01*
X23701D01*
X19500Y5500D02*
X19843D01*
X17000Y500D02*
Y10000D01*
X44201Y84000D02*
X48660D01*
X43502Y90998D02*
Y95504D01*
X39000Y93500D02*
X41004Y95504D01*
X43502D01*
Y90998D02*
X44000Y90500D01*
X-35124Y88166D02*
X-34624Y88666D01*
X-38876Y88166D02*
X-35124D01*
X-39310Y88600D02*
X-38876Y88166D01*
X-43900Y88600D02*
X-39310D01*
X-47000Y85500D02*
X-43900Y88600D01*
X-34624Y88666D02*
X-26309D01*
X-37000Y90500D02*
Y95600D01*
X-10984Y96166D02*
Y102484D01*
X-12500Y104000D02*
X-10984Y102484D01*
X-15000Y107000D02*
X-5000D01*
X-551Y102551D01*
X-19449D02*
X-15000Y107000D01*
X-9016Y98779D02*
Y102484D01*
X-4849Y79151D02*
X-3626Y80374D01*
X-9016Y102484D02*
X-7500Y104000D01*
X-4849Y78849D02*
Y79151D01*
X-9016Y76606D02*
Y98779D01*
X28843Y94000D02*
X29828Y94985D01*
X29910D01*
X28500Y94000D02*
X28843D01*
X29910Y94985D02*
X30531Y95607D01*
Y97488D01*
X22838Y95636D02*
X25451D01*
X22728Y95746D02*
X22838Y95636D01*
X26594Y96780D02*
Y97488D01*
X25451Y95636D02*
X26594Y96780D01*
X-47500Y113000D02*
X-43000D01*
X-50500Y110000D02*
X-47500Y113000D01*
X-47403Y117097D02*
X-43000D01*
X-50500Y114000D02*
X-47403Y117097D01*
X-44208Y110000D02*
X-43434Y109226D01*
X-50500Y110000D02*
X-44208D01*
X-43434Y109226D02*
X-43091D01*
X-46340Y105840D02*
X-43000D01*
X-50500Y110000D02*
X-46340Y105840D01*
X-50500Y107000D02*
X-46000Y102500D01*
X-43000D01*
X-45500Y98500D02*
X-44000Y100000D01*
X-41316D02*
X-35500Y105816D01*
X-44000Y100000D02*
X-41316D01*
X-35500Y105816D02*
Y110000D01*
X-51222Y109778D02*
X-51000Y110000D01*
X-58006Y109778D02*
X-51222D01*
X-55071Y114071D02*
X-51000Y110000D01*
X-57944Y114071D02*
X-55071D01*
X-56000Y87000D02*
Y87435D01*
X-55150Y106308D02*
X-52500Y108000D01*
X-58000Y106000D02*
X-57692Y106308D01*
X-55150D01*
X-58000Y106000D02*
X-58000Y105565D01*
X-32530Y-38530D02*
X-32500Y-38500D01*
X-32530Y-43205D02*
Y-38530D01*
X-43500Y-54175D02*
X-32530Y-43205D01*
X11000Y-99660D02*
Y-94650D01*
X5551Y-89075D02*
Y-83563D01*
Y-89075D02*
X11063D01*
Y-83563D01*
X5500Y-94638D02*
X5551Y-94587D01*
X5500Y-99660D02*
Y-94638D01*
X11063Y-94587D02*
Y-89075D01*
X39Y-83563D02*
X5551D01*
X39Y-99620D02*
Y-94587D01*
X60000Y-84201D02*
Y-80500D01*
X60299Y-88299D02*
Y-84500D01*
X60000Y-84201D02*
X60299Y-84500D01*
X51713Y-54075D02*
Y-52697D01*
X48050Y-49034D02*
X51713Y-52697D01*
X48050Y-49034D02*
Y-46725D01*
X46825Y-45500D02*
X48050Y-46725D01*
X46500Y-45500D02*
X46825D01*
X45000Y-52000D02*
X45288D01*
X46335Y-53047D02*
X48523D01*
X45288Y-52000D02*
X46335Y-53047D01*
X48563Y-54075D02*
Y-53087D01*
X48523Y-53047D02*
X48563Y-53087D01*
X27881Y-56119D02*
X29531Y-54469D01*
X34095D01*
X45006Y-64437D02*
X45047Y-64477D01*
X42225Y-64437D02*
X45006D01*
X41000Y-63212D02*
X42225Y-64437D01*
X41000Y-63212D02*
Y-63000D01*
X50138Y-66925D02*
Y-62862D01*
X19780Y-41000D02*
X27146Y-48366D01*
X3165Y-39500D02*
X4665Y-41000D01*
X19780D01*
X24500Y-28500D02*
Y-26166D01*
X23998Y-20448D02*
Y-14994D01*
X24350Y-14642D01*
X55291Y-14500D02*
X55508D01*
X56002Y-20448D02*
Y-14994D01*
X27514Y30601D02*
Y40311D01*
X29825Y38000D01*
X27514Y30601D02*
X32116Y26000D01*
X24325Y43500D02*
X27514Y40311D01*
X23500Y19500D02*
X23550Y19450D01*
Y15453D02*
Y19450D01*
X35275Y20350D02*
Y21574D01*
X34208Y19283D02*
X35275Y20350D01*
Y21574D02*
X36500Y22799D01*
X34208Y15271D02*
Y19283D01*
X6658Y100693D02*
X7008Y101043D01*
X3430Y100693D02*
X6658D01*
X2598Y99862D02*
X3430Y100693D01*
X2598Y98779D02*
Y99862D01*
X-27008Y101043D02*
X-26658Y100693D01*
X-23429D01*
X-22598Y99862D01*
Y98779D02*
Y99862D01*
X-15500Y86299D02*
Y91000D01*
X46000Y-108201D02*
Y-103000D01*
X41000Y-108201D02*
Y-103000D01*
Y-108201D02*
X46000D01*
X-47000Y72000D02*
Y76701D01*
X-40500Y74500D02*
Y78299D01*
X-40299Y78500D01*
X18224Y111181D02*
X18557D01*
X21876Y114500D01*
X22201D01*
X-32157Y64000D02*
X-29000D01*
X-33157Y63000D02*
X-32157Y64000D01*
X-33500Y63000D02*
X-33157D01*
X-29000Y59000D02*
Y64000D01*
X29825Y38000D02*
X40500D01*
X24325Y43500D02*
Y53058D01*
X40500Y38000D02*
X54740Y23760D01*
X42000Y22799D02*
Y27500D01*
X24558Y53058D02*
X26256Y54756D01*
X28000Y48547D02*
X28547Y48000D01*
X28000Y48547D02*
Y53000D01*
X12000Y9464D02*
X16020Y13485D01*
X6000Y-4000D02*
X12000Y2000D01*
Y9464D01*
X-6625Y-4000D02*
X6000D01*
X-11125Y500D02*
X-6625Y-4000D01*
X16020Y13485D02*
X23550D01*
X-16721Y6095D02*
X-11125Y500D01*
X-4000D01*
X17000Y-10000D02*
Y-5799D01*
X21220Y11515D02*
X23550D01*
X19705Y10000D02*
X21220Y11515D01*
X17000Y10000D02*
X19705D01*
X17000Y16299D02*
X17846Y15453D01*
X23550D01*
X30000Y5000D02*
X30225D01*
X31450Y6225D01*
Y9546D01*
X30000Y0D02*
Y5000D01*
X32621Y13684D02*
X34208Y15271D01*
X31650Y13684D02*
X32621D01*
X31450Y13485D02*
X31650Y13684D01*
X36500Y22474D02*
X39005Y19970D01*
X42995D01*
X47260Y15705D01*
X34708Y11515D02*
X36500Y13307D01*
X31450Y11515D02*
X34708D01*
X36500Y13307D02*
Y16500D01*
X42000D01*
X27000Y63000D02*
X29413Y60587D01*
X31476D01*
X14299Y23500D02*
X18500D01*
X18000Y28500D02*
X18500Y28000D01*
X14299Y28500D02*
X18000D01*
X-56000Y87000D02*
X-54929Y88071D01*
X-52500Y108000D02*
X-50500Y110000D01*
X-16721Y6095D02*
Y7212D01*
Y1221D02*
X-15500Y0D01*
X-16721Y1221D02*
Y6095D01*
X50138Y-69862D02*
Y-66925D01*
X43000Y-68500D02*
X45047Y-66453D01*
X34126Y-79500D02*
X44000D01*
X34095Y-79469D02*
X34126Y-79500D01*
X-8000Y-24201D02*
Y-20000D01*
X-20029Y-13272D02*
Y-8738D01*
X-19642Y-8350D01*
X-43500Y-54175D02*
Y-46291D01*
X27146Y-49547D02*
Y-48366D01*
X-37358Y-40150D02*
Y-39650D01*
X-43500Y-54500D02*
Y-54175D01*
X-37358Y-39650D02*
Y-8350D01*
X36988Y57304D02*
Y57929D01*
X-40000Y-114000D02*
X-39531Y-114469D01*
X-34803D01*
X-41500Y-89500D02*
X-41469Y-89468D01*
X-34803D01*
X-41500Y-94000D02*
X-41032Y-94468D01*
X-34803D01*
X-3000Y-24201D02*
Y-20000D01*
X2000Y-24201D02*
Y-20000D01*
X-23333Y-8350D02*
X-19642D01*
X-24313Y-8988D02*
X-23970D01*
X-23333Y-8350D01*
X-20000Y3975D02*
X-19279Y4696D01*
X-20000Y2000D02*
Y3975D01*
X17146Y-54146D02*
X18796Y-55796D01*
Y-55796D02*
Y-55796D01*
X-20000Y-39291D02*
X-19642Y-39650D01*
X5551Y-83563D02*
X11063D01*
X15437D02*
X15500Y-83500D01*
X11063Y-83563D02*
X15437D01*
X27500Y-92500D02*
X29469Y-94468D01*
X34095D01*
X27500Y-97500D02*
X29469Y-99468D01*
X34095D01*
X27500Y-102500D02*
X29469Y-104469D01*
X34095D01*
X27500Y-107500D02*
X29469Y-109468D01*
X34095D01*
X40171Y63405D02*
X40666D01*
X38884Y64500D02*
X39076D01*
X40666Y63405D02*
X41713Y62358D01*
X39076Y64500D02*
X40171Y63405D01*
X42500Y40244D02*
Y43744D01*
X20500Y80000D02*
Y80376D01*
X24000Y83876D01*
X48500Y-71500D02*
X50138Y-69862D01*
X45047Y-66453D02*
Y-64477D01*
X50138Y-58138D02*
X52500Y-60500D01*
X50138Y-58138D02*
Y-54075D01*
X23693Y-31701D02*
X24350Y-32358D01*
X15000Y-31701D02*
X23693D01*
X15000D02*
Y-25000D01*
X46075Y-64437D02*
X48248D01*
X49980Y-62705D01*
X50138Y-62862D02*
X52500Y-60500D01*
X41000Y-56701D02*
X41138Y-56563D01*
X46075D01*
X17146Y-54146D02*
Y-49547D01*
X15000Y-15500D02*
X16651Y-13849D01*
X24350Y-28650D02*
X24500Y-28500D01*
X24350Y-32358D02*
Y-28650D01*
X15000Y-18701D02*
Y-15500D01*
X50413Y76256D02*
X51157Y77000D01*
X51500D01*
X47500Y76256D02*
X50413D01*
X47500D02*
Y78657D01*
X48500Y79657D02*
Y80000D01*
X47500Y78657D02*
X48500Y79657D01*
X44000Y84201D02*
X44201Y84000D01*
X24000Y83876D02*
Y84201D01*
X-485Y77015D02*
Y77056D01*
X-1060Y76440D02*
X-485Y77015D01*
X500Y78041D02*
Y78384D01*
X-485Y77056D02*
X500Y78041D01*
X-5384Y76440D02*
X-1060D01*
X-32536Y8000D02*
X-29874Y10661D01*
X-41157Y21500D02*
X-29566D01*
X-40817Y8000D02*
X-32536D01*
X-1901Y48401D02*
X-250Y46750D01*
X-29874Y10661D02*
X-25288D01*
X-1901Y48401D02*
X-1901D01*
X-42817Y10000D02*
X-40817Y8000D01*
X48000Y-84500D02*
X54000D01*
X41669Y-84469D02*
X41701Y-84500D01*
X34095Y-84469D02*
X41669D01*
X-8000Y6500D02*
X-4000D01*
X-14387Y10661D02*
X-10712D01*
X-16721Y8328D02*
X-14387Y10661D01*
X-16721Y7212D02*
Y8328D01*
X2000Y799D02*
X2299Y500D01*
X2000Y799D02*
Y6500D01*
X7675Y23500D02*
X8000Y23175D01*
Y12799D02*
Y23175D01*
X2000Y6500D02*
X8000D01*
X-4000Y12799D02*
X2000D01*
Y13124D01*
X-1705Y16829D02*
X2000Y13124D01*
X-7324Y16829D02*
X-1705D01*
X-8374Y15779D02*
X-7324Y16829D01*
X-10712Y15779D02*
X-8374D01*
X-6656D01*
X-4000Y12799D02*
Y13124D01*
X-6656Y15779D02*
X-4000Y13124D01*
X6450Y22275D02*
X7675Y23500D01*
X6450Y22052D02*
Y22275D01*
X3899Y19500D02*
X6450Y22052D01*
X1299Y19500D02*
X3899D01*
X-4701Y25533D02*
Y27500D01*
X-5990Y24243D02*
X-4701Y25533D01*
X-15382Y24243D02*
X-5990D01*
X-16721Y22905D02*
X-15382Y24243D01*
X-16721Y21788D02*
Y22905D01*
X-11828Y18339D02*
X-10712D01*
X-14161Y20672D02*
X-11828Y18339D01*
X-14161Y20672D02*
Y21788D01*
X-6161Y18339D02*
X-5000Y19500D01*
X-10712Y18339D02*
X-6161D01*
X-5000Y19500D02*
X-4033Y20467D01*
X-1849Y23651D02*
X775D01*
X-4033Y20467D02*
Y21467D01*
X-1849Y23651D01*
X775D02*
X2000Y24876D01*
Y25201D01*
X835Y28500D02*
X8000D01*
X-165Y27500D02*
X835Y28500D01*
X-4701Y27500D02*
X-165D01*
X1000Y32500D02*
X2000Y31500D01*
X-5000Y32500D02*
X1000D01*
X-6225Y31275D02*
X-5000Y32500D01*
X-6900Y31275D02*
X-6225D01*
X-10675Y27500D02*
X-6900Y31275D01*
X-11000Y27500D02*
X-10675D01*
X-17000Y32500D02*
X-11299D01*
X-17000Y27500D02*
Y32500D01*
X-23299Y27500D02*
X-22974D01*
X-21750Y26275D01*
Y25375D02*
Y26275D01*
Y25375D02*
X-19279Y22905D01*
Y21788D02*
Y22905D01*
X24325Y53058D02*
X24558D01*
X26256Y54756D02*
Y57500D01*
X32500Y112325D02*
X34675Y114500D01*
X31476Y53500D02*
X34154D01*
X36988Y56335D02*
Y57304D01*
X34154Y53500D02*
X36988Y56335D01*
X-55259Y-56542D02*
X-42333Y-69468D01*
X-56000Y-53000D02*
X-55259Y-53741D01*
Y-56542D02*
Y-53741D01*
X-35984Y-84469D02*
X-34803D01*
X-37453Y-83000D02*
X-35984Y-84469D01*
X-56000Y-83000D02*
X-37453D01*
X-49531Y-79469D02*
X-34803D01*
X-56000Y-73000D02*
X-49531Y-79469D01*
X-44532Y-74468D02*
X-34803D01*
X-56000Y-63000D02*
X-44532Y-74468D01*
X-42333Y-69468D02*
X-34803D01*
X-43500Y-65000D02*
Y-60799D01*
X-30890Y72514D02*
X-29000Y70624D01*
X-30890Y72514D02*
Y76023D01*
X-29523Y77390D02*
X-29234D01*
X-27624Y79000D01*
X-27299D01*
X-30890Y76023D02*
X-29523Y77390D01*
X-29000Y70299D02*
Y70624D01*
X28563Y97488D02*
Y100397D01*
X31166Y103000D01*
X41713Y62358D02*
X42500D01*
Y64259D01*
X41142Y65617D02*
X42500Y64259D01*
Y60587D02*
X48043D01*
X42500Y64259D02*
Y65744D01*
X41142Y65617D02*
Y70789D01*
X42500Y60587D02*
Y62358D01*
X38432Y73500D02*
X41142Y70789D01*
X42500Y65744D02*
X47500Y70744D01*
X34468Y113969D02*
X35000Y114500D01*
X34468Y108512D02*
Y113969D01*
X34675Y114500D02*
X35000D01*
X32500Y108512D02*
Y112325D01*
X-40700Y95600D02*
Y95750D01*
X-41450Y96500D02*
X-40700Y95750D01*
X-45500Y96500D02*
X-41450D01*
X-45500D02*
Y98500D01*
X31476Y55272D02*
X34956D01*
X36988Y57304D01*
X33050Y57043D02*
X33490Y57483D01*
Y57490D02*
X33929Y57929D01*
X31476Y57043D02*
X33050D01*
X33490Y57483D02*
Y57490D01*
X31476Y60587D02*
X34956D01*
X36988Y58555D01*
Y57929D02*
Y58555D01*
X33929Y57929D02*
X36988D01*
X39020Y55272D02*
X42500D01*
X36988Y57304D02*
X39020Y55272D01*
X60186Y58471D02*
Y58814D01*
X59432Y57716D02*
X60186Y58471D01*
X59432Y50500D02*
Y57716D01*
X50465Y63008D02*
Y63500D01*
X48043Y60587D02*
X50465Y63008D01*
X60186Y58814D02*
Y58814D01*
X58535Y60465D02*
X60186Y58814D01*
X58535Y60465D02*
Y63500D01*
X58500Y69000D02*
X58535Y68965D01*
Y63500D02*
Y68965D01*
X41299Y114500D02*
Y119500D01*
X45000Y114500D02*
X45500Y115000D01*
X41299Y114500D02*
X45000D01*
X41299Y119500D02*
X45500D01*
X28563Y109221D02*
Y114437D01*
X39000Y90500D02*
Y93500D01*
X23709Y108512D02*
X26594D01*
X20997Y105799D02*
X23709Y108512D01*
X17000Y105799D02*
X20997D01*
X-28800Y13220D02*
X-25288D01*
X-30521Y11500D02*
X-28800Y13220D01*
X-33500Y11500D02*
X-30521D01*
X-26405Y15779D02*
X-25288D01*
X-28425Y17799D02*
X-26405Y15779D01*
X-33500Y17799D02*
X-28425D01*
X28500Y114500D02*
X28563Y114437D01*
Y108512D02*
Y109221D01*
Y108512D02*
X30531D01*
X21500Y110500D02*
X27283D01*
X28563Y109221D01*
X30689Y58815D02*
X31476D01*
X29374Y57500D02*
X30689Y58815D01*
X26256Y57500D02*
X29374D01*
X-24500Y44000D02*
X-18800D01*
X-250Y44750D02*
Y46750D01*
Y44750D02*
X500Y44000D01*
X2200D01*
X-29000Y70299D02*
X-28894Y70406D01*
X-17791D01*
X2000Y-36500D02*
Y-30500D01*
X-3000Y-36500D02*
Y-30500D01*
X-8000Y-36500D02*
Y-30500D01*
X2000Y-42799D02*
X2146Y-42945D01*
Y-49547D02*
Y-42945D01*
X-3000Y-42799D02*
X-2854Y-42945D01*
Y-49547D02*
Y-42945D01*
X-8000Y-42799D02*
X-7854Y-42945D01*
Y-49547D02*
Y-42945D01*
X-43500Y-46291D02*
X-37358Y-40150D01*
X-34835Y-54500D02*
X-34803Y-54469D01*
X-43500Y-54500D02*
X-34835D01*
X-29566Y21500D02*
X-26405Y18339D01*
X-42657Y20000D02*
X-41157Y21500D01*
X-43000Y20000D02*
X-42657D01*
X-43000Y10000D02*
X-42817D01*
X-26405Y18339D02*
X-25288D01*
X-19279Y4696D02*
Y7212D01*
X-6532Y66469D02*
Y73791D01*
X-8500Y64500D02*
X-6532Y66469D01*
X-5794Y76030D02*
X-5384Y76440D01*
X-5794Y75946D02*
Y76030D01*
X-6532Y75209D02*
X-5794Y75946D01*
X-6532Y73791D02*
Y75209D01*
X-3626Y80374D02*
Y82760D01*
Y90240D02*
Y93626D01*
X-10469Y73791D02*
Y95650D01*
X-10984Y96166D02*
X-10469Y95650D01*
X-21000Y79000D02*
X-20675D01*
X-19230Y80445D01*
Y98561D01*
X-19449Y98779D02*
X-19230Y98561D01*
X-28532Y-119468D02*
X-28500Y-119500D01*
X-34803Y-119468D02*
X-28532D01*
X27500Y-119500D02*
X27531Y-119468D01*
X34095D01*
X11000Y-94650D02*
X11063Y-94587D01*
X15413D02*
X15500Y-94500D01*
X11063Y-94587D02*
X15413D01*
X15425Y-89075D02*
X15500Y-89000D01*
X11063Y-89075D02*
X15425D01*
X11000Y-79500D02*
X11063Y-79563D01*
Y-83563D02*
Y-79563D01*
X5500Y-79500D02*
X5551Y-79551D01*
Y-83563D02*
Y-79551D01*
X0Y-79500D02*
X39Y-79539D01*
Y-83563D02*
Y-79539D01*
X-5000Y-83500D02*
X-4937Y-83563D01*
X39D01*
X-5000Y-89000D02*
X-4925Y-89075D01*
X39D01*
X-5000Y-94500D02*
X-4913Y-94587D01*
X39D01*
Y-89075D01*
X5551Y-94587D02*
Y-89075D01*
X39D02*
X5551D01*
X39D02*
Y-83563D01*
X5551Y-94587D02*
X11063D01*
X5626Y86500D02*
X10500D01*
X10260Y90240D02*
X10500Y90000D01*
X5626Y90240D02*
X10260D01*
X641Y83509D02*
Y85611D01*
X-249Y86500D02*
X641Y85611D01*
X-3626Y86500D02*
X-249D01*
X2249Y85202D02*
X3346Y84105D01*
X-551Y91841D02*
X2249Y89041D01*
X-551Y91841D02*
Y98779D01*
Y102551D01*
X3346Y83591D02*
X4177Y82760D01*
X5626D01*
X3346Y83591D02*
Y84105D01*
X2249Y85202D02*
Y89041D01*
X-8500Y73791D02*
Y76090D01*
X-9016Y76606D02*
X-8500Y76090D01*
X-37243Y82257D02*
X-37000Y82500D01*
X-37243Y81232D02*
Y82257D01*
X-39974Y78500D02*
X-37243Y81232D01*
X-47000Y83000D02*
Y85500D01*
X-26309Y88666D02*
X-23000Y91974D01*
X-47000Y83000D02*
X-41700D01*
X-51000Y110000D02*
X-50500D01*
Y114000D02*
Y117500D01*
Y110000D02*
Y114000D01*
X-52500Y97701D02*
Y108000D01*
X-50500Y107000D02*
Y110000D01*
X-19449Y98779D02*
Y102551D01*
X-34000Y84700D02*
X-33300Y85400D01*
X-34000Y78500D02*
Y84700D01*
X-40700Y84000D02*
Y85400D01*
X-41700Y83000D02*
X-40700Y84000D01*
X-23000Y91974D02*
Y92299D01*
X-20280Y97948D02*
X-19449Y98779D01*
X-20280Y95344D02*
Y97948D01*
X-23000Y92624D02*
X-20280Y95344D01*
D75*
X42606Y56937D02*
X43381D01*
X44531Y55787D01*
X42500Y49256D02*
X44531Y51287D01*
Y55787D01*
X42500Y57043D02*
X42606Y56937D01*
X24000Y90500D02*
X34000D01*
X-15500Y79675D02*
Y80000D01*
Y76303D02*
Y79675D01*
X-21861Y7356D02*
X-21839Y7333D01*
X-25500Y7500D02*
X-25356Y7356D01*
X-21839Y7212D02*
Y7333D01*
X-25356Y7356D02*
X-21861D01*
X18075Y96750D02*
X24000Y90825D01*
X18075Y96750D02*
Y98425D01*
X-30196Y-43812D02*
X-29126Y-44881D01*
X-30196Y-43812D02*
Y-43549D01*
X-29126Y-48276D02*
Y-44881D01*
X27500Y21000D02*
X29500Y23000D01*
X27500Y11100D02*
Y21000D01*
X32116Y19103D02*
Y26000D01*
X31450Y18437D02*
X32116Y19103D01*
X31450Y15453D02*
Y18437D01*
X25947Y9546D02*
X27500Y11100D01*
X23550Y9546D02*
X25947D01*
X6529Y60650D02*
Y62016D01*
X3408Y70406D02*
X5003Y72000D01*
X6529Y62016D02*
X8600Y64087D01*
X791Y62532D02*
X3955D01*
X5398Y68276D02*
Y68737D01*
X4471Y62016D02*
X6529D01*
X3955Y62532D02*
X4471Y62016D01*
X5398Y68737D02*
X5583Y68922D01*
X791Y70406D02*
X3408D01*
X3590Y66469D02*
X5398Y68276D01*
X791Y64500D02*
X5500D01*
X5003Y72000D02*
X10325D01*
X-28000Y74874D02*
X-26425Y73299D01*
X-28000Y74874D02*
Y75000D01*
X-29126Y-48276D02*
X-27854Y-49547D01*
X-40031Y-109468D02*
X-34803D01*
X29658Y-64500D02*
X34063D01*
X38884Y49256D02*
X42500D01*
X29568Y73500D02*
X31476Y71592D01*
Y62358D02*
Y71592D01*
X56437Y-69937D02*
X58000Y-71500D01*
X56437Y-69937D02*
Y-66925D01*
X34063Y-64500D02*
X34095Y-64468D01*
X38575Y-67589D02*
Y-62768D01*
Y-67589D02*
X44971Y-73984D01*
X49529D01*
X53287Y-70226D02*
Y-66925D01*
X49529Y-73984D02*
X53287Y-70226D01*
X35276Y-59469D02*
X38575Y-62768D01*
X34095Y-59469D02*
X35276D01*
X-24000Y73299D02*
X-14437D01*
X-56000Y-103000D02*
X-55803Y-103197D01*
X-36075D01*
X-34803Y-104469D01*
X-56000Y-93000D02*
X-49531Y-99468D01*
X-34803D01*
X41925Y53500D02*
X42500D01*
X40165Y51740D02*
X41925Y53500D01*
X37215Y51740D02*
X40165D01*
X35528Y50053D02*
X37215Y51740D01*
X35528Y49075D02*
Y50053D01*
X34453Y48000D02*
X35528Y49075D01*
X45791Y58709D02*
X49006Y55494D01*
X42606Y58709D02*
X45791D01*
X49006Y52063D02*
X50568Y50500D01*
X49006Y52063D02*
Y55494D01*
X-26425Y73299D02*
X-24000D01*
X-15500Y76303D02*
X-14437Y75240D01*
Y73823D02*
Y75240D01*
Y73823D02*
X-14405Y73791D01*
X-15500Y79675D02*
X-12437Y76612D01*
Y73791D02*
Y76612D01*
X42500Y58815D02*
X42606Y58709D01*
X37925Y85276D02*
X39000Y84201D01*
X37925Y85276D02*
Y86250D01*
X34000Y90175D02*
X37925Y86250D01*
X34000Y90175D02*
Y90500D01*
X32500Y95117D02*
Y97488D01*
Y95117D02*
X34000Y93617D01*
Y90500D02*
Y93617D01*
Y96366D01*
X34468Y96835D02*
Y97488D01*
X34000Y96366D02*
X34468Y96835D01*
X24000Y90500D02*
Y90825D01*
X17000Y99500D02*
X18075Y98425D01*
X17649Y42997D02*
Y63054D01*
X19049Y64454D01*
X-6371Y47750D02*
X6529Y60650D01*
X-11200Y47750D02*
X-6371D01*
X9675Y67000D02*
X10000D01*
X8600Y65925D02*
X9675Y67000D01*
X8600Y64087D02*
Y65925D01*
X791Y66469D02*
X3590D01*
X15000Y47848D02*
Y64000D01*
X15971Y66671D02*
X16299Y67000D01*
X15971Y64971D02*
Y66671D01*
X15000Y64000D02*
X15971Y64971D01*
X9800Y42648D02*
X15000Y47848D01*
X16299Y72000D02*
X18653D01*
X19049Y71605D01*
Y64454D02*
Y71605D01*
X12952Y38300D02*
X17649Y42997D01*
X3001Y38300D02*
X12952D01*
X1051Y40250D02*
X3001Y38300D01*
X-11200Y40250D02*
X1051D01*
X9800D02*
Y42648D01*
X10325Y72000D02*
X12750Y69575D01*
Y60275D02*
Y69575D01*
X9800Y57325D02*
X12750Y60275D01*
X9800Y47750D02*
Y57325D01*
X-17823Y68405D02*
X-17791Y68437D01*
X-20170Y68405D02*
X-17823D01*
X-21575Y67000D02*
X-20170Y68405D01*
X-24000Y67000D02*
X-21575D01*
X-14405Y73331D02*
Y73791D01*
X-14437Y73299D02*
X-14405Y73331D01*
X-23531Y-104469D02*
X-23500Y-104500D01*
X-34803Y-104469D02*
X-23531D01*
X-27531Y-99468D02*
X-27500Y-99500D01*
X-34803Y-99468D02*
X-27531D01*
X-28000Y86000D02*
X-23000D01*
X-33300Y95600D02*
X-30976D01*
X-28000Y92624D01*
Y92299D02*
Y92624D01*
D76*
X13000Y94500D02*
Y111249D01*
X21251Y119500D01*
X16902Y85000D02*
X17000D01*
X34095Y-114469D02*
X34110Y-114484D01*
X40984D01*
X41000Y-114500D01*
X24000Y90175D02*
Y90500D01*
X17000Y85000D02*
X22000Y90000D01*
X23825D02*
X24000Y90175D01*
X22000Y90000D02*
X23825D01*
X13000Y94500D02*
X16000Y91500D01*
X35000Y114500D02*
Y119500D01*
X21251D02*
X35000D01*
X13000Y110000D02*
Y111249D01*
X-35500Y110000D02*
X13000D01*
D77*
X-56000Y-3000D02*
D03*
Y-13000D02*
D03*
Y7000D02*
D03*
Y-43000D02*
D03*
Y-33000D02*
D03*
Y17000D02*
D03*
Y57000D02*
D03*
Y-93000D02*
D03*
Y-83000D02*
D03*
Y-63000D02*
D03*
Y-53000D02*
D03*
Y-73000D02*
D03*
Y27000D02*
D03*
Y37000D02*
D03*
Y77000D02*
D03*
Y87000D02*
D03*
Y47000D02*
D03*
Y67000D02*
D03*
Y-23000D02*
D03*
D78*
Y-103000D02*
D03*
D79*
X7008Y117500D02*
D03*
X-27008D02*
D03*
D80*
X7008Y101043D02*
D03*
X-27008D02*
D03*
D81*
X1378Y104512D02*
D03*
X-21378D02*
D03*
D82*
X51000Y15000D02*
D03*
X30000Y-8500D02*
D03*
X29358Y-14642D02*
D03*
X-27500Y32500D02*
D03*
X-23400Y36400D02*
D03*
X-43000Y121319D02*
D03*
X-25500Y7500D02*
D03*
X44500Y103000D02*
D03*
X-18477Y17987D02*
D03*
X63500Y-43000D02*
D03*
X37000D02*
D03*
X-18293Y-34307D02*
D03*
X-24144Y-36429D02*
D03*
X51140Y-20106D02*
D03*
X19500Y5500D02*
D03*
X48660Y84000D02*
D03*
X43502Y95504D02*
D03*
X-37000Y90500D02*
D03*
X-12500Y104000D02*
D03*
X-7500D02*
D03*
X-4849Y78849D02*
D03*
X28500Y94000D02*
D03*
X22728Y95746D02*
D03*
X-43000Y113000D02*
D03*
Y117097D02*
D03*
X-43091Y109226D02*
D03*
X-43000Y105840D02*
D03*
Y102500D02*
D03*
X-58006Y109778D02*
D03*
X-57944Y114071D02*
D03*
X-58000Y106000D02*
D03*
X-30196Y-43549D02*
D03*
X-32500Y-38500D02*
D03*
X11000Y-99660D02*
D03*
X5500D02*
D03*
X39Y-99620D02*
D03*
X60000Y-80500D02*
D03*
X45000Y-52000D02*
D03*
X27881Y-56119D02*
D03*
X24500Y-26166D02*
D03*
X23998Y-20448D02*
D03*
X56002D02*
D03*
X29500Y23000D02*
D03*
X23500Y19500D02*
D03*
X32116Y26000D02*
D03*
X-15500Y91000D02*
D03*
X46000Y-103000D02*
D03*
X41000D02*
D03*
X-40500Y74500D02*
D03*
X18224Y111181D02*
D03*
X-33500Y63000D02*
D03*
X-29000Y59000D02*
D03*
X42000Y27500D02*
D03*
X24325Y53058D02*
D03*
X28000Y53000D02*
D03*
X17000Y-10000D02*
D03*
X27000Y63000D02*
D03*
X18500Y23500D02*
D03*
Y28000D02*
D03*
X20744Y53369D02*
D03*
X5500Y64500D02*
D03*
X5583Y68922D02*
D03*
X-28000Y75000D02*
D03*
X-15500Y0D02*
D03*
X44000Y-6000D02*
D03*
X43000Y-68500D02*
D03*
X40697Y-90697D02*
D03*
X44000Y-79500D02*
D03*
X48000Y-6000D02*
D03*
X52000D02*
D03*
X-47000Y-12000D02*
D03*
X-33500Y-23000D02*
D03*
X-8000Y-20000D02*
D03*
X-20029Y-13272D02*
D03*
X-40000Y-114000D02*
D03*
X-40031Y-109468D02*
D03*
X-41500Y-89500D02*
D03*
Y-94000D02*
D03*
X-3000Y-20000D02*
D03*
X2000D02*
D03*
X-24313Y-8988D02*
D03*
X-20000Y2000D02*
D03*
X29658Y-64500D02*
D03*
X18796Y-55796D02*
D03*
X15500Y-83500D02*
D03*
X27500Y-92500D02*
D03*
Y-97500D02*
D03*
Y-102500D02*
D03*
Y-107500D02*
D03*
X15500Y35000D02*
D03*
X38884Y49256D02*
D03*
X16902Y85000D02*
D03*
X38884Y64500D02*
D03*
X42500Y40244D02*
D03*
X20500Y80000D02*
D03*
X58000Y-71500D02*
D03*
X48500D02*
D03*
X51500Y-48000D02*
D03*
X16651Y-13849D02*
D03*
X51500Y77000D02*
D03*
X48500Y80000D02*
D03*
X500Y78384D02*
D03*
X-1901Y48401D02*
D03*
X60299Y-88299D02*
D03*
X-8000Y6500D02*
D03*
X-43500Y-65000D02*
D03*
X16000Y91500D02*
D03*
X60186Y58814D02*
D03*
X58500Y69000D02*
D03*
X45500Y115000D02*
D03*
Y119500D02*
D03*
X21500Y103000D02*
D03*
Y110500D02*
D03*
X20744Y61256D02*
D03*
X-24500Y44000D02*
D03*
X-43000Y10000D02*
D03*
Y20000D02*
D03*
X-3626Y93626D02*
D03*
X-28500Y-119500D02*
D03*
X27500D02*
D03*
X15500Y-94500D02*
D03*
Y-89000D02*
D03*
X11000Y-79500D02*
D03*
X5500D02*
D03*
X0D02*
D03*
X-5000Y-83500D02*
D03*
Y-89000D02*
D03*
Y-94500D02*
D03*
X-23500Y-104500D02*
D03*
X-27500Y-99500D02*
D03*
X10500Y86500D02*
D03*
Y90000D02*
D03*
X641Y83509D02*
D03*
X-37000Y82500D02*
D03*
X-47000Y72000D02*
D03*
M02*
