G04*
G04 #@! TF.GenerationSoftware,Altium Limited,Altium Designer,25.2.1 (25)*
G04*
G04 Layer_Color=16711935*
%FSLAX25Y25*%
%MOIN*%
G70*
G04*
G04 #@! TF.SameCoordinates,6E7B483F-BFF1-4FB3-8246-CE29AB42D2EF*
G04*
G04*
G04 #@! TF.FilePolarity,Positive*
G04*
G01*
G75*
%ADD10C,0.00600*%
%ADD75C,0.01000*%
D10*
X103599Y-15845D02*
Y-19844D01*
X99600Y-15845D01*
X98601D01*
X97601Y-16845D01*
Y-18844D01*
X98601Y-19844D01*
X97601Y-9847D02*
Y-13846D01*
X100600D01*
X99600Y-11846D01*
Y-10847D01*
X100600Y-9847D01*
X102599D01*
X103599Y-10847D01*
Y-12846D01*
X102599Y-13846D01*
X103599Y-3849D02*
Y-7848D01*
X99600Y-3849D01*
X98601D01*
X97601Y-4849D01*
Y-6848D01*
X98601Y-7848D01*
X97601Y2149D02*
Y-1850D01*
X100600D01*
X99600Y150D01*
Y1149D01*
X100600Y2149D01*
X102599D01*
X103599Y1149D01*
Y-850D01*
X102599Y-1850D01*
X103599Y4149D02*
X102599D01*
Y5148D01*
X103599D01*
Y4149D01*
X98601Y9147D02*
X97601Y10147D01*
Y12146D01*
X98601Y13146D01*
X102599D01*
X103599Y12146D01*
Y10147D01*
X102599Y9147D01*
X98601D01*
Y15145D02*
X97601Y16145D01*
Y18144D01*
X98601Y19144D01*
X102599D01*
X103599Y18144D01*
Y16145D01*
X102599Y15145D01*
X98601D01*
X-20594Y-176099D02*
X-18595D01*
X-19594D01*
Y-170101D01*
X-20594Y-171101D01*
X-15596D02*
X-14596Y-170101D01*
X-12596D01*
X-11597Y-171101D01*
Y-172100D01*
X-12596Y-173100D01*
X-13596D01*
X-12596D01*
X-11597Y-174100D01*
Y-175099D01*
X-12596Y-176099D01*
X-14596D01*
X-15596Y-175099D01*
X-5599Y-170101D02*
X-9597D01*
Y-173100D01*
X-7598Y-172100D01*
X-6598D01*
X-5599Y-173100D01*
Y-175099D01*
X-6598Y-176099D01*
X-8598D01*
X-9597Y-175099D01*
X-3599Y-171101D02*
X-2600Y-170101D01*
X-600D01*
X399Y-171101D01*
Y-175099D01*
X-600Y-176099D01*
X-2600D01*
X-3599Y-175099D01*
Y-171101D01*
X2399Y-176099D02*
Y-175099D01*
X3398D01*
Y-176099D01*
X2399D01*
X7397Y-171101D02*
X8397Y-170101D01*
X10396D01*
X11396Y-171101D01*
Y-175099D01*
X10396Y-176099D01*
X8397D01*
X7397Y-175099D01*
Y-171101D01*
X13395D02*
X14395Y-170101D01*
X16394D01*
X17394Y-171101D01*
Y-175099D01*
X16394Y-176099D01*
X14395D01*
X13395Y-175099D01*
Y-171101D01*
D75*
X53000Y127500D02*
X101000D01*
X50000Y-125000D02*
X101000D01*
X100000Y20744D02*
Y127500D01*
Y-125000D02*
Y-21444D01*
X98000Y121500D02*
X100000Y127500D01*
X102000Y121500D01*
X100000Y-125000D02*
X102000Y-119000D01*
X98000D02*
X100000Y-125000D01*
X-67500Y-173500D02*
Y-110000D01*
X67500Y-173500D02*
Y-107500D01*
X-67500Y-172500D02*
X-22194D01*
X18994D02*
X67500D01*
X-67500D02*
X-61500Y-174500D01*
X-67500Y-172500D02*
X-61500Y-170500D01*
X61500D02*
X67500Y-172500D01*
X61500Y-174500D02*
X67500Y-172500D01*
X48500Y-125000D02*
X67500Y-106000D01*
X-67500Y111500D02*
X-51500Y127500D01*
X-67500Y-106500D02*
Y111500D01*
Y-106500D02*
X-49000Y-125000D01*
X48500D01*
X67500Y-106000D02*
Y111500D01*
X51500Y127500D02*
X67500Y111500D01*
X-51500Y127500D02*
X51500D01*
M02*
