G04*
G04 #@! TF.GenerationSoftware,Altium Limited,Altium Designer,25.2.1 (25)*
G04*
G04 Layer_Color=8388736*
%FSLAX25Y25*%
%MOIN*%
G70*
G04*
G04 #@! TF.SameCoordinates,6E7B483F-BFF1-4FB3-8246-CE29AB42D2EF*
G04*
G04*
G04 #@! TF.FilePolarity,Negative*
G04*
G01*
G75*
%ADD19R,0.02756X0.02756*%
G04:AMPARAMS|DCode=20|XSize=23.62mil|YSize=7.87mil|CornerRadius=3.94mil|HoleSize=0mil|Usage=FLASHONLY|Rotation=0.000|XOffset=0mil|YOffset=0mil|HoleType=Round|Shape=RoundedRectangle|*
%AMROUNDEDRECTD20*
21,1,0.02362,0.00000,0,0,0.0*
21,1,0.01575,0.00787,0,0,0.0*
1,1,0.00787,0.00787,0.00000*
1,1,0.00787,-0.00787,0.00000*
1,1,0.00787,-0.00787,0.00000*
1,1,0.00787,0.00787,0.00000*
%
%ADD20ROUNDEDRECTD20*%
%ADD22R,0.06122X0.09080*%
%ADD24R,0.02800X0.01100*%
%ADD25R,0.03900X0.06700*%
%ADD26R,0.06100X0.05100*%
%ADD28R,0.03765X0.04749*%
%ADD29R,0.05600X0.02200*%
%ADD30R,0.01063X0.03898*%
%ADD31R,0.03898X0.01063*%
%ADD33R,0.05100X0.06100*%
G04:AMPARAMS|DCode=34|XSize=31.88mil|YSize=9.55mil|CornerRadius=4.77mil|HoleSize=0mil|Usage=FLASHONLY|Rotation=0.000|XOffset=0mil|YOffset=0mil|HoleType=Round|Shape=RoundedRectangle|*
%AMROUNDEDRECTD34*
21,1,0.03188,0.00000,0,0,0.0*
21,1,0.02233,0.00955,0,0,0.0*
1,1,0.00955,0.01116,0.00000*
1,1,0.00955,-0.01116,0.00000*
1,1,0.00955,-0.01116,0.00000*
1,1,0.00955,0.01116,0.00000*
%
%ADD34ROUNDEDRECTD34*%
G04:AMPARAMS|DCode=35|XSize=9.55mil|YSize=31.88mil|CornerRadius=4.77mil|HoleSize=0mil|Usage=FLASHONLY|Rotation=0.000|XOffset=0mil|YOffset=0mil|HoleType=Round|Shape=RoundedRectangle|*
%AMROUNDEDRECTD35*
21,1,0.00955,0.02233,0,0,0.0*
21,1,0.00000,0.03188,0,0,0.0*
1,1,0.00955,0.00000,-0.01116*
1,1,0.00955,0.00000,-0.01116*
1,1,0.00955,0.00000,0.01116*
1,1,0.00955,0.00000,0.01116*
%
%ADD35ROUNDEDRECTD35*%
%ADD36R,0.03188X0.00955*%
%ADD43R,0.02756X0.02756*%
%ADD48R,0.12800X0.03400*%
%ADD50R,0.03950X0.04599*%
%ADD51R,0.04599X0.03950*%
%ADD52R,0.04764X0.07953*%
%ADD53R,0.03950X0.04737*%
%ADD54R,0.02762X0.04337*%
%ADD55R,0.12795X0.12795*%
%ADD56O,0.04343X0.01587*%
%ADD57O,0.01587X0.04343*%
%ADD58R,0.07493X0.06863*%
%ADD59R,0.06706X0.04343*%
%ADD60R,0.04343X0.06706*%
%ADD61R,0.04343X0.04343*%
G04:AMPARAMS|DCode=62|XSize=61.54mil|YSize=31.62mil|CornerRadius=6.95mil|HoleSize=0mil|Usage=FLASHONLY|Rotation=180.000|XOffset=0mil|YOffset=0mil|HoleType=Round|Shape=RoundedRectangle|*
%AMROUNDEDRECTD62*
21,1,0.06154,0.01772,0,0,180.0*
21,1,0.04764,0.03162,0,0,180.0*
1,1,0.01391,-0.02382,0.00886*
1,1,0.01391,0.02382,0.00886*
1,1,0.01391,0.02382,-0.00886*
1,1,0.01391,-0.02382,-0.00886*
%
%ADD62ROUNDEDRECTD62*%
%ADD63R,0.01981X0.05328*%
%ADD64R,0.03162X0.05328*%
%ADD65R,0.03000X0.05800*%
%ADD66R,0.10800X0.20800*%
%ADD67C,0.07099*%
G04:AMPARAMS|DCode=68|XSize=70.99mil|YSize=70.99mil|CornerRadius=19.75mil|HoleSize=0mil|Usage=FLASHONLY|Rotation=90.000|XOffset=0mil|YOffset=0mil|HoleType=Round|Shape=RoundedRectangle|*
%AMROUNDEDRECTD68*
21,1,0.07099,0.03150,0,0,90.0*
21,1,0.03150,0.07099,0,0,90.0*
1,1,0.03950,0.01575,0.01575*
1,1,0.03950,0.01575,-0.01575*
1,1,0.03950,-0.01575,-0.01575*
1,1,0.03950,-0.01575,0.01575*
%
%ADD68ROUNDEDRECTD68*%
G04:AMPARAMS|DCode=69|XSize=78.87mil|YSize=47.37mil|CornerRadius=13.84mil|HoleSize=0mil|Usage=FLASHONLY|Rotation=270.000|XOffset=0mil|YOffset=0mil|HoleType=Round|Shape=RoundedRectangle|*
%AMROUNDEDRECTD69*
21,1,0.07887,0.01968,0,0,270.0*
21,1,0.05118,0.04737,0,0,270.0*
1,1,0.02769,-0.00984,-0.02559*
1,1,0.02769,-0.00984,0.02559*
1,1,0.02769,0.00984,0.02559*
1,1,0.02769,0.00984,-0.02559*
%
%ADD69ROUNDEDRECTD69*%
%ADD70O,0.04737X0.09068*%
%ADD71C,0.03359*%
%ADD72C,0.02769*%
G36*
X38445Y109968D02*
X38484Y109964D01*
X38522Y109959D01*
X38561Y109952D01*
X38599Y109943D01*
X38637Y109932D01*
X38674Y109919D01*
X38710Y109904D01*
X38745Y109887D01*
X38780Y109868D01*
X38813Y109848D01*
X38845Y109826D01*
X38876Y109802D01*
X38906Y109776D01*
X38934Y109749D01*
X38961Y109721D01*
X38987Y109691D01*
X39011Y109660D01*
X39033Y109628D01*
X39053Y109595D01*
X39072Y109560D01*
X39089Y109525D01*
X39104Y109488D01*
X39117Y109452D01*
X39128Y109414D01*
X39137Y109376D01*
X39144Y109337D01*
X39149Y109299D01*
X39153Y109260D01*
X39154Y109221D01*
Y107803D01*
X39153Y107764D01*
X39149Y107725D01*
X39144Y107686D01*
X39137Y107648D01*
X39128Y107609D01*
X39117Y107572D01*
X39104Y107535D01*
X39089Y107499D01*
X39072Y107464D01*
X39053Y107429D01*
X39033Y107396D01*
X39011Y107363D01*
X38987Y107332D01*
X38961Y107303D01*
X38934Y107274D01*
X38906Y107247D01*
X38876Y107222D01*
X38845Y107198D01*
X38813Y107176D01*
X38780Y107155D01*
X38745Y107137D01*
X38710Y107120D01*
X38674Y107105D01*
X38637Y107092D01*
X38599Y107081D01*
X38561Y107071D01*
X38522Y107064D01*
X38484Y107059D01*
X38445Y107056D01*
X38405Y107055D01*
X38366Y107056D01*
X38327Y107059D01*
X38289Y107064D01*
X38250Y107071D01*
X38212Y107081D01*
X38174Y107092D01*
X38137Y107105D01*
X38101Y107120D01*
X38066Y107137D01*
X38032Y107155D01*
X37998Y107176D01*
X37966Y107198D01*
X37935Y107222D01*
X37905Y107247D01*
X37877Y107274D01*
X37850Y107303D01*
X37824Y107332D01*
X37800Y107363D01*
X37778Y107396D01*
X37758Y107429D01*
X37739Y107464D01*
X37722Y107499D01*
X37707Y107535D01*
X37694Y107572D01*
X37683Y107609D01*
X37674Y107648D01*
X37667Y107686D01*
X37662Y107725D01*
X37659Y107764D01*
X37657Y107803D01*
Y109221D01*
X37659Y109260D01*
X37662Y109299D01*
X37667Y109337D01*
X37674Y109376D01*
X37683Y109414D01*
X37694Y109452D01*
X37707Y109488D01*
X37722Y109525D01*
X37739Y109560D01*
X37758Y109595D01*
X37778Y109628D01*
X37800Y109660D01*
X37824Y109691D01*
X37850Y109721D01*
X37877Y109749D01*
X37905Y109776D01*
X37935Y109802D01*
X37966Y109826D01*
X37998Y109848D01*
X38032Y109868D01*
X38066Y109887D01*
X38101Y109904D01*
X38137Y109919D01*
X38174Y109932D01*
X38212Y109943D01*
X38250Y109952D01*
X38289Y109959D01*
X38327Y109964D01*
X38366Y109968D01*
X38405Y109968D01*
X38445Y109968D01*
D02*
G37*
G36*
X36476D02*
X36515Y109964D01*
X36554Y109959D01*
X36593Y109952D01*
X36631Y109943D01*
X36668Y109932D01*
X36705Y109919D01*
X36741Y109904D01*
X36777Y109887D01*
X36811Y109868D01*
X36844Y109848D01*
X36877Y109826D01*
X36908Y109802D01*
X36937Y109776D01*
X36966Y109749D01*
X36993Y109721D01*
X37018Y109691D01*
X37042Y109660D01*
X37064Y109628D01*
X37085Y109595D01*
X37104Y109560D01*
X37120Y109525D01*
X37135Y109488D01*
X37148Y109452D01*
X37160Y109414D01*
X37169Y109376D01*
X37176Y109337D01*
X37181Y109299D01*
X37184Y109260D01*
X37185Y109221D01*
Y107803D01*
X37184Y107764D01*
X37181Y107725D01*
X37176Y107686D01*
X37169Y107648D01*
X37160Y107609D01*
X37148Y107572D01*
X37135Y107535D01*
X37120Y107499D01*
X37104Y107464D01*
X37085Y107429D01*
X37064Y107396D01*
X37042Y107363D01*
X37018Y107332D01*
X36993Y107303D01*
X36966Y107274D01*
X36937Y107247D01*
X36908Y107222D01*
X36877Y107198D01*
X36844Y107176D01*
X36811Y107155D01*
X36777Y107137D01*
X36741Y107120D01*
X36705Y107105D01*
X36668Y107092D01*
X36631Y107081D01*
X36593Y107071D01*
X36554Y107064D01*
X36515Y107059D01*
X36476Y107056D01*
X36437Y107055D01*
X36398Y107056D01*
X36359Y107059D01*
X36320Y107064D01*
X36281Y107071D01*
X36243Y107081D01*
X36206Y107092D01*
X36169Y107105D01*
X36133Y107120D01*
X36097Y107137D01*
X36063Y107155D01*
X36030Y107176D01*
X35997Y107198D01*
X35966Y107222D01*
X35936Y107247D01*
X35908Y107274D01*
X35881Y107303D01*
X35856Y107332D01*
X35832Y107363D01*
X35810Y107396D01*
X35789Y107429D01*
X35770Y107464D01*
X35754Y107499D01*
X35739Y107535D01*
X35726Y107572D01*
X35715Y107609D01*
X35705Y107648D01*
X35698Y107686D01*
X35693Y107725D01*
X35690Y107764D01*
X35689Y107803D01*
Y109221D01*
X35690Y109260D01*
X35693Y109299D01*
X35698Y109337D01*
X35705Y109376D01*
X35715Y109414D01*
X35726Y109452D01*
X35739Y109488D01*
X35754Y109525D01*
X35770Y109560D01*
X35789Y109595D01*
X35810Y109628D01*
X35832Y109660D01*
X35856Y109691D01*
X35881Y109721D01*
X35908Y109749D01*
X35936Y109776D01*
X35966Y109802D01*
X35997Y109826D01*
X36030Y109848D01*
X36063Y109868D01*
X36097Y109887D01*
X36133Y109904D01*
X36169Y109919D01*
X36206Y109932D01*
X36243Y109943D01*
X36281Y109952D01*
X36320Y109959D01*
X36359Y109964D01*
X36398Y109968D01*
X36437Y109968D01*
X36476Y109968D01*
D02*
G37*
G36*
X34508D02*
X34547Y109964D01*
X34585Y109959D01*
X34624Y109952D01*
X34662Y109943D01*
X34700Y109932D01*
X34737Y109919D01*
X34773Y109904D01*
X34808Y109887D01*
X34843Y109868D01*
X34876Y109848D01*
X34908Y109826D01*
X34939Y109802D01*
X34969Y109776D01*
X34997Y109749D01*
X35024Y109721D01*
X35050Y109691D01*
X35074Y109660D01*
X35096Y109628D01*
X35116Y109595D01*
X35135Y109560D01*
X35152Y109525D01*
X35167Y109488D01*
X35180Y109452D01*
X35191Y109414D01*
X35200Y109376D01*
X35207Y109337D01*
X35212Y109299D01*
X35215Y109260D01*
X35217Y109221D01*
Y107803D01*
X35215Y107764D01*
X35212Y107725D01*
X35207Y107686D01*
X35200Y107648D01*
X35191Y107609D01*
X35180Y107572D01*
X35167Y107535D01*
X35152Y107499D01*
X35135Y107464D01*
X35116Y107429D01*
X35096Y107396D01*
X35074Y107363D01*
X35050Y107332D01*
X35024Y107303D01*
X34997Y107274D01*
X34969Y107247D01*
X34939Y107222D01*
X34908Y107198D01*
X34876Y107176D01*
X34843Y107155D01*
X34808Y107137D01*
X34773Y107120D01*
X34737Y107105D01*
X34700Y107092D01*
X34662Y107081D01*
X34624Y107071D01*
X34585Y107064D01*
X34547Y107059D01*
X34508Y107056D01*
X34468Y107055D01*
X34429Y107056D01*
X34390Y107059D01*
X34352Y107064D01*
X34313Y107071D01*
X34275Y107081D01*
X34237Y107092D01*
X34200Y107105D01*
X34164Y107120D01*
X34129Y107137D01*
X34095Y107155D01*
X34061Y107176D01*
X34029Y107198D01*
X33998Y107222D01*
X33968Y107247D01*
X33940Y107274D01*
X33913Y107303D01*
X33887Y107332D01*
X33863Y107363D01*
X33841Y107396D01*
X33821Y107429D01*
X33802Y107464D01*
X33785Y107499D01*
X33770Y107535D01*
X33757Y107572D01*
X33746Y107609D01*
X33737Y107648D01*
X33730Y107686D01*
X33725Y107725D01*
X33722Y107764D01*
X33720Y107803D01*
Y109221D01*
X33722Y109260D01*
X33725Y109299D01*
X33730Y109337D01*
X33737Y109376D01*
X33746Y109414D01*
X33757Y109452D01*
X33770Y109488D01*
X33785Y109525D01*
X33802Y109560D01*
X33821Y109595D01*
X33841Y109628D01*
X33863Y109660D01*
X33887Y109691D01*
X33913Y109721D01*
X33940Y109749D01*
X33968Y109776D01*
X33998Y109802D01*
X34029Y109826D01*
X34061Y109848D01*
X34095Y109868D01*
X34129Y109887D01*
X34164Y109904D01*
X34200Y109919D01*
X34237Y109932D01*
X34275Y109943D01*
X34313Y109952D01*
X34352Y109959D01*
X34390Y109964D01*
X34429Y109968D01*
X34468Y109968D01*
X34508Y109968D01*
D02*
G37*
G36*
X32539D02*
X32578Y109964D01*
X32617Y109959D01*
X32656Y109952D01*
X32694Y109943D01*
X32731Y109932D01*
X32768Y109919D01*
X32804Y109904D01*
X32840Y109887D01*
X32874Y109868D01*
X32907Y109848D01*
X32940Y109826D01*
X32971Y109802D01*
X33000Y109776D01*
X33029Y109749D01*
X33056Y109721D01*
X33081Y109691D01*
X33105Y109660D01*
X33127Y109628D01*
X33148Y109595D01*
X33167Y109560D01*
X33183Y109525D01*
X33198Y109488D01*
X33211Y109452D01*
X33222Y109414D01*
X33232Y109376D01*
X33239Y109337D01*
X33244Y109299D01*
X33247Y109260D01*
X33248Y109221D01*
Y107803D01*
X33247Y107764D01*
X33244Y107725D01*
X33239Y107686D01*
X33232Y107648D01*
X33222Y107609D01*
X33211Y107572D01*
X33198Y107535D01*
X33183Y107499D01*
X33167Y107464D01*
X33148Y107429D01*
X33127Y107396D01*
X33105Y107363D01*
X33081Y107332D01*
X33056Y107303D01*
X33029Y107274D01*
X33000Y107247D01*
X32971Y107222D01*
X32940Y107198D01*
X32907Y107176D01*
X32874Y107155D01*
X32840Y107137D01*
X32804Y107120D01*
X32768Y107105D01*
X32731Y107092D01*
X32694Y107081D01*
X32656Y107071D01*
X32617Y107064D01*
X32578Y107059D01*
X32539Y107056D01*
X32500Y107055D01*
X32461Y107056D01*
X32422Y107059D01*
X32383Y107064D01*
X32344Y107071D01*
X32306Y107081D01*
X32269Y107092D01*
X32232Y107105D01*
X32196Y107120D01*
X32160Y107137D01*
X32126Y107155D01*
X32093Y107176D01*
X32060Y107198D01*
X32029Y107222D01*
X31999Y107247D01*
X31971Y107274D01*
X31944Y107303D01*
X31919Y107332D01*
X31895Y107363D01*
X31873Y107396D01*
X31852Y107429D01*
X31833Y107464D01*
X31817Y107499D01*
X31802Y107535D01*
X31789Y107572D01*
X31778Y107609D01*
X31768Y107648D01*
X31761Y107686D01*
X31756Y107725D01*
X31753Y107764D01*
X31752Y107803D01*
Y109221D01*
X31753Y109260D01*
X31756Y109299D01*
X31761Y109337D01*
X31768Y109376D01*
X31778Y109414D01*
X31789Y109452D01*
X31802Y109488D01*
X31817Y109525D01*
X31833Y109560D01*
X31852Y109595D01*
X31873Y109628D01*
X31895Y109660D01*
X31919Y109691D01*
X31944Y109721D01*
X31971Y109749D01*
X31999Y109776D01*
X32029Y109802D01*
X32060Y109826D01*
X32093Y109848D01*
X32126Y109868D01*
X32160Y109887D01*
X32196Y109904D01*
X32232Y109919D01*
X32269Y109932D01*
X32306Y109943D01*
X32344Y109952D01*
X32383Y109959D01*
X32422Y109964D01*
X32461Y109968D01*
X32500Y109968D01*
X32539Y109968D01*
D02*
G37*
G36*
X30571D02*
X30610Y109964D01*
X30648Y109959D01*
X30687Y109952D01*
X30725Y109943D01*
X30763Y109932D01*
X30800Y109919D01*
X30836Y109904D01*
X30871Y109887D01*
X30906Y109868D01*
X30939Y109848D01*
X30971Y109826D01*
X31002Y109802D01*
X31032Y109776D01*
X31060Y109749D01*
X31087Y109721D01*
X31113Y109691D01*
X31137Y109660D01*
X31159Y109628D01*
X31179Y109595D01*
X31198Y109560D01*
X31215Y109525D01*
X31230Y109488D01*
X31243Y109452D01*
X31254Y109414D01*
X31263Y109376D01*
X31270Y109337D01*
X31275Y109299D01*
X31278Y109260D01*
X31280Y109221D01*
Y107803D01*
X31278Y107764D01*
X31275Y107725D01*
X31270Y107686D01*
X31263Y107648D01*
X31254Y107609D01*
X31243Y107572D01*
X31230Y107535D01*
X31215Y107499D01*
X31198Y107464D01*
X31179Y107429D01*
X31159Y107396D01*
X31137Y107363D01*
X31113Y107332D01*
X31087Y107303D01*
X31060Y107274D01*
X31032Y107247D01*
X31002Y107222D01*
X30971Y107198D01*
X30939Y107176D01*
X30906Y107155D01*
X30871Y107137D01*
X30836Y107120D01*
X30800Y107105D01*
X30763Y107092D01*
X30725Y107081D01*
X30687Y107071D01*
X30648Y107064D01*
X30610Y107059D01*
X30571Y107056D01*
X30531Y107055D01*
X30492Y107056D01*
X30453Y107059D01*
X30415Y107064D01*
X30376Y107071D01*
X30338Y107081D01*
X30300Y107092D01*
X30263Y107105D01*
X30227Y107120D01*
X30192Y107137D01*
X30158Y107155D01*
X30124Y107176D01*
X30092Y107198D01*
X30061Y107222D01*
X30031Y107247D01*
X30003Y107274D01*
X29976Y107303D01*
X29950Y107332D01*
X29926Y107363D01*
X29904Y107396D01*
X29884Y107429D01*
X29865Y107464D01*
X29848Y107499D01*
X29833Y107535D01*
X29820Y107572D01*
X29809Y107609D01*
X29800Y107648D01*
X29793Y107686D01*
X29788Y107725D01*
X29785Y107764D01*
X29783Y107803D01*
Y109221D01*
X29785Y109260D01*
X29788Y109299D01*
X29793Y109337D01*
X29800Y109376D01*
X29809Y109414D01*
X29820Y109452D01*
X29833Y109488D01*
X29848Y109525D01*
X29865Y109560D01*
X29884Y109595D01*
X29904Y109628D01*
X29926Y109660D01*
X29950Y109691D01*
X29976Y109721D01*
X30003Y109749D01*
X30031Y109776D01*
X30061Y109802D01*
X30092Y109826D01*
X30124Y109848D01*
X30158Y109868D01*
X30192Y109887D01*
X30227Y109904D01*
X30263Y109919D01*
X30300Y109932D01*
X30338Y109943D01*
X30376Y109952D01*
X30415Y109959D01*
X30453Y109964D01*
X30492Y109968D01*
X30531Y109968D01*
X30571Y109968D01*
D02*
G37*
G36*
X28602D02*
X28641Y109964D01*
X28680Y109959D01*
X28719Y109952D01*
X28757Y109943D01*
X28794Y109932D01*
X28831Y109919D01*
X28867Y109904D01*
X28903Y109887D01*
X28937Y109868D01*
X28970Y109848D01*
X29003Y109826D01*
X29034Y109802D01*
X29063Y109776D01*
X29092Y109749D01*
X29119Y109721D01*
X29144Y109691D01*
X29168Y109660D01*
X29190Y109628D01*
X29211Y109595D01*
X29230Y109560D01*
X29246Y109525D01*
X29261Y109488D01*
X29274Y109452D01*
X29285Y109414D01*
X29295Y109376D01*
X29302Y109337D01*
X29307Y109299D01*
X29310Y109260D01*
X29311Y109221D01*
Y107803D01*
X29310Y107764D01*
X29307Y107725D01*
X29302Y107686D01*
X29295Y107648D01*
X29285Y107609D01*
X29274Y107572D01*
X29261Y107535D01*
X29246Y107499D01*
X29230Y107464D01*
X29211Y107429D01*
X29190Y107396D01*
X29168Y107363D01*
X29144Y107332D01*
X29119Y107303D01*
X29092Y107274D01*
X29063Y107247D01*
X29034Y107222D01*
X29003Y107198D01*
X28970Y107176D01*
X28937Y107155D01*
X28903Y107137D01*
X28867Y107120D01*
X28831Y107105D01*
X28794Y107092D01*
X28757Y107081D01*
X28719Y107071D01*
X28680Y107064D01*
X28641Y107059D01*
X28602Y107056D01*
X28563Y107055D01*
X28524Y107056D01*
X28485Y107059D01*
X28446Y107064D01*
X28407Y107071D01*
X28369Y107081D01*
X28332Y107092D01*
X28295Y107105D01*
X28259Y107120D01*
X28223Y107137D01*
X28189Y107155D01*
X28156Y107176D01*
X28123Y107198D01*
X28092Y107222D01*
X28062Y107247D01*
X28034Y107274D01*
X28007Y107303D01*
X27982Y107332D01*
X27958Y107363D01*
X27936Y107396D01*
X27915Y107429D01*
X27896Y107464D01*
X27880Y107499D01*
X27865Y107535D01*
X27852Y107572D01*
X27840Y107609D01*
X27831Y107648D01*
X27824Y107686D01*
X27819Y107725D01*
X27816Y107764D01*
X27815Y107803D01*
Y109221D01*
X27816Y109260D01*
X27819Y109299D01*
X27824Y109337D01*
X27831Y109376D01*
X27840Y109414D01*
X27852Y109452D01*
X27865Y109488D01*
X27880Y109525D01*
X27896Y109560D01*
X27915Y109595D01*
X27936Y109628D01*
X27958Y109660D01*
X27982Y109691D01*
X28007Y109721D01*
X28034Y109749D01*
X28062Y109776D01*
X28092Y109802D01*
X28123Y109826D01*
X28156Y109848D01*
X28189Y109868D01*
X28223Y109887D01*
X28259Y109904D01*
X28295Y109919D01*
X28332Y109932D01*
X28369Y109943D01*
X28407Y109952D01*
X28446Y109959D01*
X28485Y109964D01*
X28524Y109968D01*
X28563Y109968D01*
X28602Y109968D01*
D02*
G37*
G36*
X26634D02*
X26673Y109964D01*
X26711Y109959D01*
X26750Y109952D01*
X26788Y109943D01*
X26826Y109932D01*
X26863Y109919D01*
X26899Y109904D01*
X26934Y109887D01*
X26969Y109868D01*
X27002Y109848D01*
X27034Y109826D01*
X27065Y109802D01*
X27095Y109776D01*
X27123Y109749D01*
X27150Y109721D01*
X27176Y109691D01*
X27200Y109660D01*
X27222Y109628D01*
X27242Y109595D01*
X27261Y109560D01*
X27278Y109525D01*
X27293Y109488D01*
X27306Y109452D01*
X27317Y109414D01*
X27326Y109376D01*
X27333Y109337D01*
X27338Y109299D01*
X27341Y109260D01*
X27343Y109221D01*
Y107803D01*
X27341Y107764D01*
X27338Y107725D01*
X27333Y107686D01*
X27326Y107648D01*
X27317Y107609D01*
X27306Y107572D01*
X27293Y107535D01*
X27278Y107499D01*
X27261Y107464D01*
X27242Y107429D01*
X27222Y107396D01*
X27200Y107363D01*
X27176Y107332D01*
X27150Y107303D01*
X27123Y107274D01*
X27095Y107247D01*
X27065Y107222D01*
X27034Y107198D01*
X27002Y107176D01*
X26969Y107155D01*
X26934Y107137D01*
X26899Y107120D01*
X26863Y107105D01*
X26826Y107092D01*
X26788Y107081D01*
X26750Y107071D01*
X26711Y107064D01*
X26673Y107059D01*
X26634Y107056D01*
X26594Y107055D01*
X26555Y107056D01*
X26516Y107059D01*
X26478Y107064D01*
X26439Y107071D01*
X26401Y107081D01*
X26363Y107092D01*
X26326Y107105D01*
X26290Y107120D01*
X26255Y107137D01*
X26221Y107155D01*
X26187Y107176D01*
X26155Y107198D01*
X26124Y107222D01*
X26094Y107247D01*
X26066Y107274D01*
X26039Y107303D01*
X26013Y107332D01*
X25989Y107363D01*
X25967Y107396D01*
X25947Y107429D01*
X25928Y107464D01*
X25911Y107499D01*
X25896Y107535D01*
X25883Y107572D01*
X25872Y107609D01*
X25863Y107648D01*
X25856Y107686D01*
X25850Y107725D01*
X25848Y107764D01*
X25846Y107803D01*
Y109221D01*
X25848Y109260D01*
X25850Y109299D01*
X25856Y109337D01*
X25863Y109376D01*
X25872Y109414D01*
X25883Y109452D01*
X25896Y109488D01*
X25911Y109525D01*
X25928Y109560D01*
X25947Y109595D01*
X25967Y109628D01*
X25989Y109660D01*
X26013Y109691D01*
X26039Y109721D01*
X26066Y109749D01*
X26094Y109776D01*
X26124Y109802D01*
X26155Y109826D01*
X26187Y109848D01*
X26221Y109868D01*
X26255Y109887D01*
X26290Y109904D01*
X26326Y109919D01*
X26363Y109932D01*
X26401Y109943D01*
X26439Y109952D01*
X26478Y109959D01*
X26516Y109964D01*
X26555Y109968D01*
X26594Y109968D01*
X26634Y109968D01*
D02*
G37*
G36*
X41437Y105047D02*
X38386D01*
Y104575D01*
X41437D01*
Y103236D01*
X38386D01*
Y102764D01*
X41437D01*
Y101425D01*
X38386D01*
Y100953D01*
X41437D01*
Y99614D01*
X23563D01*
Y100953D01*
X26614D01*
Y101425D01*
X23563D01*
Y102764D01*
X26614D01*
Y103236D01*
X23563D01*
Y104575D01*
X26614D01*
Y105047D01*
X23563D01*
Y106386D01*
X41437D01*
Y105047D01*
D02*
G37*
G36*
X38445Y98944D02*
X38484Y98941D01*
X38522Y98936D01*
X38561Y98928D01*
X38599Y98919D01*
X38637Y98908D01*
X38674Y98895D01*
X38710Y98880D01*
X38745Y98863D01*
X38780Y98845D01*
X38813Y98824D01*
X38845Y98802D01*
X38876Y98778D01*
X38906Y98753D01*
X38934Y98726D01*
X38961Y98697D01*
X38987Y98668D01*
X39011Y98637D01*
X39033Y98604D01*
X39053Y98571D01*
X39072Y98536D01*
X39089Y98501D01*
X39104Y98465D01*
X39117Y98428D01*
X39128Y98391D01*
X39137Y98352D01*
X39144Y98314D01*
X39149Y98275D01*
X39153Y98236D01*
X39154Y98197D01*
Y96780D01*
X39153Y96740D01*
X39149Y96701D01*
X39144Y96662D01*
X39137Y96624D01*
X39128Y96586D01*
X39117Y96548D01*
X39104Y96512D01*
X39089Y96475D01*
X39072Y96440D01*
X39053Y96406D01*
X39033Y96372D01*
X39011Y96340D01*
X38987Y96309D01*
X38961Y96279D01*
X38934Y96251D01*
X38906Y96224D01*
X38876Y96198D01*
X38845Y96174D01*
X38813Y96152D01*
X38780Y96132D01*
X38745Y96113D01*
X38710Y96096D01*
X38674Y96081D01*
X38637Y96068D01*
X38599Y96057D01*
X38561Y96048D01*
X38522Y96041D01*
X38484Y96036D01*
X38445Y96033D01*
X38405Y96031D01*
X38366Y96033D01*
X38327Y96036D01*
X38289Y96041D01*
X38250Y96048D01*
X38212Y96057D01*
X38174Y96068D01*
X38137Y96081D01*
X38101Y96096D01*
X38066Y96113D01*
X38032Y96132D01*
X37998Y96152D01*
X37966Y96174D01*
X37935Y96198D01*
X37905Y96224D01*
X37877Y96251D01*
X37850Y96279D01*
X37824Y96309D01*
X37800Y96340D01*
X37778Y96372D01*
X37758Y96406D01*
X37739Y96440D01*
X37722Y96475D01*
X37707Y96512D01*
X37694Y96548D01*
X37683Y96586D01*
X37674Y96624D01*
X37667Y96662D01*
X37662Y96701D01*
X37659Y96740D01*
X37657Y96780D01*
Y98197D01*
X37659Y98236D01*
X37662Y98275D01*
X37667Y98314D01*
X37674Y98352D01*
X37683Y98391D01*
X37694Y98428D01*
X37707Y98465D01*
X37722Y98501D01*
X37739Y98536D01*
X37758Y98571D01*
X37778Y98604D01*
X37800Y98637D01*
X37824Y98668D01*
X37850Y98697D01*
X37877Y98726D01*
X37905Y98753D01*
X37935Y98778D01*
X37966Y98802D01*
X37998Y98824D01*
X38032Y98845D01*
X38066Y98863D01*
X38101Y98880D01*
X38137Y98895D01*
X38174Y98908D01*
X38212Y98919D01*
X38250Y98928D01*
X38289Y98936D01*
X38327Y98941D01*
X38366Y98944D01*
X38405Y98945D01*
X38445Y98944D01*
D02*
G37*
G36*
X36476D02*
X36515Y98941D01*
X36554Y98936D01*
X36593Y98928D01*
X36631Y98919D01*
X36668Y98908D01*
X36705Y98895D01*
X36741Y98880D01*
X36777Y98863D01*
X36811Y98845D01*
X36844Y98824D01*
X36877Y98802D01*
X36908Y98778D01*
X36937Y98753D01*
X36966Y98726D01*
X36993Y98697D01*
X37018Y98668D01*
X37042Y98637D01*
X37064Y98604D01*
X37085Y98571D01*
X37104Y98536D01*
X37120Y98501D01*
X37135Y98465D01*
X37148Y98428D01*
X37160Y98391D01*
X37169Y98352D01*
X37176Y98314D01*
X37181Y98275D01*
X37184Y98236D01*
X37185Y98197D01*
Y96780D01*
X37184Y96740D01*
X37181Y96701D01*
X37176Y96662D01*
X37169Y96624D01*
X37160Y96586D01*
X37148Y96548D01*
X37135Y96512D01*
X37120Y96475D01*
X37104Y96440D01*
X37085Y96406D01*
X37064Y96372D01*
X37042Y96340D01*
X37018Y96309D01*
X36993Y96279D01*
X36966Y96251D01*
X36937Y96224D01*
X36908Y96198D01*
X36877Y96174D01*
X36844Y96152D01*
X36811Y96132D01*
X36777Y96113D01*
X36741Y96096D01*
X36705Y96081D01*
X36668Y96068D01*
X36631Y96057D01*
X36593Y96048D01*
X36554Y96041D01*
X36515Y96036D01*
X36476Y96033D01*
X36437Y96031D01*
X36398Y96033D01*
X36359Y96036D01*
X36320Y96041D01*
X36281Y96048D01*
X36243Y96057D01*
X36206Y96068D01*
X36169Y96081D01*
X36133Y96096D01*
X36097Y96113D01*
X36063Y96132D01*
X36030Y96152D01*
X35997Y96174D01*
X35966Y96198D01*
X35936Y96224D01*
X35908Y96251D01*
X35881Y96279D01*
X35856Y96309D01*
X35832Y96340D01*
X35810Y96372D01*
X35789Y96406D01*
X35770Y96440D01*
X35754Y96475D01*
X35739Y96512D01*
X35726Y96548D01*
X35715Y96586D01*
X35705Y96624D01*
X35698Y96662D01*
X35693Y96701D01*
X35690Y96740D01*
X35689Y96780D01*
Y98197D01*
X35690Y98236D01*
X35693Y98275D01*
X35698Y98314D01*
X35705Y98352D01*
X35715Y98391D01*
X35726Y98428D01*
X35739Y98465D01*
X35754Y98501D01*
X35770Y98536D01*
X35789Y98571D01*
X35810Y98604D01*
X35832Y98637D01*
X35856Y98668D01*
X35881Y98697D01*
X35908Y98726D01*
X35936Y98753D01*
X35966Y98778D01*
X35997Y98802D01*
X36030Y98824D01*
X36063Y98845D01*
X36097Y98863D01*
X36133Y98880D01*
X36169Y98895D01*
X36206Y98908D01*
X36243Y98919D01*
X36281Y98928D01*
X36320Y98936D01*
X36359Y98941D01*
X36398Y98944D01*
X36437Y98945D01*
X36476Y98944D01*
D02*
G37*
G36*
X34508D02*
X34547Y98941D01*
X34585Y98936D01*
X34624Y98928D01*
X34662Y98919D01*
X34700Y98908D01*
X34737Y98895D01*
X34773Y98880D01*
X34808Y98863D01*
X34843Y98845D01*
X34876Y98824D01*
X34908Y98802D01*
X34939Y98778D01*
X34969Y98753D01*
X34997Y98726D01*
X35024Y98697D01*
X35050Y98668D01*
X35074Y98637D01*
X35096Y98604D01*
X35116Y98571D01*
X35135Y98536D01*
X35152Y98501D01*
X35167Y98465D01*
X35180Y98428D01*
X35191Y98391D01*
X35200Y98352D01*
X35207Y98314D01*
X35212Y98275D01*
X35215Y98236D01*
X35217Y98197D01*
Y96780D01*
X35215Y96740D01*
X35212Y96701D01*
X35207Y96662D01*
X35200Y96624D01*
X35191Y96586D01*
X35180Y96548D01*
X35167Y96512D01*
X35152Y96475D01*
X35135Y96440D01*
X35116Y96406D01*
X35096Y96372D01*
X35074Y96340D01*
X35050Y96309D01*
X35024Y96279D01*
X34997Y96251D01*
X34969Y96224D01*
X34939Y96198D01*
X34908Y96174D01*
X34876Y96152D01*
X34843Y96132D01*
X34808Y96113D01*
X34773Y96096D01*
X34737Y96081D01*
X34700Y96068D01*
X34662Y96057D01*
X34624Y96048D01*
X34585Y96041D01*
X34547Y96036D01*
X34508Y96033D01*
X34468Y96031D01*
X34429Y96033D01*
X34390Y96036D01*
X34352Y96041D01*
X34313Y96048D01*
X34275Y96057D01*
X34237Y96068D01*
X34200Y96081D01*
X34164Y96096D01*
X34129Y96113D01*
X34095Y96132D01*
X34061Y96152D01*
X34029Y96174D01*
X33998Y96198D01*
X33968Y96224D01*
X33940Y96251D01*
X33913Y96279D01*
X33887Y96309D01*
X33863Y96340D01*
X33841Y96372D01*
X33821Y96406D01*
X33802Y96440D01*
X33785Y96475D01*
X33770Y96512D01*
X33757Y96548D01*
X33746Y96586D01*
X33737Y96624D01*
X33730Y96662D01*
X33725Y96701D01*
X33722Y96740D01*
X33720Y96780D01*
Y98197D01*
X33722Y98236D01*
X33725Y98275D01*
X33730Y98314D01*
X33737Y98352D01*
X33746Y98391D01*
X33757Y98428D01*
X33770Y98465D01*
X33785Y98501D01*
X33802Y98536D01*
X33821Y98571D01*
X33841Y98604D01*
X33863Y98637D01*
X33887Y98668D01*
X33913Y98697D01*
X33940Y98726D01*
X33968Y98753D01*
X33998Y98778D01*
X34029Y98802D01*
X34061Y98824D01*
X34095Y98845D01*
X34129Y98863D01*
X34164Y98880D01*
X34200Y98895D01*
X34237Y98908D01*
X34275Y98919D01*
X34313Y98928D01*
X34352Y98936D01*
X34390Y98941D01*
X34429Y98944D01*
X34468Y98945D01*
X34508Y98944D01*
D02*
G37*
G36*
X32539D02*
X32578Y98941D01*
X32617Y98936D01*
X32656Y98928D01*
X32694Y98919D01*
X32731Y98908D01*
X32768Y98895D01*
X32804Y98880D01*
X32840Y98863D01*
X32874Y98845D01*
X32907Y98824D01*
X32940Y98802D01*
X32971Y98778D01*
X33000Y98753D01*
X33029Y98726D01*
X33056Y98697D01*
X33081Y98668D01*
X33105Y98637D01*
X33127Y98604D01*
X33148Y98571D01*
X33167Y98536D01*
X33183Y98501D01*
X33198Y98465D01*
X33211Y98428D01*
X33222Y98391D01*
X33232Y98352D01*
X33239Y98314D01*
X33244Y98275D01*
X33247Y98236D01*
X33248Y98197D01*
Y96780D01*
X33247Y96740D01*
X33244Y96701D01*
X33239Y96662D01*
X33232Y96624D01*
X33222Y96586D01*
X33211Y96548D01*
X33198Y96512D01*
X33183Y96475D01*
X33167Y96440D01*
X33148Y96406D01*
X33127Y96372D01*
X33105Y96340D01*
X33081Y96309D01*
X33056Y96279D01*
X33029Y96251D01*
X33000Y96224D01*
X32971Y96198D01*
X32940Y96174D01*
X32907Y96152D01*
X32874Y96132D01*
X32840Y96113D01*
X32804Y96096D01*
X32768Y96081D01*
X32731Y96068D01*
X32694Y96057D01*
X32656Y96048D01*
X32617Y96041D01*
X32578Y96036D01*
X32539Y96033D01*
X32500Y96031D01*
X32461Y96033D01*
X32422Y96036D01*
X32383Y96041D01*
X32344Y96048D01*
X32306Y96057D01*
X32269Y96068D01*
X32232Y96081D01*
X32196Y96096D01*
X32160Y96113D01*
X32126Y96132D01*
X32093Y96152D01*
X32060Y96174D01*
X32029Y96198D01*
X31999Y96224D01*
X31971Y96251D01*
X31944Y96279D01*
X31919Y96309D01*
X31895Y96340D01*
X31873Y96372D01*
X31852Y96406D01*
X31833Y96440D01*
X31817Y96475D01*
X31802Y96512D01*
X31789Y96548D01*
X31778Y96586D01*
X31768Y96624D01*
X31761Y96662D01*
X31756Y96701D01*
X31753Y96740D01*
X31752Y96780D01*
Y98197D01*
X31753Y98236D01*
X31756Y98275D01*
X31761Y98314D01*
X31768Y98352D01*
X31778Y98391D01*
X31789Y98428D01*
X31802Y98465D01*
X31817Y98501D01*
X31833Y98536D01*
X31852Y98571D01*
X31873Y98604D01*
X31895Y98637D01*
X31919Y98668D01*
X31944Y98697D01*
X31971Y98726D01*
X31999Y98753D01*
X32029Y98778D01*
X32060Y98802D01*
X32093Y98824D01*
X32126Y98845D01*
X32160Y98863D01*
X32196Y98880D01*
X32232Y98895D01*
X32269Y98908D01*
X32306Y98919D01*
X32344Y98928D01*
X32383Y98936D01*
X32422Y98941D01*
X32461Y98944D01*
X32500Y98945D01*
X32539Y98944D01*
D02*
G37*
G36*
X30571D02*
X30610Y98941D01*
X30648Y98936D01*
X30687Y98928D01*
X30725Y98919D01*
X30763Y98908D01*
X30800Y98895D01*
X30836Y98880D01*
X30871Y98863D01*
X30906Y98845D01*
X30939Y98824D01*
X30971Y98802D01*
X31002Y98778D01*
X31032Y98753D01*
X31060Y98726D01*
X31087Y98697D01*
X31113Y98668D01*
X31137Y98637D01*
X31159Y98604D01*
X31179Y98571D01*
X31198Y98536D01*
X31215Y98501D01*
X31230Y98465D01*
X31243Y98428D01*
X31254Y98391D01*
X31263Y98352D01*
X31270Y98314D01*
X31275Y98275D01*
X31278Y98236D01*
X31280Y98197D01*
Y96780D01*
X31278Y96740D01*
X31275Y96701D01*
X31270Y96662D01*
X31263Y96624D01*
X31254Y96586D01*
X31243Y96548D01*
X31230Y96512D01*
X31215Y96475D01*
X31198Y96440D01*
X31179Y96406D01*
X31159Y96372D01*
X31137Y96340D01*
X31113Y96309D01*
X31087Y96279D01*
X31060Y96251D01*
X31032Y96224D01*
X31002Y96198D01*
X30971Y96174D01*
X30939Y96152D01*
X30906Y96132D01*
X30871Y96113D01*
X30836Y96096D01*
X30800Y96081D01*
X30763Y96068D01*
X30725Y96057D01*
X30687Y96048D01*
X30648Y96041D01*
X30610Y96036D01*
X30571Y96033D01*
X30531Y96031D01*
X30492Y96033D01*
X30453Y96036D01*
X30415Y96041D01*
X30376Y96048D01*
X30338Y96057D01*
X30300Y96068D01*
X30263Y96081D01*
X30227Y96096D01*
X30192Y96113D01*
X30158Y96132D01*
X30124Y96152D01*
X30092Y96174D01*
X30061Y96198D01*
X30031Y96224D01*
X30003Y96251D01*
X29976Y96279D01*
X29950Y96309D01*
X29926Y96340D01*
X29904Y96372D01*
X29884Y96406D01*
X29865Y96440D01*
X29848Y96475D01*
X29833Y96512D01*
X29820Y96548D01*
X29809Y96586D01*
X29800Y96624D01*
X29793Y96662D01*
X29788Y96701D01*
X29785Y96740D01*
X29783Y96780D01*
Y98197D01*
X29785Y98236D01*
X29788Y98275D01*
X29793Y98314D01*
X29800Y98352D01*
X29809Y98391D01*
X29820Y98428D01*
X29833Y98465D01*
X29848Y98501D01*
X29865Y98536D01*
X29884Y98571D01*
X29904Y98604D01*
X29926Y98637D01*
X29950Y98668D01*
X29976Y98697D01*
X30003Y98726D01*
X30031Y98753D01*
X30061Y98778D01*
X30092Y98802D01*
X30124Y98824D01*
X30158Y98845D01*
X30192Y98863D01*
X30227Y98880D01*
X30263Y98895D01*
X30300Y98908D01*
X30338Y98919D01*
X30376Y98928D01*
X30415Y98936D01*
X30453Y98941D01*
X30492Y98944D01*
X30531Y98945D01*
X30571Y98944D01*
D02*
G37*
G36*
X28602D02*
X28641Y98941D01*
X28680Y98936D01*
X28719Y98928D01*
X28757Y98919D01*
X28794Y98908D01*
X28831Y98895D01*
X28867Y98880D01*
X28903Y98863D01*
X28937Y98845D01*
X28970Y98824D01*
X29003Y98802D01*
X29034Y98778D01*
X29063Y98753D01*
X29092Y98726D01*
X29119Y98697D01*
X29144Y98668D01*
X29168Y98637D01*
X29190Y98604D01*
X29211Y98571D01*
X29230Y98536D01*
X29246Y98501D01*
X29261Y98465D01*
X29274Y98428D01*
X29285Y98391D01*
X29295Y98352D01*
X29302Y98314D01*
X29307Y98275D01*
X29310Y98236D01*
X29311Y98197D01*
Y96780D01*
X29310Y96740D01*
X29307Y96701D01*
X29302Y96662D01*
X29295Y96624D01*
X29285Y96586D01*
X29274Y96548D01*
X29261Y96512D01*
X29246Y96475D01*
X29230Y96440D01*
X29211Y96406D01*
X29190Y96372D01*
X29168Y96340D01*
X29144Y96309D01*
X29119Y96279D01*
X29092Y96251D01*
X29063Y96224D01*
X29034Y96198D01*
X29003Y96174D01*
X28970Y96152D01*
X28937Y96132D01*
X28903Y96113D01*
X28867Y96096D01*
X28831Y96081D01*
X28794Y96068D01*
X28757Y96057D01*
X28719Y96048D01*
X28680Y96041D01*
X28641Y96036D01*
X28602Y96033D01*
X28563Y96031D01*
X28524Y96033D01*
X28485Y96036D01*
X28446Y96041D01*
X28407Y96048D01*
X28369Y96057D01*
X28332Y96068D01*
X28295Y96081D01*
X28259Y96096D01*
X28223Y96113D01*
X28189Y96132D01*
X28156Y96152D01*
X28123Y96174D01*
X28092Y96198D01*
X28062Y96224D01*
X28034Y96251D01*
X28007Y96279D01*
X27982Y96309D01*
X27958Y96340D01*
X27936Y96372D01*
X27915Y96406D01*
X27896Y96440D01*
X27880Y96475D01*
X27865Y96512D01*
X27852Y96548D01*
X27840Y96586D01*
X27831Y96624D01*
X27824Y96662D01*
X27819Y96701D01*
X27816Y96740D01*
X27815Y96780D01*
Y98197D01*
X27816Y98236D01*
X27819Y98275D01*
X27824Y98314D01*
X27831Y98352D01*
X27840Y98391D01*
X27852Y98428D01*
X27865Y98465D01*
X27880Y98501D01*
X27896Y98536D01*
X27915Y98571D01*
X27936Y98604D01*
X27958Y98637D01*
X27982Y98668D01*
X28007Y98697D01*
X28034Y98726D01*
X28062Y98753D01*
X28092Y98778D01*
X28123Y98802D01*
X28156Y98824D01*
X28189Y98845D01*
X28223Y98863D01*
X28259Y98880D01*
X28295Y98895D01*
X28332Y98908D01*
X28369Y98919D01*
X28407Y98928D01*
X28446Y98936D01*
X28485Y98941D01*
X28524Y98944D01*
X28563Y98945D01*
X28602Y98944D01*
D02*
G37*
G36*
X26634D02*
X26673Y98941D01*
X26711Y98936D01*
X26750Y98928D01*
X26788Y98919D01*
X26826Y98908D01*
X26863Y98895D01*
X26899Y98880D01*
X26934Y98863D01*
X26969Y98845D01*
X27002Y98824D01*
X27034Y98802D01*
X27065Y98778D01*
X27095Y98753D01*
X27123Y98726D01*
X27150Y98697D01*
X27176Y98668D01*
X27200Y98637D01*
X27222Y98604D01*
X27242Y98571D01*
X27261Y98536D01*
X27278Y98501D01*
X27293Y98465D01*
X27306Y98428D01*
X27317Y98391D01*
X27326Y98352D01*
X27333Y98314D01*
X27338Y98275D01*
X27341Y98236D01*
X27343Y98197D01*
Y96780D01*
X27341Y96740D01*
X27338Y96701D01*
X27333Y96662D01*
X27326Y96624D01*
X27317Y96586D01*
X27306Y96548D01*
X27293Y96512D01*
X27278Y96475D01*
X27261Y96440D01*
X27242Y96406D01*
X27222Y96372D01*
X27200Y96340D01*
X27176Y96309D01*
X27150Y96279D01*
X27123Y96251D01*
X27095Y96224D01*
X27065Y96198D01*
X27034Y96174D01*
X27002Y96152D01*
X26969Y96132D01*
X26934Y96113D01*
X26899Y96096D01*
X26863Y96081D01*
X26826Y96068D01*
X26788Y96057D01*
X26750Y96048D01*
X26711Y96041D01*
X26673Y96036D01*
X26634Y96033D01*
X26594Y96031D01*
X26555Y96033D01*
X26516Y96036D01*
X26478Y96041D01*
X26439Y96048D01*
X26401Y96057D01*
X26363Y96068D01*
X26326Y96081D01*
X26290Y96096D01*
X26255Y96113D01*
X26221Y96132D01*
X26187Y96152D01*
X26155Y96174D01*
X26124Y96198D01*
X26094Y96224D01*
X26066Y96251D01*
X26039Y96279D01*
X26013Y96309D01*
X25989Y96340D01*
X25967Y96372D01*
X25947Y96406D01*
X25928Y96440D01*
X25911Y96475D01*
X25896Y96512D01*
X25883Y96548D01*
X25872Y96586D01*
X25863Y96624D01*
X25856Y96662D01*
X25850Y96701D01*
X25848Y96740D01*
X25846Y96780D01*
Y98197D01*
X25848Y98236D01*
X25850Y98275D01*
X25856Y98314D01*
X25863Y98352D01*
X25872Y98391D01*
X25883Y98428D01*
X25896Y98465D01*
X25911Y98501D01*
X25928Y98536D01*
X25947Y98571D01*
X25967Y98604D01*
X25989Y98637D01*
X26013Y98668D01*
X26039Y98697D01*
X26066Y98726D01*
X26094Y98753D01*
X26124Y98778D01*
X26155Y98802D01*
X26187Y98824D01*
X26221Y98845D01*
X26255Y98863D01*
X26290Y98880D01*
X26326Y98895D01*
X26363Y98908D01*
X26401Y98919D01*
X26439Y98928D01*
X26478Y98936D01*
X26516Y98941D01*
X26555Y98944D01*
X26594Y98945D01*
X26634Y98944D01*
D02*
G37*
D19*
X47500Y76256D02*
D03*
Y70744D02*
D03*
X42500Y49256D02*
D03*
Y43744D02*
D03*
D20*
Y58815D02*
D03*
Y60587D02*
D03*
Y57043D02*
D03*
Y62358D02*
D03*
Y55272D02*
D03*
Y53500D02*
D03*
X31476Y60587D02*
D03*
Y62358D02*
D03*
Y58815D02*
D03*
Y53500D02*
D03*
Y57043D02*
D03*
Y55272D02*
D03*
D22*
X38432Y73500D02*
D03*
X29568D02*
D03*
X59432Y50500D02*
D03*
X50568D02*
D03*
D24*
X31450Y11515D02*
D03*
Y13485D02*
D03*
Y15453D02*
D03*
Y9546D02*
D03*
X23550Y11515D02*
D03*
Y13485D02*
D03*
Y15453D02*
D03*
Y9546D02*
D03*
D25*
X27500Y12500D02*
D03*
D26*
X55650Y-32358D02*
D03*
Y-14642D02*
D03*
X24350D02*
D03*
Y-32358D02*
D03*
D28*
X58535Y63500D02*
D03*
X50465D02*
D03*
D29*
X9800Y47750D02*
D03*
Y40250D02*
D03*
X2200Y44000D02*
D03*
X-11200Y47750D02*
D03*
Y40250D02*
D03*
X-18800Y44000D02*
D03*
D30*
X-2595Y73791D02*
D03*
X-4563D02*
D03*
X-6532D02*
D03*
X-8500D02*
D03*
X-10469D02*
D03*
X-12437D02*
D03*
X-14405D02*
D03*
Y55209D02*
D03*
X-12437D02*
D03*
X-10469D02*
D03*
X-8500D02*
D03*
X-6532D02*
D03*
X-4563D02*
D03*
X-2595D02*
D03*
D31*
X-17791Y70406D02*
D03*
Y68437D02*
D03*
Y66469D02*
D03*
Y64500D02*
D03*
Y62532D02*
D03*
Y60563D02*
D03*
Y58595D02*
D03*
X791D02*
D03*
Y60563D02*
D03*
Y62532D02*
D03*
Y64500D02*
D03*
Y66469D02*
D03*
Y68437D02*
D03*
Y70406D02*
D03*
D33*
X-19642Y-8350D02*
D03*
X-37358D02*
D03*
X-19642Y-39650D02*
D03*
X-37358D02*
D03*
D34*
X-10712Y18339D02*
D03*
Y13220D02*
D03*
Y15779D02*
D03*
Y10661D02*
D03*
X-25288D02*
D03*
Y13220D02*
D03*
Y15779D02*
D03*
D35*
X-19279Y21788D02*
D03*
X-16721D02*
D03*
X-21839D02*
D03*
X-14161D02*
D03*
X-16721Y7212D02*
D03*
X-19279D02*
D03*
X-14161D02*
D03*
X-21839D02*
D03*
D36*
X-25288Y18339D02*
D03*
D43*
X26256Y57500D02*
D03*
X20744D02*
D03*
D48*
X56500Y96700D02*
D03*
Y106300D02*
D03*
D50*
X-4000Y12799D02*
D03*
Y6500D02*
D03*
X2000Y12799D02*
D03*
Y6500D02*
D03*
X8000Y12799D02*
D03*
Y6500D02*
D03*
X17000Y16299D02*
D03*
Y10000D02*
D03*
Y105799D02*
D03*
Y99500D02*
D03*
X42000Y22799D02*
D03*
Y16500D02*
D03*
X2000Y-24201D02*
D03*
Y-30500D02*
D03*
X-3000Y-24201D02*
D03*
Y-30500D02*
D03*
X-8000Y-24201D02*
D03*
Y-30500D02*
D03*
X-47000Y83000D02*
D03*
Y76701D02*
D03*
X36500Y22799D02*
D03*
Y16500D02*
D03*
X17000Y500D02*
D03*
Y-5799D02*
D03*
X-8000Y-36500D02*
D03*
Y-42799D02*
D03*
X-33500Y17799D02*
D03*
Y11500D02*
D03*
X15000Y-31701D02*
D03*
Y-38000D02*
D03*
X39000Y90500D02*
D03*
Y84201D02*
D03*
X44000Y90500D02*
D03*
Y84201D02*
D03*
X-28000Y92299D02*
D03*
Y86000D02*
D03*
X-24000Y67000D02*
D03*
Y73299D02*
D03*
X-29000Y70299D02*
D03*
Y64000D02*
D03*
X2000Y31500D02*
D03*
Y25201D02*
D03*
X41000Y-56701D02*
D03*
Y-63000D02*
D03*
Y-108201D02*
D03*
Y-114500D02*
D03*
X46000Y-108201D02*
D03*
Y-114500D02*
D03*
X15000Y-18701D02*
D03*
Y-25000D02*
D03*
X34000Y90500D02*
D03*
Y84201D02*
D03*
X24000Y90500D02*
D03*
Y84201D02*
D03*
X-43500Y-54500D02*
D03*
Y-60799D02*
D03*
X-23000Y92299D02*
D03*
Y86000D02*
D03*
X-3000Y-36500D02*
D03*
Y-42799D02*
D03*
X-15500Y80000D02*
D03*
Y86299D02*
D03*
X2000Y-36500D02*
D03*
Y-42799D02*
D03*
X29000Y89500D02*
D03*
Y83201D02*
D03*
D51*
X-4000Y500D02*
D03*
X2299D02*
D03*
X-5000Y19500D02*
D03*
X1299D02*
D03*
X8000Y23500D02*
D03*
X14299D02*
D03*
X-27299Y79000D02*
D03*
X-21000D02*
D03*
X10000Y72000D02*
D03*
X16299D02*
D03*
X10000Y67000D02*
D03*
X16299D02*
D03*
X22201Y114500D02*
D03*
X28500D02*
D03*
X35000Y119500D02*
D03*
X41299D02*
D03*
X35000Y114500D02*
D03*
X41299D02*
D03*
X-23299Y27500D02*
D03*
X-17000D02*
D03*
X23701Y5000D02*
D03*
X30000D02*
D03*
X23701Y0D02*
D03*
X30000D02*
D03*
X-51799Y96500D02*
D03*
X-45500D02*
D03*
X-23299Y32500D02*
D03*
X-17000D02*
D03*
X41000Y-46000D02*
D03*
X47299D02*
D03*
X-40299Y78500D02*
D03*
X-34000D02*
D03*
X54000Y-84500D02*
D03*
X60299D02*
D03*
X41701D02*
D03*
X48000D02*
D03*
X-11299Y32500D02*
D03*
X-5000D02*
D03*
X-11000Y27500D02*
D03*
X-4701D02*
D03*
X8000Y28500D02*
D03*
X14299D02*
D03*
X57000Y-47500D02*
D03*
X63299D02*
D03*
D52*
X36988Y57929D02*
D03*
D53*
X34453Y48000D02*
D03*
X28547D02*
D03*
D54*
X54740Y9913D02*
D03*
Y-913D02*
D03*
X47260Y9913D02*
D03*
X51000D02*
D03*
Y-913D02*
D03*
X47260D02*
D03*
D55*
X-8500Y64500D02*
D03*
D56*
X58925Y-58138D02*
D03*
Y-56563D02*
D03*
Y-61287D02*
D03*
Y-62862D02*
D03*
Y-59713D02*
D03*
Y-64437D02*
D03*
X46075Y-62862D02*
D03*
Y-56563D02*
D03*
Y-59713D02*
D03*
Y-61287D02*
D03*
Y-58138D02*
D03*
Y-64437D02*
D03*
D57*
X53287Y-54075D02*
D03*
X54862D02*
D03*
X51713D02*
D03*
X56437D02*
D03*
X53287Y-66925D02*
D03*
X51713D02*
D03*
X56437D02*
D03*
X54862D02*
D03*
X48563Y-54075D02*
D03*
X50138D02*
D03*
X48563Y-66925D02*
D03*
X50138D02*
D03*
D58*
X52500Y-60500D02*
D03*
D59*
X34095Y-54469D02*
D03*
Y-59469D02*
D03*
Y-79469D02*
D03*
Y-74468D02*
D03*
Y-84469D02*
D03*
Y-64468D02*
D03*
Y-69468D02*
D03*
Y-109468D02*
D03*
Y-104469D02*
D03*
Y-94468D02*
D03*
Y-99468D02*
D03*
Y-114469D02*
D03*
Y-119468D02*
D03*
Y-89468D02*
D03*
X-34803Y-64468D02*
D03*
Y-69468D02*
D03*
Y-54469D02*
D03*
Y-59469D02*
D03*
Y-84469D02*
D03*
Y-89468D02*
D03*
Y-74468D02*
D03*
Y-79469D02*
D03*
Y-119468D02*
D03*
Y-104469D02*
D03*
Y-99468D02*
D03*
Y-94468D02*
D03*
Y-109468D02*
D03*
Y-114469D02*
D03*
D60*
X27146Y-49547D02*
D03*
X17146D02*
D03*
X12146D02*
D03*
X22146D02*
D03*
X2146D02*
D03*
X7146D02*
D03*
X-17854D02*
D03*
X-22854D02*
D03*
X-12854D02*
D03*
X-27854D02*
D03*
X-7854D02*
D03*
X-2854D02*
D03*
D61*
X5551Y-83563D02*
D03*
X11063D02*
D03*
X39D02*
D03*
Y-89075D02*
D03*
X11063D02*
D03*
X5551D02*
D03*
X39Y-94587D02*
D03*
X5551D02*
D03*
X11063D02*
D03*
D62*
X5626Y86500D02*
D03*
Y90240D02*
D03*
Y82760D02*
D03*
X-3626D02*
D03*
Y90240D02*
D03*
Y86500D02*
D03*
D63*
X-12953Y98779D02*
D03*
X-9016D02*
D03*
X-10984D02*
D03*
X-5079D02*
D03*
X-7047D02*
D03*
X-3110D02*
D03*
X-16890D02*
D03*
X-14921D02*
D03*
D64*
X2598D02*
D03*
X-551D02*
D03*
X-19449D02*
D03*
X-22598D02*
D03*
D65*
X-33300Y95600D02*
D03*
Y85400D02*
D03*
X-40700Y95600D02*
D03*
X-37000D02*
D03*
X-40700Y85400D02*
D03*
D66*
X-35500Y110000D02*
D03*
X-50500D02*
D03*
D67*
X-56000Y-3000D02*
D03*
Y-13000D02*
D03*
Y7000D02*
D03*
Y-43000D02*
D03*
Y-33000D02*
D03*
Y17000D02*
D03*
Y57000D02*
D03*
Y-93000D02*
D03*
Y-83000D02*
D03*
Y-63000D02*
D03*
Y-53000D02*
D03*
Y-73000D02*
D03*
Y27000D02*
D03*
Y37000D02*
D03*
Y77000D02*
D03*
Y87000D02*
D03*
Y47000D02*
D03*
Y67000D02*
D03*
Y-23000D02*
D03*
D68*
Y-103000D02*
D03*
D69*
X7008Y117500D02*
D03*
X-27008D02*
D03*
D70*
X7008Y101043D02*
D03*
X-27008D02*
D03*
D71*
X1378Y104512D02*
D03*
X-21378D02*
D03*
D72*
X51000Y15000D02*
D03*
X30000Y-8500D02*
D03*
X29358Y-14642D02*
D03*
X-27500Y32500D02*
D03*
X-23400Y36400D02*
D03*
X-43000Y121319D02*
D03*
X-25500Y7500D02*
D03*
X44500Y103000D02*
D03*
X-18477Y17987D02*
D03*
X63500Y-43000D02*
D03*
X37000D02*
D03*
X-18293Y-34307D02*
D03*
X-24144Y-36429D02*
D03*
X51140Y-20106D02*
D03*
X19500Y5500D02*
D03*
X48660Y84000D02*
D03*
X43502Y95504D02*
D03*
X-37000Y90500D02*
D03*
X-12500Y104000D02*
D03*
X-7500D02*
D03*
X-4849Y78849D02*
D03*
X28500Y94000D02*
D03*
X22728Y95746D02*
D03*
X-43000Y113000D02*
D03*
Y117097D02*
D03*
X-43091Y109226D02*
D03*
X-43000Y105840D02*
D03*
Y102500D02*
D03*
X-58006Y109778D02*
D03*
X-57944Y114071D02*
D03*
X-58000Y106000D02*
D03*
X-30196Y-43549D02*
D03*
X-32500Y-38500D02*
D03*
X11000Y-99660D02*
D03*
X5500D02*
D03*
X39Y-99620D02*
D03*
X60000Y-80500D02*
D03*
X45000Y-52000D02*
D03*
X27881Y-56119D02*
D03*
X24500Y-26166D02*
D03*
X23998Y-20448D02*
D03*
X56002D02*
D03*
X29500Y23000D02*
D03*
X23500Y19500D02*
D03*
X32116Y26000D02*
D03*
X-15500Y91000D02*
D03*
X46000Y-103000D02*
D03*
X41000D02*
D03*
X-40500Y74500D02*
D03*
X18224Y111181D02*
D03*
X-33500Y63000D02*
D03*
X-29000Y59000D02*
D03*
X42000Y27500D02*
D03*
X24325Y53058D02*
D03*
X28000Y53000D02*
D03*
X17000Y-10000D02*
D03*
X27000Y63000D02*
D03*
X18500Y23500D02*
D03*
Y28000D02*
D03*
X20744Y53369D02*
D03*
X5500Y64500D02*
D03*
X5583Y68922D02*
D03*
X-28000Y75000D02*
D03*
X-15500Y0D02*
D03*
X44000Y-6000D02*
D03*
X43000Y-68500D02*
D03*
X40697Y-90697D02*
D03*
X44000Y-79500D02*
D03*
X48000Y-6000D02*
D03*
X52000D02*
D03*
X-47000Y-12000D02*
D03*
X-33500Y-23000D02*
D03*
X-8000Y-20000D02*
D03*
X-20029Y-13272D02*
D03*
X-40000Y-114000D02*
D03*
X-40031Y-109468D02*
D03*
X-41500Y-89500D02*
D03*
Y-94000D02*
D03*
X-3000Y-20000D02*
D03*
X2000D02*
D03*
X-24313Y-8988D02*
D03*
X-20000Y2000D02*
D03*
X29658Y-64500D02*
D03*
X18796Y-55796D02*
D03*
X15500Y-83500D02*
D03*
X27500Y-92500D02*
D03*
Y-97500D02*
D03*
Y-102500D02*
D03*
Y-107500D02*
D03*
X15500Y35000D02*
D03*
X38884Y49256D02*
D03*
X16902Y85000D02*
D03*
X38884Y64500D02*
D03*
X42500Y40244D02*
D03*
X20500Y80000D02*
D03*
X58000Y-71500D02*
D03*
X48500D02*
D03*
X51500Y-48000D02*
D03*
X16651Y-13849D02*
D03*
X51500Y77000D02*
D03*
X48500Y80000D02*
D03*
X500Y78384D02*
D03*
X-1901Y48401D02*
D03*
X60299Y-88299D02*
D03*
X-8000Y6500D02*
D03*
X-43500Y-65000D02*
D03*
X16000Y91500D02*
D03*
X60186Y58814D02*
D03*
X58500Y69000D02*
D03*
X45500Y115000D02*
D03*
Y119500D02*
D03*
X21500Y103000D02*
D03*
Y110500D02*
D03*
X20744Y61256D02*
D03*
X-24500Y44000D02*
D03*
X-43000Y10000D02*
D03*
Y20000D02*
D03*
X-3626Y93626D02*
D03*
X-28500Y-119500D02*
D03*
X27500D02*
D03*
X15500Y-94500D02*
D03*
Y-89000D02*
D03*
X11000Y-79500D02*
D03*
X5500D02*
D03*
X0D02*
D03*
X-5000Y-83500D02*
D03*
Y-89000D02*
D03*
Y-94500D02*
D03*
X-23500Y-104500D02*
D03*
X-27500Y-99500D02*
D03*
X10500Y86500D02*
D03*
Y90000D02*
D03*
X641Y83509D02*
D03*
X-37000Y82500D02*
D03*
X-47000Y72000D02*
D03*
M02*
