G04*
G04 #@! TF.GenerationSoftware,Altium Limited,Altium Designer,25.2.1 (25)*
G04*
G04 Layer_Physical_Order=3*
G04 Layer_Color=16440176*
%FSLAX25Y25*%
%MOIN*%
G70*
G04*
G04 #@! TF.SameCoordinates,6E7B483F-BFF1-4FB3-8246-CE29AB42D2EF*
G04*
G04*
G04 #@! TF.FilePolarity,Positive*
G04*
G01*
G75*
%ADD74C,0.00700*%
%ADD75C,0.01000*%
%ADD77C,0.06299*%
G04:AMPARAMS|DCode=78|XSize=62.99mil|YSize=62.99mil|CornerRadius=15.75mil|HoleSize=0mil|Usage=FLASHONLY|Rotation=90.000|XOffset=0mil|YOffset=0mil|HoleType=Round|Shape=RoundedRectangle|*
%AMROUNDEDRECTD78*
21,1,0.06299,0.03150,0,0,90.0*
21,1,0.03150,0.06299,0,0,90.0*
1,1,0.03150,0.01575,0.01575*
1,1,0.03150,0.01575,-0.01575*
1,1,0.03150,-0.01575,-0.01575*
1,1,0.03150,-0.01575,0.01575*
%
%ADD78ROUNDEDRECTD78*%
G04:AMPARAMS|DCode=79|XSize=70.87mil|YSize=39.37mil|CornerRadius=9.84mil|HoleSize=0mil|Usage=FLASHONLY|Rotation=270.000|XOffset=0mil|YOffset=0mil|HoleType=Round|Shape=RoundedRectangle|*
%AMROUNDEDRECTD79*
21,1,0.07087,0.01968,0,0,270.0*
21,1,0.05118,0.03937,0,0,270.0*
1,1,0.01968,-0.00984,-0.02559*
1,1,0.01968,-0.00984,0.02559*
1,1,0.01968,0.00984,0.02559*
1,1,0.01968,0.00984,-0.02559*
%
%ADD79ROUNDEDRECTD79*%
%ADD80O,0.03937X0.08268*%
%ADD81C,0.02559*%
%ADD82C,0.01968*%
G36*
X66296Y111001D02*
Y-105501D01*
X49297Y-122500D01*
X-49797D01*
X-66296Y-106001D01*
Y111001D01*
X-51001Y126296D01*
X51001D01*
X66296Y111001D01*
D02*
G37*
%LPC*%
G36*
X8008Y122079D02*
Y118500D01*
X10015D01*
Y120059D01*
X9861Y120833D01*
X9423Y121490D01*
X8766Y121928D01*
X8008Y122079D01*
D02*
G37*
G36*
X6008D02*
X5249Y121928D01*
X4593Y121490D01*
X4154Y120833D01*
X4000Y120059D01*
Y118500D01*
X6008D01*
Y122079D01*
D02*
G37*
G36*
X-26008D02*
Y118500D01*
X-24001D01*
Y120059D01*
X-24155Y120833D01*
X-24593Y121490D01*
X-25249Y121928D01*
X-26008Y122079D01*
D02*
G37*
G36*
X-28008D02*
X-28766Y121928D01*
X-29423Y121490D01*
X-29861Y120833D01*
X-30015Y120059D01*
Y118500D01*
X-28008D01*
Y122079D01*
D02*
G37*
G36*
X10015Y116500D02*
X8008D01*
Y112921D01*
X8766Y113072D01*
X9423Y113510D01*
X9861Y114167D01*
X10015Y114941D01*
Y116500D01*
D02*
G37*
G36*
X-28008Y116500D02*
X-30015D01*
Y114941D01*
X-29861Y114167D01*
X-29423Y113510D01*
X-28766Y113072D01*
X-28008Y112921D01*
Y116500D01*
D02*
G37*
G36*
X-24001D02*
X-26008D01*
Y112921D01*
X-25249Y113072D01*
X-24593Y113510D01*
X-24155Y114167D01*
X-24001Y114941D01*
Y116500D01*
D02*
G37*
G36*
X6008Y116500D02*
X4000D01*
Y114941D01*
X4154Y114167D01*
X4593Y113510D01*
X5249Y113072D01*
X6008Y112921D01*
Y116500D01*
D02*
G37*
G36*
X21852Y112272D02*
X21148D01*
X20496Y112002D01*
X19998Y111504D01*
X19728Y110852D01*
Y110148D01*
X19998Y109496D01*
X20496Y108998D01*
X21148Y108728D01*
X21852D01*
X22504Y108998D01*
X23002Y109496D01*
X23272Y110148D01*
Y110852D01*
X23002Y111504D01*
X22504Y112002D01*
X21852Y112272D01*
D02*
G37*
G36*
X1789Y106579D02*
X967D01*
X207Y106264D01*
X-374Y105683D01*
X-689Y104923D01*
Y104101D01*
X-374Y103341D01*
X207Y102760D01*
X967Y102445D01*
X1789D01*
X2549Y102760D01*
X3130Y103341D01*
X3445Y104101D01*
Y104923D01*
X3130Y105683D01*
X2549Y106264D01*
X1789Y106579D01*
D02*
G37*
G36*
X-20967D02*
X-21789D01*
X-22549Y106264D01*
X-23130Y105683D01*
X-23445Y104923D01*
Y104101D01*
X-23130Y103341D01*
X-22549Y102760D01*
X-21789Y102445D01*
X-20967D01*
X-20207Y102760D01*
X-19626Y103341D01*
X-19311Y104101D01*
Y104923D01*
X-19626Y105683D01*
X-20207Y106264D01*
X-20967Y106579D01*
D02*
G37*
G36*
X-7148Y105772D02*
X-7852D01*
X-8504Y105502D01*
X-9002Y105004D01*
X-9272Y104352D01*
Y103648D01*
X-9002Y102996D01*
X-8504Y102498D01*
X-7852Y102228D01*
X-7148D01*
X-6496Y102498D01*
X-5998Y102996D01*
X-5728Y103648D01*
Y104352D01*
X-5998Y105004D01*
X-6496Y105502D01*
X-7148Y105772D01*
D02*
G37*
G36*
X-12148D02*
X-12852D01*
X-13504Y105502D01*
X-14002Y105004D01*
X-14272Y104352D01*
Y103648D01*
X-14002Y102996D01*
X-13504Y102498D01*
X-12852Y102228D01*
X-12148D01*
X-11496Y102498D01*
X-10998Y102996D01*
X-10728Y103648D01*
Y104352D01*
X-10998Y105004D01*
X-11496Y105502D01*
X-12148Y105772D01*
D02*
G37*
G36*
X8008Y106008D02*
Y102043D01*
X10002D01*
Y103209D01*
X9900Y103984D01*
X9601Y104706D01*
X9125Y105326D01*
X8505Y105802D01*
X8008Y106008D01*
D02*
G37*
G36*
X6008D02*
X5511Y105802D01*
X4891Y105326D01*
X4415Y104706D01*
X4116Y103984D01*
X4014Y103209D01*
Y102043D01*
X6008D01*
Y106008D01*
D02*
G37*
G36*
X-26008Y106008D02*
Y102043D01*
X-24014D01*
Y103209D01*
X-24116Y103984D01*
X-24415Y104706D01*
X-24891Y105326D01*
X-25511Y105802D01*
X-26008Y106008D01*
D02*
G37*
G36*
X-28008Y106008D02*
X-28505Y105802D01*
X-29125Y105326D01*
X-29601Y104706D01*
X-29900Y103984D01*
X-30002Y103209D01*
Y102043D01*
X-28008D01*
Y106008D01*
D02*
G37*
G36*
Y100043D02*
X-30002D01*
Y98878D01*
X-29900Y98103D01*
X-29601Y97381D01*
X-29125Y96761D01*
X-28505Y96285D01*
X-28008Y96079D01*
Y100043D01*
D02*
G37*
G36*
X10002Y100043D02*
X8008D01*
Y96079D01*
X8505Y96285D01*
X9125Y96761D01*
X9601Y97381D01*
X9900Y98103D01*
X10002Y98878D01*
Y100043D01*
D02*
G37*
G36*
X6008D02*
X4014D01*
Y98878D01*
X4116Y98103D01*
X4415Y97381D01*
X4891Y96761D01*
X5511Y96285D01*
X6008Y96079D01*
Y100043D01*
D02*
G37*
G36*
X-24014Y100043D02*
X-26008D01*
Y96079D01*
X-25511Y96285D01*
X-24891Y96761D01*
X-24415Y97381D01*
X-24116Y98103D01*
X-24014Y98878D01*
Y100043D01*
D02*
G37*
G36*
X23081Y97518D02*
X22376D01*
X21725Y97248D01*
X21226Y96750D01*
X20957Y96099D01*
Y95394D01*
X21226Y94743D01*
X21725Y94244D01*
X22376Y93975D01*
X23081D01*
X23732Y94244D01*
X24230Y94743D01*
X24500Y95394D01*
Y96099D01*
X24230Y96750D01*
X23732Y97248D01*
X23081Y97518D01*
D02*
G37*
G36*
X43854Y97275D02*
X43150D01*
X42498Y97005D01*
X42000Y96507D01*
X41730Y95856D01*
Y95151D01*
X42000Y94500D01*
X42498Y94002D01*
X43150Y93732D01*
X43854D01*
X44506Y94002D01*
X45004Y94500D01*
X45274Y95151D01*
Y95856D01*
X45004Y96507D01*
X44506Y97005D01*
X43854Y97275D01*
D02*
G37*
G36*
X28852Y95772D02*
X28148D01*
X27496Y95502D01*
X26998Y95004D01*
X26728Y94352D01*
Y93648D01*
X26998Y92996D01*
X27496Y92498D01*
X28148Y92228D01*
X28852D01*
X29504Y92498D01*
X30002Y92996D01*
X30272Y93648D01*
Y94352D01*
X30002Y95004D01*
X29504Y95502D01*
X28852Y95772D01*
D02*
G37*
G36*
X-3274Y95398D02*
X-3978D01*
X-4629Y95128D01*
X-5128Y94630D01*
X-5398Y93978D01*
Y93274D01*
X-5128Y92622D01*
X-4629Y92124D01*
X-3978Y91854D01*
X-3274D01*
X-2622Y92124D01*
X-2124Y92622D01*
X-1854Y93274D01*
Y93978D01*
X-2124Y94630D01*
X-2622Y95128D01*
X-3274Y95398D01*
D02*
G37*
G36*
X16352Y93272D02*
X15648D01*
X14996Y93002D01*
X14498Y92504D01*
X14228Y91852D01*
Y91148D01*
X14498Y90496D01*
X14996Y89998D01*
X15648Y89728D01*
X16352D01*
X17004Y89998D01*
X17502Y90496D01*
X17772Y91148D01*
Y91852D01*
X17502Y92504D01*
X17004Y93002D01*
X16352Y93272D01*
D02*
G37*
G36*
X-55000Y91028D02*
Y88000D01*
X-51972D01*
X-52133Y88602D01*
X-52680Y89548D01*
X-53452Y90320D01*
X-54398Y90867D01*
X-55000Y91028D01*
D02*
G37*
G36*
X-57000D02*
X-57602Y90867D01*
X-58548Y90320D01*
X-59320Y89548D01*
X-59867Y88602D01*
X-60028Y88000D01*
X-57000D01*
Y91028D01*
D02*
G37*
G36*
X17254Y86772D02*
X16549D01*
X15898Y86502D01*
X15400Y86004D01*
X15130Y85352D01*
Y84648D01*
X15400Y83996D01*
X15898Y83498D01*
X16549Y83228D01*
X17254D01*
X17905Y83498D01*
X18404Y83996D01*
X18673Y84648D01*
Y85352D01*
X18404Y86004D01*
X17905Y86502D01*
X17254Y86772D01*
D02*
G37*
G36*
X-51972Y86000D02*
X-55000D01*
Y82972D01*
X-54398Y83133D01*
X-53452Y83679D01*
X-52680Y84452D01*
X-52133Y85398D01*
X-51972Y86000D01*
D02*
G37*
G36*
X-57000D02*
X-60028D01*
X-59867Y85398D01*
X-59320Y84452D01*
X-58548Y83679D01*
X-57602Y83133D01*
X-57000Y82972D01*
Y86000D01*
D02*
G37*
G36*
X-4497Y80621D02*
X-5202D01*
X-5853Y80351D01*
X-6351Y79853D01*
X-6621Y79202D01*
Y78497D01*
X-6351Y77846D01*
X-5853Y77347D01*
X-5202Y77078D01*
X-4497D01*
X-3846Y77347D01*
X-3348Y77846D01*
X-3078Y78497D01*
Y79202D01*
X-3348Y79853D01*
X-3846Y80351D01*
X-4497Y80621D01*
D02*
G37*
G36*
X-27648Y76772D02*
X-28352D01*
X-29004Y76502D01*
X-29502Y76004D01*
X-29772Y75352D01*
Y74648D01*
X-29502Y73996D01*
X-29004Y73498D01*
X-28352Y73228D01*
X-27648D01*
X-26996Y73498D01*
X-26498Y73996D01*
X-26228Y74648D01*
Y75352D01*
X-26498Y76004D01*
X-26996Y76502D01*
X-27648Y76772D01*
D02*
G37*
G36*
X39237Y66272D02*
X38532D01*
X37881Y66002D01*
X37382Y65504D01*
X37113Y64852D01*
Y64148D01*
X37382Y63496D01*
X37881Y62998D01*
X38532Y62728D01*
X39237D01*
X39888Y62998D01*
X40386Y63496D01*
X40656Y64148D01*
Y64852D01*
X40386Y65504D01*
X39888Y66002D01*
X39237Y66272D01*
D02*
G37*
G36*
X5852D02*
X5148D01*
X4496Y66002D01*
X3998Y65504D01*
X3728Y64852D01*
Y64148D01*
X3998Y63496D01*
X4496Y62998D01*
X5148Y62728D01*
X5852D01*
X6504Y62998D01*
X7002Y63496D01*
X7272Y64148D01*
Y64852D01*
X7002Y65504D01*
X6504Y66002D01*
X5852Y66272D01*
D02*
G37*
G36*
X-55482Y60937D02*
X-56518D01*
X-57520Y60669D01*
X-58417Y60150D01*
X-59150Y59417D01*
X-59669Y58520D01*
X-59937Y57518D01*
Y56482D01*
X-59669Y55480D01*
X-59150Y54583D01*
X-58417Y53850D01*
X-57520Y53331D01*
X-56518Y53063D01*
X-55482D01*
X-54480Y53331D01*
X-53583Y53850D01*
X-52850Y54583D01*
X-52331Y55480D01*
X-52063Y56482D01*
Y57518D01*
X-52331Y58520D01*
X-52850Y59417D01*
X-53583Y60150D01*
X-54480Y60669D01*
X-55482Y60937D01*
D02*
G37*
G36*
Y70937D02*
X-56518D01*
X-57520Y70669D01*
X-58417Y70150D01*
X-59150Y69417D01*
X-59669Y68520D01*
X-59937Y67518D01*
Y66482D01*
X-59669Y65480D01*
X-59150Y64583D01*
X-58417Y63850D01*
X-57520Y63331D01*
X-56518Y63063D01*
X-55482D01*
X-54480Y63331D01*
X-54295Y63438D01*
X-40813Y49957D01*
X-40387Y49672D01*
X-39885Y49572D01*
X-3874D01*
X-3540Y49072D01*
X-3672Y48753D01*
Y48048D01*
X-3402Y47397D01*
X-2904Y46899D01*
X-2253Y46629D01*
X-1548D01*
X-897Y46899D01*
X-399Y47397D01*
X-129Y48048D01*
Y48753D01*
X-261Y49072D01*
X73Y49572D01*
X22152D01*
X22513Y49644D01*
X23013Y49356D01*
Y39869D01*
X17758Y34614D01*
X17272Y34835D01*
Y35352D01*
X17002Y36004D01*
X16504Y36502D01*
X15852Y36772D01*
X15148D01*
X14496Y36502D01*
X14154Y36160D01*
X-15020D01*
X-22728Y43868D01*
Y44352D01*
X-22998Y45004D01*
X-23496Y45502D01*
X-24148Y45772D01*
X-24852D01*
X-25504Y45502D01*
X-26002Y45004D01*
X-26272Y44352D01*
Y43648D01*
X-26002Y42996D01*
X-25504Y42498D01*
X-24852Y42228D01*
X-24368D01*
X-16320Y34180D01*
X-15944Y33929D01*
X-15500Y33840D01*
X14154D01*
X14496Y33498D01*
X15148Y33228D01*
X15665D01*
X15886Y32742D01*
X2443Y19300D01*
X-17284D01*
X-17473Y19489D01*
X-18124Y19759D01*
X-18829D01*
X-19480Y19489D01*
X-19979Y18991D01*
X-20249Y18339D01*
Y17635D01*
X-19979Y16984D01*
X-19480Y16485D01*
X-18829Y16216D01*
X-18124D01*
X-17473Y16485D01*
X-17284Y16675D01*
X2987D01*
X3489Y16774D01*
X3915Y17059D01*
X25253Y38397D01*
X25538Y38823D01*
X25638Y39325D01*
Y51865D01*
X25827Y52055D01*
X25880Y52182D01*
X26421D01*
X26498Y51996D01*
X26996Y51498D01*
X27648Y51228D01*
X28352D01*
X29004Y51498D01*
X29502Y51996D01*
X29772Y52648D01*
Y53352D01*
X29502Y54004D01*
X29004Y54502D01*
X28352Y54772D01*
X27648D01*
X26996Y54502D01*
X26498Y54004D01*
X26445Y53876D01*
X25904D01*
X25827Y54062D01*
X25329Y54560D01*
X24678Y54830D01*
X23973D01*
X23322Y54560D01*
X22823Y54062D01*
X22554Y53411D01*
Y53143D01*
X21608Y52197D01*
X-39341D01*
X-52438Y65295D01*
X-52331Y65480D01*
X-52063Y66482D01*
Y67518D01*
X-52331Y68520D01*
X-52850Y69417D01*
X-53583Y70150D01*
X-54480Y70669D01*
X-55482Y70937D01*
D02*
G37*
G36*
Y50937D02*
X-56518D01*
X-57520Y50669D01*
X-58417Y50150D01*
X-59150Y49417D01*
X-59669Y48520D01*
X-59937Y47518D01*
Y46482D01*
X-59669Y45480D01*
X-59150Y44583D01*
X-58417Y43850D01*
X-57520Y43331D01*
X-56518Y43063D01*
X-55482D01*
X-54480Y43331D01*
X-53583Y43850D01*
X-52850Y44583D01*
X-52331Y45480D01*
X-52063Y46482D01*
Y47518D01*
X-52331Y48520D01*
X-52850Y49417D01*
X-53583Y50150D01*
X-54480Y50669D01*
X-55482Y50937D01*
D02*
G37*
G36*
Y40937D02*
X-56518D01*
X-57520Y40669D01*
X-58417Y40150D01*
X-59150Y39417D01*
X-59669Y38520D01*
X-59937Y37518D01*
Y36482D01*
X-59669Y35480D01*
X-59150Y34583D01*
X-58417Y33850D01*
X-57520Y33331D01*
X-56518Y33063D01*
X-55482D01*
X-54480Y33331D01*
X-53583Y33850D01*
X-52850Y34583D01*
X-52331Y35480D01*
X-52063Y36482D01*
Y37518D01*
X-52331Y38520D01*
X-52850Y39417D01*
X-53583Y40150D01*
X-54480Y40669D01*
X-55482Y40937D01*
D02*
G37*
G36*
Y80937D02*
X-56518D01*
X-57520Y80669D01*
X-58417Y80150D01*
X-59150Y79417D01*
X-59669Y78520D01*
X-59937Y77518D01*
Y76482D01*
X-59669Y75480D01*
X-59150Y74583D01*
X-58417Y73850D01*
X-57520Y73331D01*
X-56518Y73063D01*
X-55482D01*
X-54480Y73331D01*
X-54295Y73439D01*
X-49444Y68588D01*
X-49018Y68303D01*
X-48516Y68203D01*
X-21654D01*
X-21152Y68303D01*
X-20726Y68588D01*
X-19219Y70094D01*
X3610D01*
X3944Y69594D01*
X3811Y69275D01*
Y68570D01*
X4081Y67919D01*
X4580Y67421D01*
X5231Y67151D01*
X5935D01*
X6587Y67421D01*
X7085Y67919D01*
X7355Y68570D01*
Y69275D01*
X7222Y69594D01*
X7557Y70094D01*
X26050D01*
X37572Y58572D01*
Y50449D01*
X37382Y50260D01*
X37113Y49608D01*
Y48904D01*
X37382Y48252D01*
X37572Y48063D01*
Y40428D01*
X28572Y31428D01*
X28572Y31428D01*
X8707Y11563D01*
X-5325D01*
X-5690Y11928D01*
X-6116Y12213D01*
X-6618Y12313D01*
X-22000D01*
X-22502Y12213D01*
X-22928Y11928D01*
X-25585Y9272D01*
X-25852D01*
X-26504Y9002D01*
X-27002Y8504D01*
X-27272Y7852D01*
Y7148D01*
X-27002Y6496D01*
X-26504Y5998D01*
X-25852Y5728D01*
X-25148D01*
X-24496Y5998D01*
X-23998Y6496D01*
X-23728Y7148D01*
Y7415D01*
X-21456Y9687D01*
X-7162D01*
X-6797Y9323D01*
X-6371Y9038D01*
X-5869Y8938D01*
X9251D01*
X9753Y9038D01*
X10179Y9323D01*
X21526Y20669D01*
X21949Y20386D01*
X21728Y19852D01*
Y19148D01*
X21998Y18496D01*
X22496Y17998D01*
X23148Y17728D01*
X23852D01*
X24504Y17998D01*
X25002Y18496D01*
X25272Y19148D01*
Y19852D01*
X25002Y20504D01*
X24504Y21002D01*
X23852Y21272D01*
X23148D01*
X22614Y21051D01*
X22331Y21475D01*
X27725Y26869D01*
X28187Y26678D01*
Y24193D01*
X27998Y24004D01*
X27728Y23352D01*
Y22648D01*
X27998Y21996D01*
X28496Y21498D01*
X29148Y21228D01*
X29852D01*
X30504Y21498D01*
X31002Y21996D01*
X31272Y22648D01*
Y23352D01*
X31002Y24002D01*
X31005Y24008D01*
X31266Y24394D01*
X31313Y24415D01*
X31763Y24228D01*
X32468D01*
X33119Y24498D01*
X33618Y24996D01*
X33887Y25648D01*
Y26352D01*
X33618Y27004D01*
X33119Y27502D01*
X32468Y27772D01*
X31763D01*
X31313Y27585D01*
X30813Y27856D01*
Y29956D01*
X39812Y38956D01*
X40097Y39382D01*
X40197Y39884D01*
Y48063D01*
X40386Y48252D01*
X40656Y48904D01*
Y49608D01*
X40386Y50260D01*
X40197Y50449D01*
Y59116D01*
X40097Y59618D01*
X39812Y60044D01*
X27521Y72335D01*
X27096Y72619D01*
X26593Y72719D01*
X-19763D01*
X-20265Y72619D01*
X-20691Y72335D01*
X-22198Y70828D01*
X-47972D01*
X-52438Y75295D01*
X-52331Y75480D01*
X-52063Y76482D01*
Y77518D01*
X-52331Y78520D01*
X-52850Y79417D01*
X-53583Y80150D01*
X-54480Y80669D01*
X-55482Y80937D01*
D02*
G37*
G36*
Y30937D02*
X-56518D01*
X-57520Y30669D01*
X-58417Y30150D01*
X-59150Y29417D01*
X-59669Y28520D01*
X-59937Y27518D01*
Y26482D01*
X-59669Y25480D01*
X-59150Y24583D01*
X-58417Y23850D01*
X-57520Y23331D01*
X-56518Y23063D01*
X-55482D01*
X-54480Y23331D01*
X-53583Y23850D01*
X-52850Y24583D01*
X-52331Y25480D01*
X-52063Y26482D01*
Y27518D01*
X-52331Y28520D01*
X-52850Y29417D01*
X-53583Y30150D01*
X-54480Y30669D01*
X-55482Y30937D01*
D02*
G37*
G36*
X-42648Y21772D02*
X-43352D01*
X-44004Y21502D01*
X-44502Y21004D01*
X-44772Y20352D01*
Y19648D01*
X-44502Y18996D01*
X-44004Y18498D01*
X-43352Y18228D01*
X-42648D01*
X-41996Y18498D01*
X-41498Y18996D01*
X-41228Y19648D01*
Y20352D01*
X-41498Y21004D01*
X-41996Y21502D01*
X-42648Y21772D01*
D02*
G37*
G36*
X-55482Y20937D02*
X-56518D01*
X-57520Y20669D01*
X-58417Y20150D01*
X-59150Y19417D01*
X-59669Y18520D01*
X-59937Y17518D01*
Y16482D01*
X-59669Y15480D01*
X-59150Y14583D01*
X-58417Y13850D01*
X-57520Y13331D01*
X-56518Y13063D01*
X-55482D01*
X-54480Y13331D01*
X-53583Y13850D01*
X-52850Y14583D01*
X-52331Y15480D01*
X-52063Y16482D01*
Y17518D01*
X-52331Y18520D01*
X-52850Y19417D01*
X-53583Y20150D01*
X-54480Y20669D01*
X-55482Y20937D01*
D02*
G37*
G36*
X-42648Y11772D02*
X-43352D01*
X-44004Y11502D01*
X-44502Y11004D01*
X-44772Y10352D01*
Y9648D01*
X-44502Y8996D01*
X-44004Y8498D01*
X-43352Y8228D01*
X-42648D01*
X-41996Y8498D01*
X-41498Y8996D01*
X-41228Y9648D01*
Y10352D01*
X-41498Y11004D01*
X-41996Y11502D01*
X-42648Y11772D01*
D02*
G37*
G36*
X19852Y7272D02*
X19148D01*
X18496Y7002D01*
X17998Y6504D01*
X17728Y5852D01*
Y5148D01*
X17998Y4496D01*
X18496Y3998D01*
X19148Y3728D01*
X19852D01*
X20504Y3998D01*
X21002Y4496D01*
X21272Y5148D01*
Y5852D01*
X21002Y6504D01*
X20504Y7002D01*
X19852Y7272D01*
D02*
G37*
G36*
X-55482Y10937D02*
X-56518D01*
X-57520Y10669D01*
X-58417Y10150D01*
X-59150Y9417D01*
X-59669Y8520D01*
X-59937Y7518D01*
Y6482D01*
X-59669Y5480D01*
X-59150Y4583D01*
X-58417Y3850D01*
X-57520Y3331D01*
X-56518Y3063D01*
X-55482D01*
X-54480Y3331D01*
X-53583Y3850D01*
X-52850Y4583D01*
X-52331Y5480D01*
X-52063Y6482D01*
Y7518D01*
X-52331Y8520D01*
X-52850Y9417D01*
X-53583Y10150D01*
X-54480Y10669D01*
X-55482Y10937D01*
D02*
G37*
G36*
X-15148Y1772D02*
X-15852D01*
X-16504Y1502D01*
X-17002Y1004D01*
X-17272Y352D01*
Y-352D01*
X-17002Y-1004D01*
X-16504Y-1502D01*
X-15852Y-1772D01*
X-15148D01*
X-14496Y-1502D01*
X-13998Y-1004D01*
X-13728Y-352D01*
Y352D01*
X-13998Y1004D01*
X-14496Y1502D01*
X-15148Y1772D01*
D02*
G37*
G36*
X52352Y-4228D02*
X51648D01*
X50996Y-4498D01*
X50498Y-4996D01*
X50250Y-5595D01*
X50000Y-5623D01*
X49750Y-5595D01*
X49502Y-4996D01*
X49004Y-4498D01*
X48352Y-4228D01*
X47648D01*
X46996Y-4498D01*
X46498Y-4996D01*
X46250Y-5595D01*
X46000Y-5623D01*
X45750Y-5595D01*
X45502Y-4996D01*
X45004Y-4498D01*
X44352Y-4228D01*
X43648D01*
X42996Y-4498D01*
X42498Y-4996D01*
X42228Y-5648D01*
Y-6352D01*
X42498Y-7004D01*
X42996Y-7502D01*
X43648Y-7772D01*
X44352D01*
X45004Y-7502D01*
X45502Y-7004D01*
X45750Y-6405D01*
X46000Y-6377D01*
X46250Y-6405D01*
X46498Y-7004D01*
X46996Y-7502D01*
X47648Y-7772D01*
X48352D01*
X49004Y-7502D01*
X49502Y-7004D01*
X49750Y-6405D01*
X50000Y-6377D01*
X50250Y-6405D01*
X50498Y-7004D01*
X50996Y-7502D01*
X51648Y-7772D01*
X52352D01*
X53004Y-7502D01*
X53502Y-7004D01*
X53772Y-6352D01*
Y-5648D01*
X53502Y-4996D01*
X53004Y-4498D01*
X52352Y-4228D01*
D02*
G37*
G36*
X-55482Y937D02*
X-56518D01*
X-57520Y669D01*
X-58417Y150D01*
X-59150Y-583D01*
X-59669Y-1480D01*
X-59937Y-2482D01*
Y-3518D01*
X-59669Y-4520D01*
X-59150Y-5417D01*
X-58417Y-6150D01*
X-57520Y-6669D01*
X-56518Y-6937D01*
X-55482D01*
X-54480Y-6669D01*
X-53583Y-6150D01*
X-52850Y-5417D01*
X-52331Y-4520D01*
X-52063Y-3518D01*
Y-2482D01*
X-52331Y-1480D01*
X-52850Y-583D01*
X-53583Y150D01*
X-54480Y669D01*
X-55482Y937D01*
D02*
G37*
G36*
X30352Y-6728D02*
X29648D01*
X28996Y-6998D01*
X28498Y-7496D01*
X28228Y-8148D01*
Y-8852D01*
X28498Y-9504D01*
X28996Y-10002D01*
X29648Y-10272D01*
X30352D01*
X31004Y-10002D01*
X31502Y-9504D01*
X31772Y-8852D01*
Y-8148D01*
X31502Y-7496D01*
X31004Y-6998D01*
X30352Y-6728D01*
D02*
G37*
G36*
X-46648Y-10228D02*
X-47352D01*
X-48004Y-10498D01*
X-48502Y-10996D01*
X-48772Y-11648D01*
Y-12352D01*
X-48502Y-13004D01*
X-48004Y-13502D01*
X-47352Y-13772D01*
X-46648D01*
X-45996Y-13502D01*
X-45498Y-13004D01*
X-45228Y-12352D01*
Y-11648D01*
X-45498Y-10996D01*
X-45996Y-10498D01*
X-46648Y-10228D01*
D02*
G37*
G36*
X-55482Y-9063D02*
X-56518D01*
X-57520Y-9331D01*
X-58417Y-9850D01*
X-59150Y-10583D01*
X-59669Y-11480D01*
X-59937Y-12482D01*
Y-13518D01*
X-59669Y-14520D01*
X-59150Y-15417D01*
X-58417Y-16150D01*
X-57520Y-16669D01*
X-56518Y-16937D01*
X-55482D01*
X-54480Y-16669D01*
X-53583Y-16150D01*
X-52850Y-15417D01*
X-52331Y-14520D01*
X-52063Y-13518D01*
Y-12482D01*
X-52331Y-11480D01*
X-52850Y-10583D01*
X-53583Y-9850D01*
X-54480Y-9331D01*
X-55482Y-9063D01*
D02*
G37*
G36*
Y-19063D02*
X-56518D01*
X-57520Y-19331D01*
X-58417Y-19850D01*
X-59150Y-20583D01*
X-59669Y-21480D01*
X-59937Y-22482D01*
Y-23518D01*
X-59669Y-24520D01*
X-59150Y-25417D01*
X-58417Y-26150D01*
X-57520Y-26669D01*
X-56518Y-26937D01*
X-55482D01*
X-54480Y-26669D01*
X-53583Y-26150D01*
X-52850Y-25417D01*
X-52331Y-24520D01*
X-52235Y-24160D01*
X-34846D01*
X-34504Y-24502D01*
X-33852Y-24772D01*
X-33148D01*
X-32496Y-24502D01*
X-31998Y-24004D01*
X-31728Y-23352D01*
Y-22648D01*
X-31998Y-21996D01*
X-32496Y-21498D01*
X-33148Y-21228D01*
X-33852D01*
X-34504Y-21498D01*
X-34846Y-21840D01*
X-52235D01*
X-52331Y-21480D01*
X-52850Y-20583D01*
X-53583Y-19850D01*
X-54480Y-19331D01*
X-55482Y-19063D01*
D02*
G37*
G36*
X24852Y-24394D02*
X24148D01*
X23496Y-24664D01*
X22998Y-25162D01*
X22728Y-25813D01*
Y-26518D01*
X22998Y-27169D01*
X23496Y-27668D01*
X24148Y-27937D01*
X24852D01*
X25504Y-27668D01*
X26002Y-27169D01*
X26272Y-26518D01*
Y-25813D01*
X26002Y-25162D01*
X25504Y-24664D01*
X24852Y-24394D01*
D02*
G37*
G36*
X-55482Y-29063D02*
X-56518D01*
X-57520Y-29331D01*
X-58417Y-29850D01*
X-59150Y-30583D01*
X-59669Y-31480D01*
X-59937Y-32482D01*
Y-33518D01*
X-59669Y-34520D01*
X-59150Y-35417D01*
X-58417Y-36150D01*
X-57520Y-36669D01*
X-56518Y-36937D01*
X-55482D01*
X-54480Y-36669D01*
X-53583Y-36150D01*
X-52850Y-35417D01*
X-52331Y-34520D01*
X-52063Y-33518D01*
Y-32482D01*
X-52331Y-31480D01*
X-52850Y-30583D01*
X-53583Y-29850D01*
X-54480Y-29331D01*
X-55482Y-29063D01*
D02*
G37*
G36*
X-32148Y-36728D02*
X-32852D01*
X-33504Y-36998D01*
X-34002Y-37496D01*
X-34272Y-38148D01*
Y-38852D01*
X-34002Y-39504D01*
X-33504Y-40002D01*
X-32852Y-40272D01*
X-32148D01*
X-31496Y-40002D01*
X-30998Y-39504D01*
X-30728Y-38852D01*
Y-38148D01*
X-30998Y-37496D01*
X-31496Y-36998D01*
X-32148Y-36728D01*
D02*
G37*
G36*
X-29844Y-41778D02*
X-30548D01*
X-31199Y-42048D01*
X-31698Y-42546D01*
X-31968Y-43197D01*
Y-43902D01*
X-31698Y-44553D01*
X-31199Y-45051D01*
X-30548Y-45321D01*
X-29844D01*
X-29192Y-45051D01*
X-28694Y-44553D01*
X-28424Y-43902D01*
Y-43197D01*
X-28694Y-42546D01*
X-29192Y-42048D01*
X-29844Y-41778D01*
D02*
G37*
G36*
X-55482Y-39063D02*
X-56518D01*
X-57520Y-39331D01*
X-58417Y-39850D01*
X-59150Y-40583D01*
X-59669Y-41480D01*
X-59937Y-42482D01*
Y-43518D01*
X-59669Y-44520D01*
X-59150Y-45417D01*
X-58417Y-46150D01*
X-57520Y-46669D01*
X-56518Y-46937D01*
X-55482D01*
X-54480Y-46669D01*
X-53583Y-46150D01*
X-52850Y-45417D01*
X-52331Y-44520D01*
X-52063Y-43518D01*
Y-42482D01*
X-52331Y-41480D01*
X-52850Y-40583D01*
X-53583Y-39850D01*
X-54480Y-39331D01*
X-55482Y-39063D01*
D02*
G37*
G36*
X51852Y-46228D02*
X51148D01*
X50496Y-46498D01*
X49998Y-46996D01*
X49728Y-47648D01*
Y-48352D01*
X49998Y-49004D01*
X50496Y-49502D01*
X51148Y-49772D01*
X51852D01*
X52504Y-49502D01*
X53002Y-49004D01*
X53272Y-48352D01*
Y-47648D01*
X53002Y-46996D01*
X52504Y-46498D01*
X51852Y-46228D01*
D02*
G37*
G36*
X45352Y-50228D02*
X44648D01*
X43996Y-50498D01*
X43498Y-50996D01*
X43228Y-51648D01*
Y-52352D01*
X43498Y-53004D01*
X43996Y-53502D01*
X44648Y-53772D01*
X45352D01*
X46004Y-53502D01*
X46502Y-53004D01*
X46772Y-52352D01*
Y-51648D01*
X46502Y-50996D01*
X46004Y-50498D01*
X45352Y-50228D01*
D02*
G37*
G36*
X-55482Y-49063D02*
X-56518D01*
X-57520Y-49331D01*
X-58417Y-49850D01*
X-59150Y-50583D01*
X-59669Y-51480D01*
X-59937Y-52482D01*
Y-53518D01*
X-59669Y-54520D01*
X-59150Y-55417D01*
X-58417Y-56150D01*
X-57520Y-56669D01*
X-56518Y-56937D01*
X-55482D01*
X-54480Y-56669D01*
X-53583Y-56150D01*
X-52850Y-55417D01*
X-52331Y-54520D01*
X-52063Y-53518D01*
Y-52482D01*
X-52331Y-51480D01*
X-52850Y-50583D01*
X-53583Y-49850D01*
X-54480Y-49331D01*
X-55482Y-49063D01*
D02*
G37*
G36*
X19149Y-54025D02*
X18444D01*
X17793Y-54294D01*
X17294Y-54793D01*
X17025Y-55444D01*
Y-56149D01*
X17294Y-56800D01*
X17793Y-57298D01*
X18444Y-57568D01*
X19149D01*
X19800Y-57298D01*
X20298Y-56800D01*
X20568Y-56149D01*
Y-55444D01*
X20298Y-54793D01*
X19800Y-54294D01*
X19149Y-54025D01*
D02*
G37*
G36*
X28233Y-54347D02*
X27529D01*
X26877Y-54617D01*
X26379Y-55115D01*
X26109Y-55767D01*
Y-56472D01*
X26379Y-57123D01*
X26877Y-57621D01*
X27529Y-57891D01*
X28233D01*
X28885Y-57621D01*
X29383Y-57123D01*
X29653Y-56472D01*
Y-55767D01*
X29383Y-55115D01*
X28885Y-54617D01*
X28233Y-54347D01*
D02*
G37*
G36*
X-55482Y-59063D02*
X-56518D01*
X-57520Y-59331D01*
X-58417Y-59850D01*
X-59150Y-60583D01*
X-59669Y-61480D01*
X-59937Y-62482D01*
Y-63518D01*
X-59669Y-64520D01*
X-59150Y-65417D01*
X-58417Y-66150D01*
X-57520Y-66669D01*
X-56518Y-66937D01*
X-55482D01*
X-54480Y-66669D01*
X-53583Y-66150D01*
X-52850Y-65417D01*
X-52331Y-64520D01*
X-52063Y-63518D01*
Y-62482D01*
X-52331Y-61480D01*
X-52850Y-60583D01*
X-53583Y-59850D01*
X-54480Y-59331D01*
X-55482Y-59063D01*
D02*
G37*
G36*
Y-69063D02*
X-56518D01*
X-57520Y-69331D01*
X-58417Y-69850D01*
X-59150Y-70583D01*
X-59669Y-71480D01*
X-59937Y-72482D01*
Y-73518D01*
X-59669Y-74520D01*
X-59150Y-75417D01*
X-58417Y-76150D01*
X-57520Y-76669D01*
X-56518Y-76937D01*
X-55482D01*
X-54480Y-76669D01*
X-53583Y-76150D01*
X-52850Y-75417D01*
X-52331Y-74520D01*
X-52063Y-73518D01*
Y-72482D01*
X-52331Y-71480D01*
X-52850Y-70583D01*
X-53583Y-69850D01*
X-54480Y-69331D01*
X-55482Y-69063D01*
D02*
G37*
G36*
X30010Y-62728D02*
X29305D01*
X28654Y-62998D01*
X28155Y-63496D01*
X27886Y-64148D01*
Y-64852D01*
X28155Y-65504D01*
X28654Y-66002D01*
X29305Y-66272D01*
X29573D01*
X41229Y-77928D01*
X41655Y-78213D01*
X42050Y-78291D01*
X42261Y-78560D01*
X42367Y-78813D01*
X42228Y-79148D01*
Y-79852D01*
X42498Y-80504D01*
X42996Y-81002D01*
X43648Y-81272D01*
X44352D01*
X45004Y-81002D01*
X45502Y-80504D01*
X45772Y-79852D01*
Y-79148D01*
X45633Y-78813D01*
X45967Y-78313D01*
X52500D01*
X53002Y-78213D01*
X53428Y-77928D01*
X58085Y-73272D01*
X58352D01*
X59004Y-73002D01*
X59502Y-72504D01*
X59772Y-71852D01*
Y-71148D01*
X59502Y-70496D01*
X59004Y-69998D01*
X58352Y-69728D01*
X57648D01*
X56996Y-69998D01*
X56498Y-70496D01*
X56228Y-71148D01*
Y-71415D01*
X51956Y-75687D01*
X42701D01*
X31429Y-64415D01*
Y-64148D01*
X31159Y-63496D01*
X30661Y-62998D01*
X30010Y-62728D01*
D02*
G37*
G36*
X-55482Y-79063D02*
X-56518D01*
X-57520Y-79331D01*
X-58417Y-79850D01*
X-59150Y-80583D01*
X-59669Y-81480D01*
X-59937Y-82482D01*
Y-83518D01*
X-59669Y-84520D01*
X-59150Y-85417D01*
X-58417Y-86150D01*
X-57520Y-86669D01*
X-56518Y-86937D01*
X-55482D01*
X-54480Y-86669D01*
X-53583Y-86150D01*
X-52850Y-85417D01*
X-52331Y-84520D01*
X-52063Y-83518D01*
Y-82482D01*
X-52331Y-81480D01*
X-52850Y-80583D01*
X-53583Y-79850D01*
X-54480Y-79331D01*
X-55482Y-79063D01*
D02*
G37*
G36*
X-41148Y-87728D02*
X-41852D01*
X-42504Y-87998D01*
X-43002Y-88496D01*
X-43272Y-89148D01*
Y-89852D01*
X-43002Y-90504D01*
X-42504Y-91002D01*
X-41852Y-91272D01*
X-41148D01*
X-40496Y-91002D01*
X-39998Y-90504D01*
X-39728Y-89852D01*
Y-89148D01*
X-39998Y-88496D01*
X-40496Y-87998D01*
X-41148Y-87728D01*
D02*
G37*
G36*
X41050Y-88925D02*
X40345D01*
X39693Y-89195D01*
X39195Y-89693D01*
X38925Y-90345D01*
Y-91049D01*
X39195Y-91701D01*
X39693Y-92199D01*
X40345Y-92469D01*
X41050D01*
X41701Y-92199D01*
X42199Y-91701D01*
X42469Y-91049D01*
Y-90345D01*
X42199Y-89693D01*
X41701Y-89195D01*
X41050Y-88925D01*
D02*
G37*
G36*
X27852Y-90728D02*
X27148D01*
X26496Y-90998D01*
X25998Y-91496D01*
X25728Y-92148D01*
Y-92852D01*
X25998Y-93504D01*
X26496Y-94002D01*
X27148Y-94272D01*
X27852D01*
X28504Y-94002D01*
X29002Y-93504D01*
X29272Y-92852D01*
Y-92148D01*
X29002Y-91496D01*
X28504Y-90998D01*
X27852Y-90728D01*
D02*
G37*
G36*
X-41148Y-92228D02*
X-41852D01*
X-42504Y-92498D01*
X-43002Y-92996D01*
X-43272Y-93648D01*
Y-94352D01*
X-43002Y-95004D01*
X-42504Y-95502D01*
X-41852Y-95772D01*
X-41148D01*
X-40496Y-95502D01*
X-39998Y-95004D01*
X-39728Y-94352D01*
Y-93648D01*
X-39998Y-92996D01*
X-40496Y-92498D01*
X-41148Y-92228D01*
D02*
G37*
G36*
X-55482Y-89063D02*
X-56518D01*
X-57520Y-89331D01*
X-58417Y-89850D01*
X-59150Y-90583D01*
X-59669Y-91480D01*
X-59937Y-92482D01*
Y-93518D01*
X-59669Y-94520D01*
X-59150Y-95417D01*
X-58417Y-96150D01*
X-57520Y-96669D01*
X-56518Y-96937D01*
X-55482D01*
X-54480Y-96669D01*
X-53583Y-96150D01*
X-52850Y-95417D01*
X-52331Y-94520D01*
X-52063Y-93518D01*
Y-92482D01*
X-52331Y-91480D01*
X-52850Y-90583D01*
X-53583Y-89850D01*
X-54480Y-89331D01*
X-55482Y-89063D01*
D02*
G37*
G36*
X27852Y-95728D02*
X27148D01*
X26496Y-95998D01*
X25998Y-96496D01*
X25728Y-97148D01*
Y-97852D01*
X25998Y-98504D01*
X26496Y-99002D01*
X27148Y-99272D01*
X27852D01*
X28504Y-99002D01*
X29002Y-98504D01*
X29272Y-97852D01*
Y-97148D01*
X29002Y-96496D01*
X28504Y-95998D01*
X27852Y-95728D01*
D02*
G37*
G36*
X-27148Y-97728D02*
X-27852D01*
X-28504Y-97998D01*
X-29002Y-98496D01*
X-29272Y-99148D01*
Y-99852D01*
X-29002Y-100504D01*
X-28504Y-101002D01*
X-27852Y-101272D01*
X-27148D01*
X-26496Y-101002D01*
X-25998Y-100504D01*
X-25728Y-99852D01*
Y-99148D01*
X-25998Y-98496D01*
X-26496Y-97998D01*
X-27148Y-97728D01*
D02*
G37*
G36*
X27852Y-100728D02*
X27148D01*
X26496Y-100998D01*
X25998Y-101496D01*
X25728Y-102148D01*
Y-102852D01*
X25998Y-103504D01*
X26496Y-104002D01*
X27148Y-104272D01*
X27852D01*
X28504Y-104002D01*
X29002Y-103504D01*
X29272Y-102852D01*
Y-102148D01*
X29002Y-101496D01*
X28504Y-100998D01*
X27852Y-100728D01*
D02*
G37*
G36*
X-23148Y-102728D02*
X-23852D01*
X-24504Y-102998D01*
X-25002Y-103496D01*
X-25272Y-104148D01*
Y-104852D01*
X-25002Y-105504D01*
X-24504Y-106002D01*
X-23852Y-106272D01*
X-23148D01*
X-22496Y-106002D01*
X-21998Y-105504D01*
X-21728Y-104852D01*
Y-104148D01*
X-21998Y-103496D01*
X-22496Y-102998D01*
X-23148Y-102728D01*
D02*
G37*
G36*
X-54425Y-99017D02*
X-57575D01*
X-58496Y-99200D01*
X-59278Y-99722D01*
X-59800Y-100504D01*
X-59983Y-101425D01*
Y-104575D01*
X-59800Y-105497D01*
X-59278Y-106278D01*
X-58496Y-106800D01*
X-57575Y-106983D01*
X-54425D01*
X-53504Y-106800D01*
X-52722Y-106278D01*
X-52200Y-105497D01*
X-52017Y-104575D01*
Y-101425D01*
X-52200Y-100504D01*
X-52722Y-99722D01*
X-53504Y-99200D01*
X-54425Y-99017D01*
D02*
G37*
G36*
X27852Y-105728D02*
X27148D01*
X26496Y-105998D01*
X25998Y-106496D01*
X25728Y-107148D01*
Y-107852D01*
X25998Y-108504D01*
X26496Y-109002D01*
X27148Y-109272D01*
X27852D01*
X28504Y-109002D01*
X29002Y-108504D01*
X29272Y-107852D01*
Y-107148D01*
X29002Y-106496D01*
X28504Y-105998D01*
X27852Y-105728D01*
D02*
G37*
G36*
X-39679Y-107697D02*
X-40384D01*
X-41035Y-107967D01*
X-41533Y-108465D01*
X-41803Y-109116D01*
Y-109821D01*
X-41533Y-110472D01*
X-41035Y-110970D01*
X-40384Y-111240D01*
X-39679D01*
X-39028Y-110970D01*
X-38530Y-110472D01*
X-38260Y-109821D01*
Y-109116D01*
X-38530Y-108465D01*
X-39028Y-107967D01*
X-39679Y-107697D01*
D02*
G37*
G36*
X-39648Y-112228D02*
X-40352D01*
X-41004Y-112498D01*
X-41502Y-112996D01*
X-41772Y-113648D01*
Y-114352D01*
X-41502Y-115004D01*
X-41004Y-115502D01*
X-40352Y-115772D01*
X-39648D01*
X-38996Y-115502D01*
X-38498Y-115004D01*
X-38228Y-114352D01*
Y-113648D01*
X-38498Y-112996D01*
X-38996Y-112498D01*
X-39648Y-112228D01*
D02*
G37*
%LPD*%
D74*
X-56000Y-23000D02*
X-33500D01*
X-15500Y35000D02*
X15500D01*
X-24500Y44000D02*
X-15500Y35000D01*
D75*
X-25500Y7500D02*
X-22000Y11000D01*
X-6618D01*
X-5869Y10251D02*
X9251D01*
X-6618Y11000D02*
X-5869Y10251D01*
X2987Y17987D02*
X24325Y39325D01*
X-18477Y17987D02*
X2987D01*
X29500Y23000D02*
Y30500D01*
X9251Y10251D02*
X29500Y30500D01*
X38884Y39884D01*
X22152Y50885D02*
X24325Y53058D01*
X-19763Y71407D02*
X26593D01*
X38884Y49256D02*
Y59116D01*
X26593Y71407D02*
X38884Y59116D01*
X-39885Y50885D02*
X22152D01*
X-56000Y77000D02*
X-48516Y69516D01*
X-21654D01*
X-19763Y71407D01*
X-56000Y67000D02*
X-39885Y50885D01*
X29658Y-64500D02*
X42158Y-77000D01*
X52500D01*
X38884Y39884D02*
Y49256D01*
X24325Y39325D02*
Y53058D01*
X52500Y-77000D02*
X58000Y-71500D01*
D77*
X-56000Y-3000D02*
D03*
Y-13000D02*
D03*
Y7000D02*
D03*
Y-43000D02*
D03*
Y-33000D02*
D03*
Y17000D02*
D03*
Y57000D02*
D03*
Y-93000D02*
D03*
Y-83000D02*
D03*
Y-63000D02*
D03*
Y-53000D02*
D03*
Y-73000D02*
D03*
Y27000D02*
D03*
Y37000D02*
D03*
Y77000D02*
D03*
Y87000D02*
D03*
Y47000D02*
D03*
Y67000D02*
D03*
Y-23000D02*
D03*
D78*
Y-103000D02*
D03*
D79*
X7008Y117500D02*
D03*
X-27008D02*
D03*
D80*
X7008Y101043D02*
D03*
X-27008D02*
D03*
D81*
X1378Y104512D02*
D03*
X-21378D02*
D03*
D82*
X51000Y15000D02*
D03*
X30000Y-8500D02*
D03*
X29358Y-14642D02*
D03*
X-27500Y32500D02*
D03*
X-23400Y36400D02*
D03*
X-43000Y121319D02*
D03*
X-25500Y7500D02*
D03*
X44500Y103000D02*
D03*
X-18477Y17987D02*
D03*
X63500Y-43000D02*
D03*
X37000D02*
D03*
X-18293Y-34307D02*
D03*
X-24144Y-36429D02*
D03*
X51140Y-20106D02*
D03*
X19500Y5500D02*
D03*
X48660Y84000D02*
D03*
X43502Y95504D02*
D03*
X-37000Y90500D02*
D03*
X-12500Y104000D02*
D03*
X-7500D02*
D03*
X-4849Y78849D02*
D03*
X28500Y94000D02*
D03*
X22728Y95746D02*
D03*
X-43000Y113000D02*
D03*
Y117097D02*
D03*
X-43091Y109226D02*
D03*
X-43000Y105840D02*
D03*
Y102500D02*
D03*
X-58006Y109778D02*
D03*
X-57944Y114071D02*
D03*
X-58000Y106000D02*
D03*
X-30196Y-43549D02*
D03*
X-32500Y-38500D02*
D03*
X11000Y-99660D02*
D03*
X5500D02*
D03*
X39Y-99620D02*
D03*
X60000Y-80500D02*
D03*
X45000Y-52000D02*
D03*
X27881Y-56119D02*
D03*
X24500Y-26166D02*
D03*
X23998Y-20448D02*
D03*
X56002D02*
D03*
X29500Y23000D02*
D03*
X23500Y19500D02*
D03*
X32116Y26000D02*
D03*
X-15500Y91000D02*
D03*
X46000Y-103000D02*
D03*
X41000D02*
D03*
X-40500Y74500D02*
D03*
X18224Y111181D02*
D03*
X-33500Y63000D02*
D03*
X-29000Y59000D02*
D03*
X42000Y27500D02*
D03*
X24325Y53058D02*
D03*
X28000Y53000D02*
D03*
X17000Y-10000D02*
D03*
X27000Y63000D02*
D03*
X18500Y23500D02*
D03*
Y28000D02*
D03*
X20744Y53369D02*
D03*
X5500Y64500D02*
D03*
X5583Y68922D02*
D03*
X-28000Y75000D02*
D03*
X-15500Y0D02*
D03*
X44000Y-6000D02*
D03*
X43000Y-68500D02*
D03*
X40697Y-90697D02*
D03*
X44000Y-79500D02*
D03*
X48000Y-6000D02*
D03*
X52000D02*
D03*
X-47000Y-12000D02*
D03*
X-33500Y-23000D02*
D03*
X-8000Y-20000D02*
D03*
X-20029Y-13272D02*
D03*
X-40000Y-114000D02*
D03*
X-40031Y-109468D02*
D03*
X-41500Y-89500D02*
D03*
Y-94000D02*
D03*
X-3000Y-20000D02*
D03*
X2000D02*
D03*
X-24313Y-8988D02*
D03*
X-20000Y2000D02*
D03*
X29658Y-64500D02*
D03*
X18796Y-55796D02*
D03*
X15500Y-83500D02*
D03*
X27500Y-92500D02*
D03*
Y-97500D02*
D03*
Y-102500D02*
D03*
Y-107500D02*
D03*
X15500Y35000D02*
D03*
X38884Y49256D02*
D03*
X16902Y85000D02*
D03*
X38884Y64500D02*
D03*
X42500Y40244D02*
D03*
X20500Y80000D02*
D03*
X58000Y-71500D02*
D03*
X48500D02*
D03*
X51500Y-48000D02*
D03*
X16651Y-13849D02*
D03*
X51500Y77000D02*
D03*
X48500Y80000D02*
D03*
X500Y78384D02*
D03*
X-1901Y48401D02*
D03*
X60299Y-88299D02*
D03*
X-8000Y6500D02*
D03*
X-43500Y-65000D02*
D03*
X16000Y91500D02*
D03*
X60186Y58814D02*
D03*
X58500Y69000D02*
D03*
X45500Y115000D02*
D03*
Y119500D02*
D03*
X21500Y103000D02*
D03*
Y110500D02*
D03*
X20744Y61256D02*
D03*
X-24500Y44000D02*
D03*
X-43000Y10000D02*
D03*
Y20000D02*
D03*
X-3626Y93626D02*
D03*
X-28500Y-119500D02*
D03*
X27500D02*
D03*
X15500Y-94500D02*
D03*
Y-89000D02*
D03*
X11000Y-79500D02*
D03*
X5500D02*
D03*
X0D02*
D03*
X-5000Y-83500D02*
D03*
Y-89000D02*
D03*
Y-94500D02*
D03*
X-23500Y-104500D02*
D03*
X-27500Y-99500D02*
D03*
X10500Y86500D02*
D03*
Y90000D02*
D03*
X641Y83509D02*
D03*
X-37000Y82500D02*
D03*
X-47000Y72000D02*
D03*
M02*
