G04*
G04 #@! TF.GenerationSoftware,Altium Limited,Altium Designer,25.2.1 (25)*
G04*
G04 Layer_Color=32768*
%FSLAX25Y25*%
%MOIN*%
G70*
G04*
G04 #@! TF.SameCoordinates,6E7B483F-BFF1-4FB3-8246-CE29AB42D2EF*
G04*
G04*
G04 #@! TF.FilePolarity,Positive*
G04*
G01*
G75*
%ADD10C,0.00600*%
%ADD12C,0.00787*%
%ADD85C,0.00394*%
%ADD87C,0.00197*%
G36*
X65950Y92050D02*
X47050D01*
Y110950D01*
X65950D01*
Y92050D01*
D02*
G37*
G36*
X9750Y49850D02*
X13600D01*
Y38150D01*
X9750D01*
Y37000D01*
X2250D01*
Y41900D01*
X-1600D01*
Y46100D01*
X2250D01*
Y51000D01*
X9750D01*
Y49850D01*
D02*
G37*
G36*
X-11250D02*
X-7400D01*
Y38150D01*
X-11250D01*
Y37000D01*
X-18750D01*
Y41900D01*
X-22600D01*
Y46100D01*
X-18750D01*
Y51000D01*
X-11250D01*
Y49850D01*
D02*
G37*
G36*
X32650Y17004D02*
X33850D01*
Y7997D01*
X32650D01*
Y7350D01*
X22350D01*
Y7997D01*
X21150D01*
Y17004D01*
X22350D01*
Y17650D01*
X32650D01*
Y17004D01*
D02*
G37*
G36*
X59700Y-36300D02*
X20300D01*
Y-10700D01*
X59700D01*
Y-36300D01*
D02*
G37*
G36*
X-15700Y-43700D02*
X-41300D01*
Y-4300D01*
X-15700D01*
Y-43700D01*
D02*
G37*
D10*
X32650Y17004D02*
X33850D01*
X32650D02*
Y17650D01*
X33850Y7997D02*
Y17004D01*
X32650Y7997D02*
X33850D01*
X32650Y7350D02*
Y7997D01*
X22350Y17650D02*
X32650D01*
X22350Y17004D02*
Y17650D01*
X21150Y17004D02*
X22350D01*
Y7350D02*
X32650D01*
X21150Y7997D02*
X22350D01*
X21150D02*
Y17004D01*
X22350Y7350D02*
Y7997D01*
X59700Y-36300D02*
Y-10700D01*
X20300D02*
X59700D01*
X20300Y-36300D02*
X59700D01*
X20300D02*
Y-10700D01*
X9750Y49850D02*
X13600D01*
X9750D02*
Y51000D01*
X13600Y38150D02*
Y49850D01*
X9750Y38150D02*
X13600D01*
X9750Y37000D02*
Y38150D01*
X2250Y51000D02*
X9750D01*
X2250Y46100D02*
Y51000D01*
X-1600Y46100D02*
X2250D01*
Y37000D02*
X9750D01*
X-1600Y41900D02*
X2250D01*
X-1600D02*
Y46100D01*
X2250Y37000D02*
Y41900D01*
X-11250Y49850D02*
X-7400D01*
X-11250D02*
Y51000D01*
X-7400Y38150D02*
Y49850D01*
X-11250Y38150D02*
X-7400D01*
X-11250Y37000D02*
Y38150D01*
X-18750Y51000D02*
X-11250D01*
X-18750Y46100D02*
Y51000D01*
X-22600Y46100D02*
X-18750D01*
Y37000D02*
X-11250D01*
X-22600Y41900D02*
X-18750D01*
X-22600D02*
Y46100D01*
X-18750Y37000D02*
Y41900D01*
X-15700Y-43700D02*
Y-4300D01*
X-41300D02*
X-15700D01*
X-41300Y-43700D02*
X-15700D01*
X-41300D02*
Y-4300D01*
X63900Y110950D02*
X65950D01*
X49100D02*
X63900D01*
X65950Y92050D02*
Y110950D01*
X63900Y92050D02*
X65950D01*
X49100D02*
X63900D01*
X47050Y110950D02*
X49100D01*
X47050Y92050D02*
X49100D01*
X47050D02*
Y110950D01*
D12*
X49665Y68972D02*
Y78028D01*
X45335D02*
X49665D01*
X45335Y68972D02*
X49665D01*
X45335D02*
Y78028D01*
X43461Y66992D02*
Y80008D01*
X24539D02*
X43461D01*
X24539Y66992D02*
X43461D01*
X24539D02*
Y80008D01*
X44665Y41972D02*
Y51028D01*
X40335D02*
X44665D01*
X40335Y41972D02*
X44665D01*
X40335D02*
Y51028D01*
X64461Y43992D02*
Y57008D01*
X45539D02*
X64461D01*
X45539Y43992D02*
X64461D01*
X45539D02*
Y57008D01*
X62386Y59157D02*
Y67843D01*
X46614D02*
X62386D01*
X46614Y59157D02*
X62386D01*
X46614D02*
Y67843D01*
X-8724Y5224D02*
Y23776D01*
X-27276D02*
X-8724D01*
X-27276Y5224D02*
X-8724D01*
X-27276D02*
Y23776D01*
X28028Y55335D02*
Y59665D01*
X18972D02*
X28028D01*
X18972Y55335D02*
X28028D01*
X18972D02*
Y59665D01*
D85*
X29728Y48000D02*
X33272D01*
X31500Y46228D02*
Y49772D01*
X51000Y2531D02*
Y6469D01*
X49031Y4500D02*
X52969D01*
X52500Y-62468D02*
Y-58531D01*
X50532Y-60500D02*
X54469D01*
D87*
X37996Y44063D02*
Y51937D01*
X25004D02*
X37996D01*
X25004Y44063D02*
X37996D01*
X25004D02*
Y51937D01*
X42146Y95323D02*
Y110677D01*
X22854D02*
X42146D01*
X22854Y95323D02*
X42146D01*
X22854D02*
Y110677D01*
X58087Y-3768D02*
Y12768D01*
X43913D02*
X58087D01*
X43913Y-3768D02*
X58087D01*
X43913D02*
Y12768D01*
X-20724Y76724D02*
X3724D01*
X-20724Y52276D02*
Y76724D01*
Y52276D02*
X3724D01*
Y76724D01*
X62146Y-70146D02*
Y-50854D01*
X42854D02*
X62146D01*
X42854Y-70146D02*
X62146D01*
X42854D02*
Y-50854D01*
X38032Y-149941D02*
Y-45610D01*
X-38740D02*
X38032D01*
X-38740Y-149941D02*
X38032D01*
X-38740D02*
Y-45610D01*
X-49917Y-109378D02*
Y93378D01*
X-62083D02*
X-49917D01*
X-62083Y-109378D02*
X-49917D01*
X-62083D02*
Y93378D01*
X9287Y79758D02*
Y93242D01*
X-7287D02*
X9287D01*
X-7287Y79758D02*
X9287D01*
X-7287D02*
Y93242D01*
X9961Y95531D02*
Y128720D01*
X-29961D02*
X9961D01*
X-29961Y95531D02*
X9961D01*
X-29961D02*
Y128720D01*
M02*
