M48
;Layer_Color=9474304
;FILE_FORMAT=2:4
INCH,TZ
;TYPE=PLATED
T01F00S00C0.0079
T03F00S00C0.0433
;TYPE=NON_PLATED
T04F00S00C0.0256
%
T01
X-2850Y-11950
X2750
Y-10750
Y-10250
Y-9750
Y-9250
X1550Y-9450
Y-8900
Y-8350
X1100Y-7950
X550
X0
X-500Y-8350
Y-8900
Y-9450
X4Y-9962
X550Y-9966
X1100
X4100Y-10300
X4600
X4070Y-9070
X4400Y-7950
X4300Y-6850
X4850Y-7150
X5800
X6000Y-8050
X6030Y-8830
X6350Y-4300
X5150Y-4800
X4500Y-5200
X3700Y-4300
X2788Y-5612
X1880Y-5580
X2966Y-6450
X2450Y-2617
X2400Y-2045
X2936Y-1464
X3000Y-850
X1700Y-1000
X1665Y-1385
X200Y-2000
X-300
X-800
X-2003Y-1327
X-2431Y-899
X-2000Y200
X-1550Y0
X-800Y650
X-2550Y750
X-1848Y1799
X-2340Y3640
X-2750Y3250
X-4300Y2000
Y1000
X-4700Y-1200
X-3350Y-2300
X-3250Y-3850
X-3020Y-4355
X-2414Y-3643
X-1829Y-3431
X-4350Y-6500
X-4150Y-8950
Y-9400
X-4003Y-10947
X-4000Y-11400
X-2350Y-10450
X-2750Y-9950
X1950Y550
X2350Y1950
X1850Y2350
Y2800
X1550Y3500
X3212Y2600
X2950Y2300
X4200Y2750
X5100Y1500
X5200Y-600
X4800
X4400
X5114Y-2011
X5600Y-2045
X-5800Y10600
X-5801Y10978
X-5794Y11407
X-4300Y11300
X-4309Y10923
X-4300Y10584
Y10250
Y11710
Y12132
X-3700Y9050
Y8250
X-4050Y7450
X-4700Y7200
X-2800Y7500
X-2900Y5900
X-3350Y6300
X-2450Y4400
X-190Y4840
X550Y6450
X558Y6892
X50Y7838
X64Y8351
X-485Y7885
X-363Y9363
X-750Y10400
X-1250
X-1550Y9100
X1050Y9000
Y8650
X1690Y8500
X1600Y9150
X2273Y9575
X2850Y9400
X2150Y10300
Y11050
X1822Y11118
X4550Y11500
Y11950
X4450Y10300
X4350Y9550
X4866Y8400
X4850Y8000
X5150Y7700
X5850Y6900
X6019Y5881
X3888Y6450
X2700Y6300
X2074Y6126
Y5337
X2433Y5306
X2800Y5300
X3888Y4926
X4250Y4024
X2050Y8000
T03
X-5600Y-10300
Y-9300
Y-8300
Y-7300
Y-6300
Y-5300
Y-4300
Y-3300
Y-2300
Y-1300
Y-300
Y700
Y1700
Y2700
Y3700
Y4700
Y5700
Y6700
Y7700
Y8700
T04
X-2138Y10451
X138
M30
