G04*
G04 #@! TF.GenerationSoftware,Altium Limited,Altium Designer,25.2.1 (25)*
G04*
G04 Layer_Color=2752767*
%FSLAX25Y25*%
%MOIN*%
G70*
G04*
G04 #@! TF.SameCoordinates,6E7B483F-BFF1-4FB3-8246-CE29AB42D2EF*
G04*
G04*
G04 #@! TF.FilePolarity,Positive*
G04*
G01*
G75*
%ADD15C,0.00500*%
%ADD88C,0.00667*%
D15*
X-58000Y-5000D02*
X-57000Y-3000D01*
X-58000Y-1000D01*
X-56000Y-2000D01*
X-54000Y-1000D01*
X-55000Y-3000D01*
X-54000Y-5000D01*
X-56000Y-4000D01*
X-58000Y-5000D01*
Y-15000D02*
X-57000Y-13000D01*
X-58000Y-11000D01*
X-56000Y-12000D01*
X-54000Y-11000D01*
X-55000Y-13000D01*
X-54000Y-15000D01*
X-56000Y-14000D01*
X-58000Y-15000D01*
Y5000D02*
X-57000Y7000D01*
X-58000Y9000D01*
X-56000Y8000D01*
X-54000Y9000D01*
X-55000Y7000D01*
X-54000Y5000D01*
X-56000Y6000D01*
X-58000Y5000D01*
Y-45000D02*
X-57000Y-43000D01*
X-58000Y-41000D01*
X-56000Y-42000D01*
X-54000Y-41000D01*
X-55000Y-43000D01*
X-54000Y-45000D01*
X-56000Y-44000D01*
X-58000Y-45000D01*
Y-35000D02*
X-57000Y-33000D01*
X-58000Y-31000D01*
X-56000Y-32000D01*
X-54000Y-31000D01*
X-55000Y-33000D01*
X-54000Y-35000D01*
X-56000Y-34000D01*
X-58000Y-35000D01*
Y15000D02*
X-57000Y17000D01*
X-58000Y19000D01*
X-56000Y18000D01*
X-54000Y19000D01*
X-55000Y17000D01*
X-54000Y15000D01*
X-56000Y16000D01*
X-58000Y15000D01*
Y55000D02*
X-57000Y57000D01*
X-58000Y59000D01*
X-56000Y58000D01*
X-54000Y59000D01*
X-55000Y57000D01*
X-54000Y55000D01*
X-56000Y56000D01*
X-58000Y55000D01*
Y-95000D02*
X-57000Y-93000D01*
X-58000Y-91000D01*
X-56000Y-92000D01*
X-54000Y-91000D01*
X-55000Y-93000D01*
X-54000Y-95000D01*
X-56000Y-94000D01*
X-58000Y-95000D01*
Y-85000D02*
X-57000Y-83000D01*
X-58000Y-81000D01*
X-56000Y-82000D01*
X-54000Y-81000D01*
X-55000Y-83000D01*
X-54000Y-85000D01*
X-56000Y-84000D01*
X-58000Y-85000D01*
Y-65000D02*
X-57000Y-63000D01*
X-58000Y-61000D01*
X-56000Y-62000D01*
X-54000Y-61000D01*
X-55000Y-63000D01*
X-54000Y-65000D01*
X-56000Y-64000D01*
X-58000Y-65000D01*
Y-55000D02*
X-57000Y-53000D01*
X-58000Y-51000D01*
X-56000Y-52000D01*
X-54000Y-51000D01*
X-55000Y-53000D01*
X-54000Y-55000D01*
X-56000Y-54000D01*
X-58000Y-55000D01*
Y-75000D02*
X-57000Y-73000D01*
X-58000Y-71000D01*
X-56000Y-72000D01*
X-54000Y-71000D01*
X-55000Y-73000D01*
X-54000Y-75000D01*
X-56000Y-74000D01*
X-58000Y-75000D01*
Y25000D02*
X-57000Y27000D01*
X-58000Y29000D01*
X-56000Y28000D01*
X-54000Y29000D01*
X-55000Y27000D01*
X-54000Y25000D01*
X-56000Y26000D01*
X-58000Y25000D01*
Y35000D02*
X-57000Y37000D01*
X-58000Y39000D01*
X-56000Y38000D01*
X-54000Y39000D01*
X-55000Y37000D01*
X-54000Y35000D01*
X-56000Y36000D01*
X-58000Y35000D01*
Y75000D02*
X-57000Y77000D01*
X-58000Y79000D01*
X-56000Y78000D01*
X-54000Y79000D01*
X-55000Y77000D01*
X-54000Y75000D01*
X-56000Y76000D01*
X-58000Y75000D01*
Y85000D02*
X-57000Y87000D01*
X-58000Y89000D01*
X-56000Y88000D01*
X-54000Y89000D01*
X-55000Y87000D01*
X-54000Y85000D01*
X-56000Y86000D01*
X-58000Y85000D01*
Y45000D02*
X-57000Y47000D01*
X-58000Y49000D01*
X-56000Y48000D01*
X-54000Y49000D01*
X-55000Y47000D01*
X-54000Y45000D01*
X-56000Y46000D01*
X-58000Y45000D01*
Y65000D02*
X-57000Y67000D01*
X-58000Y69000D01*
X-56000Y68000D01*
X-54000Y69000D01*
X-55000Y67000D01*
X-54000Y65000D01*
X-56000Y66000D01*
X-58000Y65000D01*
Y-105000D02*
X-57000Y-103000D01*
X-58000Y-101000D01*
X-56000Y-102000D01*
X-54000Y-101000D01*
X-55000Y-103000D01*
X-54000Y-105000D01*
X-56000Y-104000D01*
X-58000Y-105000D01*
Y-25000D02*
X-57000Y-23000D01*
X-58000Y-21000D01*
X-56000Y-22000D01*
X-54000Y-21000D01*
X-55000Y-23000D01*
X-54000Y-25000D01*
X-56000Y-24000D01*
X-58000Y-25000D01*
X5008Y115500D02*
Y119500D01*
X9008D01*
Y115500D01*
X5008D01*
X1378Y102512D02*
X-622Y106512D01*
X3378D01*
X1378Y102512D01*
X-29008Y115500D02*
Y119500D01*
X-25008D01*
Y115500D01*
X-29008D01*
X-21378Y102512D02*
X-23378Y106512D01*
X-19378D01*
X-21378Y102512D01*
X51000Y13000D02*
X52000Y14000D01*
X53000D01*
X52000Y15000D01*
X53000Y16000D01*
X52000D01*
X51000Y17000D01*
X50000Y16000D01*
X49000D01*
X50000Y15000D01*
X49000Y14000D01*
X50000D01*
X51000Y13000D01*
X30000Y-10500D02*
X31000Y-9500D01*
X32000D01*
X31000Y-8500D01*
X32000Y-7500D01*
X31000D01*
X30000Y-6500D01*
X29000Y-7500D01*
X28000D01*
X29000Y-8500D01*
X28000Y-9500D01*
X29000D01*
X30000Y-10500D01*
X29358Y-16642D02*
X30358Y-15642D01*
X31358D01*
X30358Y-14642D01*
X31358Y-13642D01*
X30358D01*
X29358Y-12642D01*
X28358Y-13642D01*
X27358D01*
X28358Y-14642D01*
X27358Y-15642D01*
X28358D01*
X29358Y-16642D01*
X-27500Y30500D02*
X-26500Y31500D01*
X-25500D01*
X-26500Y32500D01*
X-25500Y33500D01*
X-26500D01*
X-27500Y34500D01*
X-28500Y33500D01*
X-29500D01*
X-28500Y32500D01*
X-29500Y31500D01*
X-28500D01*
X-27500Y30500D01*
X-23400Y34400D02*
X-22400Y35400D01*
X-21400D01*
X-22400Y36400D01*
X-21400Y37400D01*
X-22400D01*
X-23400Y38400D01*
X-24400Y37400D01*
X-25400D01*
X-24400Y36400D01*
X-25400Y35400D01*
X-24400D01*
X-23400Y34400D01*
X-43000Y119319D02*
X-42000Y120319D01*
X-41000D01*
X-42000Y121319D01*
X-41000Y122319D01*
X-42000D01*
X-43000Y123319D01*
X-44000Y122319D01*
X-45000D01*
X-44000Y121319D01*
X-45000Y120319D01*
X-44000D01*
X-43000Y119319D01*
X-25500Y5500D02*
X-24500Y6500D01*
X-23500D01*
X-24500Y7500D01*
X-23500Y8500D01*
X-24500D01*
X-25500Y9500D01*
X-26500Y8500D01*
X-27500D01*
X-26500Y7500D01*
X-27500Y6500D01*
X-26500D01*
X-25500Y5500D01*
X44500Y101000D02*
X45500Y102000D01*
X46500D01*
X45500Y103000D01*
X46500Y104000D01*
X45500D01*
X44500Y105000D01*
X43500Y104000D01*
X42500D01*
X43500Y103000D01*
X42500Y102000D01*
X43500D01*
X44500Y101000D01*
X-18477Y15987D02*
X-17477Y16987D01*
X-16477D01*
X-17477Y17987D01*
X-16477Y18987D01*
X-17477D01*
X-18477Y19987D01*
X-19477Y18987D01*
X-20477D01*
X-19477Y17987D01*
X-20477Y16987D01*
X-19477D01*
X-18477Y15987D01*
X63500Y-45000D02*
X64500Y-44000D01*
X65500D01*
X64500Y-43000D01*
X65500Y-42000D01*
X64500D01*
X63500Y-41000D01*
X62500Y-42000D01*
X61500D01*
X62500Y-43000D01*
X61500Y-44000D01*
X62500D01*
X63500Y-45000D01*
X37000D02*
X38000Y-44000D01*
X39000D01*
X38000Y-43000D01*
X39000Y-42000D01*
X38000D01*
X37000Y-41000D01*
X36000Y-42000D01*
X35000D01*
X36000Y-43000D01*
X35000Y-44000D01*
X36000D01*
X37000Y-45000D01*
X-18293Y-36307D02*
X-17293Y-35307D01*
X-16293D01*
X-17293Y-34307D01*
X-16293Y-33307D01*
X-17293D01*
X-18293Y-32307D01*
X-19293Y-33307D01*
X-20293D01*
X-19293Y-34307D01*
X-20293Y-35307D01*
X-19293D01*
X-18293Y-36307D01*
X-24144Y-38429D02*
X-23144Y-37429D01*
X-22144D01*
X-23144Y-36429D01*
X-22144Y-35429D01*
X-23144D01*
X-24144Y-34429D01*
X-25144Y-35429D01*
X-26144D01*
X-25144Y-36429D01*
X-26144Y-37429D01*
X-25144D01*
X-24144Y-38429D01*
X51140Y-22106D02*
X52140Y-21106D01*
X53140D01*
X52140Y-20106D01*
X53140Y-19106D01*
X52140D01*
X51140Y-18106D01*
X50140Y-19106D01*
X49140D01*
X50140Y-20106D01*
X49140Y-21106D01*
X50140D01*
X51140Y-22106D01*
X19500Y3500D02*
X20500Y4500D01*
X21500D01*
X20500Y5500D01*
X21500Y6500D01*
X20500D01*
X19500Y7500D01*
X18500Y6500D01*
X17500D01*
X18500Y5500D01*
X17500Y4500D01*
X18500D01*
X19500Y3500D01*
X48660Y82000D02*
X49660Y83000D01*
X50660D01*
X49660Y84000D01*
X50660Y85000D01*
X49660D01*
X48660Y86000D01*
X47660Y85000D01*
X46660D01*
X47660Y84000D01*
X46660Y83000D01*
X47660D01*
X48660Y82000D01*
X43502Y93504D02*
X44502Y94504D01*
X45502D01*
X44502Y95504D01*
X45502Y96504D01*
X44502D01*
X43502Y97504D01*
X42502Y96504D01*
X41502D01*
X42502Y95504D01*
X41502Y94504D01*
X42502D01*
X43502Y93504D01*
X-37000Y88500D02*
X-36000Y89500D01*
X-35000D01*
X-36000Y90500D01*
X-35000Y91500D01*
X-36000D01*
X-37000Y92500D01*
X-38000Y91500D01*
X-39000D01*
X-38000Y90500D01*
X-39000Y89500D01*
X-38000D01*
X-37000Y88500D01*
X-12500Y102000D02*
X-11500Y103000D01*
X-10500D01*
X-11500Y104000D01*
X-10500Y105000D01*
X-11500D01*
X-12500Y106000D01*
X-13500Y105000D01*
X-14500D01*
X-13500Y104000D01*
X-14500Y103000D01*
X-13500D01*
X-12500Y102000D01*
X-7500D02*
X-6500Y103000D01*
X-5500D01*
X-6500Y104000D01*
X-5500Y105000D01*
X-6500D01*
X-7500Y106000D01*
X-8500Y105000D01*
X-9500D01*
X-8500Y104000D01*
X-9500Y103000D01*
X-8500D01*
X-7500Y102000D01*
X-4849Y76849D02*
X-3849Y77849D01*
X-2849D01*
X-3849Y78849D01*
X-2849Y79849D01*
X-3849D01*
X-4849Y80849D01*
X-5849Y79849D01*
X-6849D01*
X-5849Y78849D01*
X-6849Y77849D01*
X-5849D01*
X-4849Y76849D01*
X28500Y92000D02*
X29500Y93000D01*
X30500D01*
X29500Y94000D01*
X30500Y95000D01*
X29500D01*
X28500Y96000D01*
X27500Y95000D01*
X26500D01*
X27500Y94000D01*
X26500Y93000D01*
X27500D01*
X28500Y92000D01*
X22728Y93746D02*
X23728Y94746D01*
X24728D01*
X23728Y95746D01*
X24728Y96746D01*
X23728D01*
X22728Y97746D01*
X21728Y96746D01*
X20728D01*
X21728Y95746D01*
X20728Y94746D01*
X21728D01*
X22728Y93746D01*
X-43000Y111000D02*
X-42000Y112000D01*
X-41000D01*
X-42000Y113000D01*
X-41000Y114000D01*
X-42000D01*
X-43000Y115000D01*
X-44000Y114000D01*
X-45000D01*
X-44000Y113000D01*
X-45000Y112000D01*
X-44000D01*
X-43000Y111000D01*
Y115097D02*
X-42000Y116097D01*
X-41000D01*
X-42000Y117097D01*
X-41000Y118097D01*
X-42000D01*
X-43000Y119097D01*
X-44000Y118097D01*
X-45000D01*
X-44000Y117097D01*
X-45000Y116097D01*
X-44000D01*
X-43000Y115097D01*
X-43091Y107226D02*
X-42091Y108226D01*
X-41091D01*
X-42091Y109226D01*
X-41091Y110226D01*
X-42091D01*
X-43091Y111226D01*
X-44091Y110226D01*
X-45091D01*
X-44091Y109226D01*
X-45091Y108226D01*
X-44091D01*
X-43091Y107226D01*
X-43000Y103840D02*
X-42000Y104840D01*
X-41000D01*
X-42000Y105840D01*
X-41000Y106840D01*
X-42000D01*
X-43000Y107840D01*
X-44000Y106840D01*
X-45000D01*
X-44000Y105840D01*
X-45000Y104840D01*
X-44000D01*
X-43000Y103840D01*
Y100500D02*
X-42000Y101500D01*
X-41000D01*
X-42000Y102500D01*
X-41000Y103500D01*
X-42000D01*
X-43000Y104500D01*
X-44000Y103500D01*
X-45000D01*
X-44000Y102500D01*
X-45000Y101500D01*
X-44000D01*
X-43000Y100500D01*
X-58006Y107778D02*
X-57006Y108778D01*
X-56006D01*
X-57006Y109778D01*
X-56006Y110778D01*
X-57006D01*
X-58006Y111778D01*
X-59006Y110778D01*
X-60006D01*
X-59006Y109778D01*
X-60006Y108778D01*
X-59006D01*
X-58006Y107778D01*
X-57944Y112071D02*
X-56944Y113071D01*
X-55944D01*
X-56944Y114071D01*
X-55944Y115071D01*
X-56944D01*
X-57944Y116071D01*
X-58944Y115071D01*
X-59944D01*
X-58944Y114071D01*
X-59944Y113071D01*
X-58944D01*
X-57944Y112071D01*
X-58000Y104000D02*
X-57000Y105000D01*
X-56000D01*
X-57000Y106000D01*
X-56000Y107000D01*
X-57000D01*
X-58000Y108000D01*
X-59000Y107000D01*
X-60000D01*
X-59000Y106000D01*
X-60000Y105000D01*
X-59000D01*
X-58000Y104000D01*
X-30196Y-45549D02*
X-29196Y-44549D01*
X-28196D01*
X-29196Y-43549D01*
X-28196Y-42549D01*
X-29196D01*
X-30196Y-41549D01*
X-31196Y-42549D01*
X-32196D01*
X-31196Y-43549D01*
X-32196Y-44549D01*
X-31196D01*
X-30196Y-45549D01*
X-32500Y-40500D02*
X-31500Y-39500D01*
X-30500D01*
X-31500Y-38500D01*
X-30500Y-37500D01*
X-31500D01*
X-32500Y-36500D01*
X-33500Y-37500D01*
X-34500D01*
X-33500Y-38500D01*
X-34500Y-39500D01*
X-33500D01*
X-32500Y-40500D01*
X11000Y-101660D02*
X12000Y-100660D01*
X13000D01*
X12000Y-99660D01*
X13000Y-98660D01*
X12000D01*
X11000Y-97660D01*
X10000Y-98660D01*
X9000D01*
X10000Y-99660D01*
X9000Y-100660D01*
X10000D01*
X11000Y-101660D01*
X5500D02*
X6500Y-100660D01*
X7500D01*
X6500Y-99660D01*
X7500Y-98660D01*
X6500D01*
X5500Y-97660D01*
X4500Y-98660D01*
X3500D01*
X4500Y-99660D01*
X3500Y-100660D01*
X4500D01*
X5500Y-101660D01*
X39Y-101620D02*
X1039Y-100620D01*
X2039D01*
X1039Y-99620D01*
X2039Y-98620D01*
X1039D01*
X39Y-97620D01*
X-961Y-98620D01*
X-1961D01*
X-961Y-99620D01*
X-1961Y-100620D01*
X-961D01*
X39Y-101620D01*
X60000Y-82500D02*
X61000Y-81500D01*
X62000D01*
X61000Y-80500D01*
X62000Y-79500D01*
X61000D01*
X60000Y-78500D01*
X59000Y-79500D01*
X58000D01*
X59000Y-80500D01*
X58000Y-81500D01*
X59000D01*
X60000Y-82500D01*
X45000Y-54000D02*
X46000Y-53000D01*
X47000D01*
X46000Y-52000D01*
X47000Y-51000D01*
X46000D01*
X45000Y-50000D01*
X44000Y-51000D01*
X43000D01*
X44000Y-52000D01*
X43000Y-53000D01*
X44000D01*
X45000Y-54000D01*
X27881Y-58119D02*
X28881Y-57119D01*
X29881D01*
X28881Y-56119D01*
X29881Y-55119D01*
X28881D01*
X27881Y-54119D01*
X26881Y-55119D01*
X25881D01*
X26881Y-56119D01*
X25881Y-57119D01*
X26881D01*
X27881Y-58119D01*
X24500Y-28166D02*
X25500Y-27166D01*
X26500D01*
X25500Y-26166D01*
X26500Y-25166D01*
X25500D01*
X24500Y-24166D01*
X23500Y-25166D01*
X22500D01*
X23500Y-26166D01*
X22500Y-27166D01*
X23500D01*
X24500Y-28166D01*
X23998Y-22448D02*
X24998Y-21448D01*
X25998D01*
X24998Y-20448D01*
X25998Y-19448D01*
X24998D01*
X23998Y-18448D01*
X22998Y-19448D01*
X21998D01*
X22998Y-20448D01*
X21998Y-21448D01*
X22998D01*
X23998Y-22448D01*
X56002D02*
X57002Y-21448D01*
X58002D01*
X57002Y-20448D01*
X58002Y-19448D01*
X57002D01*
X56002Y-18448D01*
X55002Y-19448D01*
X54002D01*
X55002Y-20448D01*
X54002Y-21448D01*
X55002D01*
X56002Y-22448D01*
X29500Y21000D02*
X30500Y22000D01*
X31500D01*
X30500Y23000D01*
X31500Y24000D01*
X30500D01*
X29500Y25000D01*
X28500Y24000D01*
X27500D01*
X28500Y23000D01*
X27500Y22000D01*
X28500D01*
X29500Y21000D01*
X23500Y17500D02*
X24500Y18500D01*
X25500D01*
X24500Y19500D01*
X25500Y20500D01*
X24500D01*
X23500Y21500D01*
X22500Y20500D01*
X21500D01*
X22500Y19500D01*
X21500Y18500D01*
X22500D01*
X23500Y17500D01*
X32116Y24000D02*
X33116Y25000D01*
X34116D01*
X33116Y26000D01*
X34116Y27000D01*
X33116D01*
X32116Y28000D01*
X31116Y27000D01*
X30116D01*
X31116Y26000D01*
X30116Y25000D01*
X31116D01*
X32116Y24000D01*
X-15500Y89000D02*
X-14500Y90000D01*
X-13500D01*
X-14500Y91000D01*
X-13500Y92000D01*
X-14500D01*
X-15500Y93000D01*
X-16500Y92000D01*
X-17500D01*
X-16500Y91000D01*
X-17500Y90000D01*
X-16500D01*
X-15500Y89000D01*
X46000Y-105000D02*
X47000Y-104000D01*
X48000D01*
X47000Y-103000D01*
X48000Y-102000D01*
X47000D01*
X46000Y-101000D01*
X45000Y-102000D01*
X44000D01*
X45000Y-103000D01*
X44000Y-104000D01*
X45000D01*
X46000Y-105000D01*
X41000D02*
X42000Y-104000D01*
X43000D01*
X42000Y-103000D01*
X43000Y-102000D01*
X42000D01*
X41000Y-101000D01*
X40000Y-102000D01*
X39000D01*
X40000Y-103000D01*
X39000Y-104000D01*
X40000D01*
X41000Y-105000D01*
X-40500Y72500D02*
X-39500Y73500D01*
X-38500D01*
X-39500Y74500D01*
X-38500Y75500D01*
X-39500D01*
X-40500Y76500D01*
X-41500Y75500D01*
X-42500D01*
X-41500Y74500D01*
X-42500Y73500D01*
X-41500D01*
X-40500Y72500D01*
X18224Y109181D02*
X19224Y110181D01*
X20224D01*
X19224Y111181D01*
X20224Y112181D01*
X19224D01*
X18224Y113181D01*
X17224Y112181D01*
X16224D01*
X17224Y111181D01*
X16224Y110181D01*
X17224D01*
X18224Y109181D01*
X-33500Y61000D02*
X-32500Y62000D01*
X-31500D01*
X-32500Y63000D01*
X-31500Y64000D01*
X-32500D01*
X-33500Y65000D01*
X-34500Y64000D01*
X-35500D01*
X-34500Y63000D01*
X-35500Y62000D01*
X-34500D01*
X-33500Y61000D01*
X-29000Y57000D02*
X-28000Y58000D01*
X-27000D01*
X-28000Y59000D01*
X-27000Y60000D01*
X-28000D01*
X-29000Y61000D01*
X-30000Y60000D01*
X-31000D01*
X-30000Y59000D01*
X-31000Y58000D01*
X-30000D01*
X-29000Y57000D01*
X42000Y25500D02*
X43000Y26500D01*
X44000D01*
X43000Y27500D01*
X44000Y28500D01*
X43000D01*
X42000Y29500D01*
X41000Y28500D01*
X40000D01*
X41000Y27500D01*
X40000Y26500D01*
X41000D01*
X42000Y25500D01*
X24325Y51058D02*
X25325Y52058D01*
X26325D01*
X25325Y53058D01*
X26325Y54058D01*
X25325D01*
X24325Y55058D01*
X23325Y54058D01*
X22325D01*
X23325Y53058D01*
X22325Y52058D01*
X23325D01*
X24325Y51058D01*
X28000Y51000D02*
X29000Y52000D01*
X30000D01*
X29000Y53000D01*
X30000Y54000D01*
X29000D01*
X28000Y55000D01*
X27000Y54000D01*
X26000D01*
X27000Y53000D01*
X26000Y52000D01*
X27000D01*
X28000Y51000D01*
X17000Y-12000D02*
X18000Y-11000D01*
X19000D01*
X18000Y-10000D01*
X19000Y-9000D01*
X18000D01*
X17000Y-8000D01*
X16000Y-9000D01*
X15000D01*
X16000Y-10000D01*
X15000Y-11000D01*
X16000D01*
X17000Y-12000D01*
X27000Y61000D02*
X28000Y62000D01*
X29000D01*
X28000Y63000D01*
X29000Y64000D01*
X28000D01*
X27000Y65000D01*
X26000Y64000D01*
X25000D01*
X26000Y63000D01*
X25000Y62000D01*
X26000D01*
X27000Y61000D01*
X18500Y21500D02*
X19500Y22500D01*
X20500D01*
X19500Y23500D01*
X20500Y24500D01*
X19500D01*
X18500Y25500D01*
X17500Y24500D01*
X16500D01*
X17500Y23500D01*
X16500Y22500D01*
X17500D01*
X18500Y21500D01*
Y26000D02*
X19500Y27000D01*
X20500D01*
X19500Y28000D01*
X20500Y29000D01*
X19500D01*
X18500Y30000D01*
X17500Y29000D01*
X16500D01*
X17500Y28000D01*
X16500Y27000D01*
X17500D01*
X18500Y26000D01*
X20744Y51369D02*
X21744Y52369D01*
X22744D01*
X21744Y53369D01*
X22744Y54369D01*
X21744D01*
X20744Y55369D01*
X19744Y54369D01*
X18744D01*
X19744Y53369D01*
X18744Y52369D01*
X19744D01*
X20744Y51369D01*
X5500Y62500D02*
X6500Y63500D01*
X7500D01*
X6500Y64500D01*
X7500Y65500D01*
X6500D01*
X5500Y66500D01*
X4500Y65500D01*
X3500D01*
X4500Y64500D01*
X3500Y63500D01*
X4500D01*
X5500Y62500D01*
X5583Y66922D02*
X6583Y67922D01*
X7583D01*
X6583Y68922D01*
X7583Y69922D01*
X6583D01*
X5583Y70922D01*
X4583Y69922D01*
X3583D01*
X4583Y68922D01*
X3583Y67922D01*
X4583D01*
X5583Y66922D01*
X-28000Y73000D02*
X-27000Y74000D01*
X-26000D01*
X-27000Y75000D01*
X-26000Y76000D01*
X-27000D01*
X-28000Y77000D01*
X-29000Y76000D01*
X-30000D01*
X-29000Y75000D01*
X-30000Y74000D01*
X-29000D01*
X-28000Y73000D01*
X-15500Y-2000D02*
X-14500Y-1000D01*
X-13500D01*
X-14500Y0D01*
X-13500Y1000D01*
X-14500D01*
X-15500Y2000D01*
X-16500Y1000D01*
X-17500D01*
X-16500Y0D01*
X-17500Y-1000D01*
X-16500D01*
X-15500Y-2000D01*
X44000Y-8000D02*
X45000Y-7000D01*
X46000D01*
X45000Y-6000D01*
X46000Y-5000D01*
X45000D01*
X44000Y-4000D01*
X43000Y-5000D01*
X42000D01*
X43000Y-6000D01*
X42000Y-7000D01*
X43000D01*
X44000Y-8000D01*
X43000Y-70500D02*
X44000Y-69500D01*
X45000D01*
X44000Y-68500D01*
X45000Y-67500D01*
X44000D01*
X43000Y-66500D01*
X42000Y-67500D01*
X41000D01*
X42000Y-68500D01*
X41000Y-69500D01*
X42000D01*
X43000Y-70500D01*
X40697Y-92697D02*
X41697Y-91697D01*
X42697D01*
X41697Y-90697D01*
X42697Y-89697D01*
X41697D01*
X40697Y-88697D01*
X39697Y-89697D01*
X38697D01*
X39697Y-90697D01*
X38697Y-91697D01*
X39697D01*
X40697Y-92697D01*
X44000Y-81500D02*
X45000Y-80500D01*
X46000D01*
X45000Y-79500D01*
X46000Y-78500D01*
X45000D01*
X44000Y-77500D01*
X43000Y-78500D01*
X42000D01*
X43000Y-79500D01*
X42000Y-80500D01*
X43000D01*
X44000Y-81500D01*
X48000Y-8000D02*
X49000Y-7000D01*
X50000D01*
X49000Y-6000D01*
X50000Y-5000D01*
X49000D01*
X48000Y-4000D01*
X47000Y-5000D01*
X46000D01*
X47000Y-6000D01*
X46000Y-7000D01*
X47000D01*
X48000Y-8000D01*
X52000D02*
X53000Y-7000D01*
X54000D01*
X53000Y-6000D01*
X54000Y-5000D01*
X53000D01*
X52000Y-4000D01*
X51000Y-5000D01*
X50000D01*
X51000Y-6000D01*
X50000Y-7000D01*
X51000D01*
X52000Y-8000D01*
X-47000Y-14000D02*
X-46000Y-13000D01*
X-45000D01*
X-46000Y-12000D01*
X-45000Y-11000D01*
X-46000D01*
X-47000Y-10000D01*
X-48000Y-11000D01*
X-49000D01*
X-48000Y-12000D01*
X-49000Y-13000D01*
X-48000D01*
X-47000Y-14000D01*
X-33500Y-25000D02*
X-32500Y-24000D01*
X-31500D01*
X-32500Y-23000D01*
X-31500Y-22000D01*
X-32500D01*
X-33500Y-21000D01*
X-34500Y-22000D01*
X-35500D01*
X-34500Y-23000D01*
X-35500Y-24000D01*
X-34500D01*
X-33500Y-25000D01*
X-8000Y-22000D02*
X-7000Y-21000D01*
X-6000D01*
X-7000Y-20000D01*
X-6000Y-19000D01*
X-7000D01*
X-8000Y-18000D01*
X-9000Y-19000D01*
X-10000D01*
X-9000Y-20000D01*
X-10000Y-21000D01*
X-9000D01*
X-8000Y-22000D01*
X-20029Y-15272D02*
X-19029Y-14272D01*
X-18029D01*
X-19029Y-13272D01*
X-18029Y-12272D01*
X-19029D01*
X-20029Y-11272D01*
X-21029Y-12272D01*
X-22029D01*
X-21029Y-13272D01*
X-22029Y-14272D01*
X-21029D01*
X-20029Y-15272D01*
X-40000Y-116000D02*
X-39000Y-115000D01*
X-38000D01*
X-39000Y-114000D01*
X-38000Y-113000D01*
X-39000D01*
X-40000Y-112000D01*
X-41000Y-113000D01*
X-42000D01*
X-41000Y-114000D01*
X-42000Y-115000D01*
X-41000D01*
X-40000Y-116000D01*
X-40031Y-111469D02*
X-39031Y-110468D01*
X-38032D01*
X-39031Y-109468D01*
X-38032Y-108468D01*
X-39031D01*
X-40031Y-107468D01*
X-41032Y-108468D01*
X-42031D01*
X-41032Y-109468D01*
X-42031Y-110468D01*
X-41032D01*
X-40031Y-111469D01*
X-41500Y-91500D02*
X-40500Y-90500D01*
X-39500D01*
X-40500Y-89500D01*
X-39500Y-88500D01*
X-40500D01*
X-41500Y-87500D01*
X-42500Y-88500D01*
X-43500D01*
X-42500Y-89500D01*
X-43500Y-90500D01*
X-42500D01*
X-41500Y-91500D01*
Y-96000D02*
X-40500Y-95000D01*
X-39500D01*
X-40500Y-94000D01*
X-39500Y-93000D01*
X-40500D01*
X-41500Y-92000D01*
X-42500Y-93000D01*
X-43500D01*
X-42500Y-94000D01*
X-43500Y-95000D01*
X-42500D01*
X-41500Y-96000D01*
X-3000Y-22000D02*
X-2000Y-21000D01*
X-1000D01*
X-2000Y-20000D01*
X-1000Y-19000D01*
X-2000D01*
X-3000Y-18000D01*
X-4000Y-19000D01*
X-5000D01*
X-4000Y-20000D01*
X-5000Y-21000D01*
X-4000D01*
X-3000Y-22000D01*
X2000D02*
X3000Y-21000D01*
X4000D01*
X3000Y-20000D01*
X4000Y-19000D01*
X3000D01*
X2000Y-18000D01*
X1000Y-19000D01*
X0D01*
X1000Y-20000D01*
X0Y-21000D01*
X1000D01*
X2000Y-22000D01*
X-24313Y-10988D02*
X-23313Y-9988D01*
X-22313D01*
X-23313Y-8988D01*
X-22313Y-7988D01*
X-23313D01*
X-24313Y-6988D01*
X-25313Y-7988D01*
X-26313D01*
X-25313Y-8988D01*
X-26313Y-9988D01*
X-25313D01*
X-24313Y-10988D01*
X-20000Y0D02*
X-19000Y1000D01*
X-18000D01*
X-19000Y2000D01*
X-18000Y3000D01*
X-19000D01*
X-20000Y4000D01*
X-21000Y3000D01*
X-22000D01*
X-21000Y2000D01*
X-22000Y1000D01*
X-21000D01*
X-20000Y0D01*
X29658Y-66500D02*
X30658Y-65500D01*
X31657D01*
X30658Y-64500D01*
X31657Y-63500D01*
X30658D01*
X29658Y-62500D01*
X28657Y-63500D01*
X27657D01*
X28657Y-64500D01*
X27657Y-65500D01*
X28657D01*
X29658Y-66500D01*
X18796Y-57796D02*
X19796Y-56796D01*
X20796D01*
X19796Y-55796D01*
X20796Y-54796D01*
X19796D01*
X18796Y-53796D01*
X17796Y-54796D01*
X16796D01*
X17796Y-55796D01*
X16796Y-56796D01*
X17796D01*
X18796Y-57796D01*
X15500Y-85500D02*
X16500Y-84500D01*
X17500D01*
X16500Y-83500D01*
X17500Y-82500D01*
X16500D01*
X15500Y-81500D01*
X14500Y-82500D01*
X13500D01*
X14500Y-83500D01*
X13500Y-84500D01*
X14500D01*
X15500Y-85500D01*
X27500Y-94500D02*
X28500Y-93500D01*
X29500D01*
X28500Y-92500D01*
X29500Y-91500D01*
X28500D01*
X27500Y-90500D01*
X26500Y-91500D01*
X25500D01*
X26500Y-92500D01*
X25500Y-93500D01*
X26500D01*
X27500Y-94500D01*
Y-99500D02*
X28500Y-98500D01*
X29500D01*
X28500Y-97500D01*
X29500Y-96500D01*
X28500D01*
X27500Y-95500D01*
X26500Y-96500D01*
X25500D01*
X26500Y-97500D01*
X25500Y-98500D01*
X26500D01*
X27500Y-99500D01*
Y-104500D02*
X28500Y-103500D01*
X29500D01*
X28500Y-102500D01*
X29500Y-101500D01*
X28500D01*
X27500Y-100500D01*
X26500Y-101500D01*
X25500D01*
X26500Y-102500D01*
X25500Y-103500D01*
X26500D01*
X27500Y-104500D01*
Y-109500D02*
X28500Y-108500D01*
X29500D01*
X28500Y-107500D01*
X29500Y-106500D01*
X28500D01*
X27500Y-105500D01*
X26500Y-106500D01*
X25500D01*
X26500Y-107500D01*
X25500Y-108500D01*
X26500D01*
X27500Y-109500D01*
X15500Y33000D02*
X16500Y34000D01*
X17500D01*
X16500Y35000D01*
X17500Y36000D01*
X16500D01*
X15500Y37000D01*
X14500Y36000D01*
X13500D01*
X14500Y35000D01*
X13500Y34000D01*
X14500D01*
X15500Y33000D01*
X38884Y47256D02*
X39884Y48256D01*
X40884D01*
X39884Y49256D01*
X40884Y50256D01*
X39884D01*
X38884Y51256D01*
X37884Y50256D01*
X36884D01*
X37884Y49256D01*
X36884Y48256D01*
X37884D01*
X38884Y47256D01*
X16902Y83000D02*
X17902Y84000D01*
X18902D01*
X17902Y85000D01*
X18902Y86000D01*
X17902D01*
X16902Y87000D01*
X15902Y86000D01*
X14902D01*
X15902Y85000D01*
X14902Y84000D01*
X15902D01*
X16902Y83000D01*
X38884Y62500D02*
X39884Y63500D01*
X40884D01*
X39884Y64500D01*
X40884Y65500D01*
X39884D01*
X38884Y66500D01*
X37884Y65500D01*
X36884D01*
X37884Y64500D01*
X36884Y63500D01*
X37884D01*
X38884Y62500D01*
X42500Y38244D02*
X43500Y39244D01*
X44500D01*
X43500Y40244D01*
X44500Y41244D01*
X43500D01*
X42500Y42244D01*
X41500Y41244D01*
X40500D01*
X41500Y40244D01*
X40500Y39244D01*
X41500D01*
X42500Y38244D01*
X20500Y78000D02*
X21500Y79000D01*
X22500D01*
X21500Y80000D01*
X22500Y81000D01*
X21500D01*
X20500Y82000D01*
X19500Y81000D01*
X18500D01*
X19500Y80000D01*
X18500Y79000D01*
X19500D01*
X20500Y78000D01*
X58000Y-73500D02*
X59000Y-72500D01*
X60000D01*
X59000Y-71500D01*
X60000Y-70500D01*
X59000D01*
X58000Y-69500D01*
X57000Y-70500D01*
X56000D01*
X57000Y-71500D01*
X56000Y-72500D01*
X57000D01*
X58000Y-73500D01*
X48500D02*
X49500Y-72500D01*
X50500D01*
X49500Y-71500D01*
X50500Y-70500D01*
X49500D01*
X48500Y-69500D01*
X47500Y-70500D01*
X46500D01*
X47500Y-71500D01*
X46500Y-72500D01*
X47500D01*
X48500Y-73500D01*
X51500Y-50000D02*
X52500Y-49000D01*
X53500D01*
X52500Y-48000D01*
X53500Y-47000D01*
X52500D01*
X51500Y-46000D01*
X50500Y-47000D01*
X49500D01*
X50500Y-48000D01*
X49500Y-49000D01*
X50500D01*
X51500Y-50000D01*
X16651Y-15849D02*
X17651Y-14849D01*
X18651D01*
X17651Y-13849D01*
X18651Y-12849D01*
X17651D01*
X16651Y-11849D01*
X15651Y-12849D01*
X14651D01*
X15651Y-13849D01*
X14651Y-14849D01*
X15651D01*
X16651Y-15849D01*
X51500Y75000D02*
X52500Y76000D01*
X53500D01*
X52500Y77000D01*
X53500Y78000D01*
X52500D01*
X51500Y79000D01*
X50500Y78000D01*
X49500D01*
X50500Y77000D01*
X49500Y76000D01*
X50500D01*
X51500Y75000D01*
X48500Y78000D02*
X49500Y79000D01*
X50500D01*
X49500Y80000D01*
X50500Y81000D01*
X49500D01*
X48500Y82000D01*
X47500Y81000D01*
X46500D01*
X47500Y80000D01*
X46500Y79000D01*
X47500D01*
X48500Y78000D01*
X500Y76384D02*
X1500Y77384D01*
X2500D01*
X1500Y78384D01*
X2500Y79384D01*
X1500D01*
X500Y80384D01*
X-500Y79384D01*
X-1500D01*
X-500Y78384D01*
X-1500Y77384D01*
X-500D01*
X500Y76384D01*
X-1901Y46401D02*
X-901Y47401D01*
X99D01*
X-901Y48401D01*
X99Y49401D01*
X-901D01*
X-1901Y50401D01*
X-2901Y49401D01*
X-3901D01*
X-2901Y48401D01*
X-3901Y47401D01*
X-2901D01*
X-1901Y46401D01*
X60299Y-90299D02*
X61299Y-89299D01*
X62299D01*
X61299Y-88299D01*
X62299Y-87299D01*
X61299D01*
X60299Y-86299D01*
X59299Y-87299D01*
X58299D01*
X59299Y-88299D01*
X58299Y-89299D01*
X59299D01*
X60299Y-90299D01*
X-8000Y4500D02*
X-7000Y5500D01*
X-6000D01*
X-7000Y6500D01*
X-6000Y7500D01*
X-7000D01*
X-8000Y8500D01*
X-9000Y7500D01*
X-10000D01*
X-9000Y6500D01*
X-10000Y5500D01*
X-9000D01*
X-8000Y4500D01*
X-43500Y-67000D02*
X-42500Y-66000D01*
X-41500D01*
X-42500Y-65000D01*
X-41500Y-64000D01*
X-42500D01*
X-43500Y-63000D01*
X-44500Y-64000D01*
X-45500D01*
X-44500Y-65000D01*
X-45500Y-66000D01*
X-44500D01*
X-43500Y-67000D01*
X16000Y89500D02*
X17000Y90500D01*
X18000D01*
X17000Y91500D01*
X18000Y92500D01*
X17000D01*
X16000Y93500D01*
X15000Y92500D01*
X14000D01*
X15000Y91500D01*
X14000Y90500D01*
X15000D01*
X16000Y89500D01*
X60186Y56814D02*
X61186Y57814D01*
X62186D01*
X61186Y58814D01*
X62186Y59814D01*
X61186D01*
X60186Y60814D01*
X59186Y59814D01*
X58186D01*
X59186Y58814D01*
X58186Y57814D01*
X59186D01*
X60186Y56814D01*
X58500Y67000D02*
X59500Y68000D01*
X60500D01*
X59500Y69000D01*
X60500Y70000D01*
X59500D01*
X58500Y71000D01*
X57500Y70000D01*
X56500D01*
X57500Y69000D01*
X56500Y68000D01*
X57500D01*
X58500Y67000D01*
X45500Y113000D02*
X46500Y114000D01*
X47500D01*
X46500Y115000D01*
X47500Y116000D01*
X46500D01*
X45500Y117000D01*
X44500Y116000D01*
X43500D01*
X44500Y115000D01*
X43500Y114000D01*
X44500D01*
X45500Y113000D01*
Y117500D02*
X46500Y118500D01*
X47500D01*
X46500Y119500D01*
X47500Y120500D01*
X46500D01*
X45500Y121500D01*
X44500Y120500D01*
X43500D01*
X44500Y119500D01*
X43500Y118500D01*
X44500D01*
X45500Y117500D01*
X21500Y101000D02*
X22500Y102000D01*
X23500D01*
X22500Y103000D01*
X23500Y104000D01*
X22500D01*
X21500Y105000D01*
X20500Y104000D01*
X19500D01*
X20500Y103000D01*
X19500Y102000D01*
X20500D01*
X21500Y101000D01*
Y108500D02*
X22500Y109500D01*
X23500D01*
X22500Y110500D01*
X23500Y111500D01*
X22500D01*
X21500Y112500D01*
X20500Y111500D01*
X19500D01*
X20500Y110500D01*
X19500Y109500D01*
X20500D01*
X21500Y108500D01*
X20744Y59256D02*
X21744Y60256D01*
X22744D01*
X21744Y61256D01*
X22744Y62256D01*
X21744D01*
X20744Y63256D01*
X19744Y62256D01*
X18744D01*
X19744Y61256D01*
X18744Y60256D01*
X19744D01*
X20744Y59256D01*
X-24500Y42000D02*
X-23500Y43000D01*
X-22500D01*
X-23500Y44000D01*
X-22500Y45000D01*
X-23500D01*
X-24500Y46000D01*
X-25500Y45000D01*
X-26500D01*
X-25500Y44000D01*
X-26500Y43000D01*
X-25500D01*
X-24500Y42000D01*
X-43000Y8000D02*
X-42000Y9000D01*
X-41000D01*
X-42000Y10000D01*
X-41000Y11000D01*
X-42000D01*
X-43000Y12000D01*
X-44000Y11000D01*
X-45000D01*
X-44000Y10000D01*
X-45000Y9000D01*
X-44000D01*
X-43000Y8000D01*
Y18000D02*
X-42000Y19000D01*
X-41000D01*
X-42000Y20000D01*
X-41000Y21000D01*
X-42000D01*
X-43000Y22000D01*
X-44000Y21000D01*
X-45000D01*
X-44000Y20000D01*
X-45000Y19000D01*
X-44000D01*
X-43000Y18000D01*
X-3626Y91626D02*
X-2626Y92626D01*
X-1626D01*
X-2626Y93626D01*
X-1626Y94626D01*
X-2626D01*
X-3626Y95626D01*
X-4626Y94626D01*
X-5626D01*
X-4626Y93626D01*
X-5626Y92626D01*
X-4626D01*
X-3626Y91626D01*
X-28500Y-121500D02*
X-27500Y-120500D01*
X-26500D01*
X-27500Y-119500D01*
X-26500Y-118500D01*
X-27500D01*
X-28500Y-117500D01*
X-29500Y-118500D01*
X-30500D01*
X-29500Y-119500D01*
X-30500Y-120500D01*
X-29500D01*
X-28500Y-121500D01*
X27500D02*
X28500Y-120500D01*
X29500D01*
X28500Y-119500D01*
X29500Y-118500D01*
X28500D01*
X27500Y-117500D01*
X26500Y-118500D01*
X25500D01*
X26500Y-119500D01*
X25500Y-120500D01*
X26500D01*
X27500Y-121500D01*
X15500Y-96500D02*
X16500Y-95500D01*
X17500D01*
X16500Y-94500D01*
X17500Y-93500D01*
X16500D01*
X15500Y-92500D01*
X14500Y-93500D01*
X13500D01*
X14500Y-94500D01*
X13500Y-95500D01*
X14500D01*
X15500Y-96500D01*
Y-91000D02*
X16500Y-90000D01*
X17500D01*
X16500Y-89000D01*
X17500Y-88000D01*
X16500D01*
X15500Y-87000D01*
X14500Y-88000D01*
X13500D01*
X14500Y-89000D01*
X13500Y-90000D01*
X14500D01*
X15500Y-91000D01*
X11000Y-81500D02*
X12000Y-80500D01*
X13000D01*
X12000Y-79500D01*
X13000Y-78500D01*
X12000D01*
X11000Y-77500D01*
X10000Y-78500D01*
X9000D01*
X10000Y-79500D01*
X9000Y-80500D01*
X10000D01*
X11000Y-81500D01*
X5500D02*
X6500Y-80500D01*
X7500D01*
X6500Y-79500D01*
X7500Y-78500D01*
X6500D01*
X5500Y-77500D01*
X4500Y-78500D01*
X3500D01*
X4500Y-79500D01*
X3500Y-80500D01*
X4500D01*
X5500Y-81500D01*
X0D02*
X1000Y-80500D01*
X2000D01*
X1000Y-79500D01*
X2000Y-78500D01*
X1000D01*
X0Y-77500D01*
X-1000Y-78500D01*
X-2000D01*
X-1000Y-79500D01*
X-2000Y-80500D01*
X-1000D01*
X0Y-81500D01*
X-5000Y-85500D02*
X-4000Y-84500D01*
X-3000D01*
X-4000Y-83500D01*
X-3000Y-82500D01*
X-4000D01*
X-5000Y-81500D01*
X-6000Y-82500D01*
X-7000D01*
X-6000Y-83500D01*
X-7000Y-84500D01*
X-6000D01*
X-5000Y-85500D01*
Y-91000D02*
X-4000Y-90000D01*
X-3000D01*
X-4000Y-89000D01*
X-3000Y-88000D01*
X-4000D01*
X-5000Y-87000D01*
X-6000Y-88000D01*
X-7000D01*
X-6000Y-89000D01*
X-7000Y-90000D01*
X-6000D01*
X-5000Y-91000D01*
Y-96500D02*
X-4000Y-95500D01*
X-3000D01*
X-4000Y-94500D01*
X-3000Y-93500D01*
X-4000D01*
X-5000Y-92500D01*
X-6000Y-93500D01*
X-7000D01*
X-6000Y-94500D01*
X-7000Y-95500D01*
X-6000D01*
X-5000Y-96500D01*
X-23500Y-106500D02*
X-22500Y-105500D01*
X-21500D01*
X-22500Y-104500D01*
X-21500Y-103500D01*
X-22500D01*
X-23500Y-102500D01*
X-24500Y-103500D01*
X-25500D01*
X-24500Y-104500D01*
X-25500Y-105500D01*
X-24500D01*
X-23500Y-106500D01*
X-27500Y-101500D02*
X-26500Y-100500D01*
X-25500D01*
X-26500Y-99500D01*
X-25500Y-98500D01*
X-26500D01*
X-27500Y-97500D01*
X-28500Y-98500D01*
X-29500D01*
X-28500Y-99500D01*
X-29500Y-100500D01*
X-28500D01*
X-27500Y-101500D01*
X10500Y84500D02*
X11500Y85500D01*
X12500D01*
X11500Y86500D01*
X12500Y87500D01*
X11500D01*
X10500Y88500D01*
X9500Y87500D01*
X8500D01*
X9500Y86500D01*
X8500Y85500D01*
X9500D01*
X10500Y84500D01*
Y88000D02*
X11500Y89000D01*
X12500D01*
X11500Y90000D01*
X12500Y91000D01*
X11500D01*
X10500Y92000D01*
X9500Y91000D01*
X8500D01*
X9500Y90000D01*
X8500Y89000D01*
X9500D01*
X10500Y88000D01*
X641Y81509D02*
X1641Y82509D01*
X2641D01*
X1641Y83509D01*
X2641Y84509D01*
X1641D01*
X641Y85509D01*
X-359Y84509D01*
X-1359D01*
X-359Y83509D01*
X-1359Y82509D01*
X-359D01*
X641Y81509D01*
X-37000Y80500D02*
X-36000Y81500D01*
X-35000D01*
X-36000Y82500D01*
X-35000Y83500D01*
X-36000D01*
X-37000Y84500D01*
X-38000Y83500D01*
X-39000D01*
X-38000Y82500D01*
X-39000Y81500D01*
X-38000D01*
X-37000Y80500D01*
X-47000Y70000D02*
X-46000Y71000D01*
X-45000D01*
X-46000Y72000D01*
X-45000Y73000D01*
X-46000D01*
X-47000Y74000D01*
X-48000Y73000D01*
X-49000D01*
X-48000Y72000D01*
X-49000Y71000D01*
X-48000D01*
X-47000Y70000D01*
D88*
X9008Y101043D02*
G03*
X9008Y101043I-2000J0D01*
G01*
X-25008D02*
G03*
X-25008Y101043I-2000J0D01*
G01*
M02*
