G04*
G04 #@! TF.GenerationSoftware,Altium Limited,Altium Designer,25.2.1 (25)*
G04*
G04 Layer_Color=16711935*
%FSLAX25Y25*%
%MOIN*%
G70*
G04*
G04 #@! TF.SameCoordinates,6E7B483F-BFF1-4FB3-8246-CE29AB42D2EF*
G04*
G04*
G04 #@! TF.FilePolarity,Positive*
G04*
G01*
G75*
%ADD85C,0.00394*%
D85*
X-2032Y4138D02*
Y15161D01*
X-5968D02*
X-2032D01*
X-5968Y4138D02*
Y15161D01*
Y4138D02*
X-2032D01*
X3968Y4138D02*
Y15161D01*
X32D02*
X3968D01*
X32Y4138D02*
Y15161D01*
Y4138D02*
X3968D01*
X9968Y4138D02*
Y15161D01*
X6032D02*
X9968D01*
X6032Y4138D02*
Y15161D01*
Y4138D02*
X9968D01*
X4661Y-1469D02*
Y2468D01*
X-6362Y-1469D02*
X4661D01*
X-6362Y2468D02*
X4661D01*
X-6362Y-1469D02*
Y2468D01*
X3661Y17531D02*
Y21468D01*
X-7362D02*
X3661D01*
X-7362Y17531D02*
Y21468D01*
Y17531D02*
X3661D01*
X16661Y21531D02*
Y25469D01*
X5638D02*
X16661D01*
X5638Y21531D02*
Y25469D01*
Y21531D02*
X16661D01*
X18969Y7638D02*
Y18661D01*
X15032D02*
X18969D01*
X15032Y7638D02*
X18969D01*
X15032D02*
Y18661D01*
X-18638Y77031D02*
Y80968D01*
X-29661D02*
X-18638D01*
X-29661Y77031D02*
X-18638D01*
X-29661D02*
Y80968D01*
X18661Y70031D02*
Y73968D01*
X7638D02*
X18661D01*
X7638Y70031D02*
Y73968D01*
Y70031D02*
X18661D01*
Y65031D02*
Y68968D01*
X7638D02*
X18661D01*
X7638Y65031D02*
Y68968D01*
Y65031D02*
X18661D01*
X18969Y97138D02*
Y108161D01*
X15032D02*
X18969D01*
X15032Y97138D02*
Y108161D01*
Y97138D02*
X18969D01*
X30862Y112531D02*
Y116469D01*
X19839Y112531D02*
X30862D01*
X19839Y116469D02*
X30862D01*
X19839Y112531D02*
Y116469D01*
X43661Y117532D02*
Y121468D01*
X32638D02*
X43661D01*
X32638Y117532D02*
Y121468D01*
Y117532D02*
X43661D01*
Y112531D02*
Y116469D01*
X32638D02*
X43661D01*
X32638Y112531D02*
Y116469D01*
Y112531D02*
X43661D01*
X-14638Y25532D02*
Y29469D01*
X-25661D02*
X-14638D01*
X-25661Y25532D02*
Y29469D01*
Y25532D02*
X-14638D01*
X32362Y3032D02*
Y6968D01*
X21339D02*
X32362D01*
X21339Y3032D02*
Y6968D01*
Y3032D02*
X32362D01*
Y-1969D02*
Y1969D01*
X21339Y-1969D02*
X32362D01*
X21339Y1969D02*
X32362D01*
X21339Y-1969D02*
Y1969D01*
X43968Y14138D02*
Y25161D01*
X40031D02*
X43968D01*
X40031Y14138D02*
X43968D01*
X40031D02*
Y25161D01*
X3968Y-32862D02*
Y-21839D01*
X32D02*
X3968D01*
X32Y-32862D02*
Y-21839D01*
Y-32862D02*
X3968D01*
X-1032D02*
Y-21839D01*
X-4969D02*
X-1032D01*
X-4969Y-32862D02*
Y-21839D01*
Y-32862D02*
X-1032D01*
X-6032D02*
Y-21839D01*
X-9968D02*
X-6032D01*
X-9968Y-32862D02*
Y-21839D01*
Y-32862D02*
X-6032D01*
X-43138Y94532D02*
Y98469D01*
X-54161Y94532D02*
X-43138D01*
X-54161Y98469D02*
X-43138D01*
X-54161Y94532D02*
Y98469D01*
X-45031Y74339D02*
Y85362D01*
X-48968Y74339D02*
X-45031D01*
X-48968Y85362D02*
X-45031D01*
X-48968Y74339D02*
Y85362D01*
X38469Y14138D02*
Y25161D01*
X34532D02*
X38469D01*
X34532Y14138D02*
Y25161D01*
Y14138D02*
X38469D01*
X18969Y-8161D02*
Y2862D01*
X15032Y-8161D02*
X18969D01*
X15032Y2862D02*
X18969D01*
X15032Y-8161D02*
Y2862D01*
X-6032Y-45161D02*
Y-34138D01*
X-9968D02*
X-6032D01*
X-9968Y-45161D02*
Y-34138D01*
Y-45161D02*
X-6032D01*
X-31532Y9138D02*
Y20161D01*
X-35469D02*
X-31532D01*
X-35469Y9138D02*
Y20161D01*
Y9138D02*
X-31532D01*
X16969Y-40362D02*
Y-29339D01*
X13032D02*
X16969D01*
X13032Y-40362D02*
Y-29339D01*
Y-40362D02*
X16969D01*
X40968Y81839D02*
Y92862D01*
X37031Y81839D02*
X40968D01*
X37031Y92862D02*
X40968D01*
X37031Y81839D02*
Y92862D01*
X45968Y81839D02*
Y92862D01*
X42031Y81839D02*
X45968D01*
X42031Y92862D02*
X45968D01*
X42031Y81839D02*
Y92862D01*
X-26032Y83638D02*
Y94661D01*
X-29969D02*
X-26032D01*
X-29969Y83638D02*
Y94661D01*
Y83638D02*
X-26032D01*
X-22031Y64638D02*
Y75661D01*
X-25969D02*
X-22031D01*
X-25969Y64638D02*
X-22031D01*
X-25969D02*
Y75661D01*
X-27031Y61638D02*
Y72661D01*
X-30968D02*
X-27031D01*
X-30968Y61638D02*
Y72661D01*
Y61638D02*
X-27031D01*
X-14638Y30531D02*
Y34468D01*
X-25661Y30531D02*
X-14638D01*
X-25661Y34468D02*
X-14638D01*
X-25661Y30531D02*
Y34468D01*
X3968Y22839D02*
Y33862D01*
X32D02*
X3968D01*
X32Y22839D02*
Y33862D01*
Y22839D02*
X3968D01*
X49661Y-47969D02*
Y-44032D01*
X38638Y-47969D02*
X49661D01*
X38638Y-44032D02*
X49661D01*
X38638Y-47969D02*
Y-44032D01*
X42968Y-65362D02*
Y-54339D01*
X39031Y-65362D02*
X42968D01*
X39031Y-54339D02*
X42968D01*
X39031Y-65362D02*
Y-54339D01*
X42968Y-116862D02*
Y-105839D01*
X39031D02*
X42968D01*
X39031Y-116862D02*
Y-105839D01*
Y-116862D02*
X42968D01*
X47969D02*
Y-105839D01*
X44032D02*
X47969D01*
X44032Y-116862D02*
Y-105839D01*
Y-116862D02*
X47969D01*
X16969Y-27362D02*
Y-16339D01*
X13032D02*
X16969D01*
X13032Y-27362D02*
Y-16339D01*
Y-27362D02*
X16969D01*
X35969Y81839D02*
Y92862D01*
X32032Y81839D02*
X35969D01*
X32032Y92862D02*
X35969D01*
X32032Y81839D02*
Y92862D01*
X25969Y81839D02*
Y92862D01*
X22031Y81839D02*
X25969D01*
X22031Y92862D02*
X25969D01*
X22031Y81839D02*
Y92862D01*
X-41532Y-63161D02*
Y-52138D01*
X-45469D02*
X-41532D01*
X-45469Y-63161D02*
Y-52138D01*
Y-63161D02*
X-41532D01*
X-21032Y83638D02*
Y94661D01*
X-24969D02*
X-21032D01*
X-24969Y83638D02*
Y94661D01*
Y83638D02*
X-21032D01*
X-1032Y-45161D02*
Y-34138D01*
X-4969D02*
X-1032D01*
X-4969Y-45161D02*
Y-34138D01*
Y-45161D02*
X-1032D01*
X-13532Y77638D02*
Y88661D01*
X-17469D02*
X-13532D01*
X-17469Y77638D02*
X-13532D01*
X-17469D02*
Y88661D01*
X3968Y-45161D02*
Y-34138D01*
X32D02*
X3968D01*
X32Y-45161D02*
Y-34138D01*
Y-45161D02*
X3968D01*
X30968Y80839D02*
Y91862D01*
X27031Y80839D02*
X30968D01*
X27031Y91862D02*
X30968D01*
X27031Y80839D02*
Y91862D01*
X-31638Y76531D02*
Y80468D01*
X-42661Y76531D02*
X-31638D01*
X-42661Y80468D02*
X-31638D01*
X-42661Y76531D02*
Y80468D01*
X62661Y-86468D02*
Y-82531D01*
X51638Y-86468D02*
X62661D01*
X51638Y-82531D02*
X62661D01*
X51638Y-86468D02*
Y-82531D01*
X50362Y-86468D02*
Y-82531D01*
X39339D02*
X50362D01*
X39339Y-86468D02*
Y-82531D01*
Y-86468D02*
X50362D01*
X-2638Y30531D02*
Y34468D01*
X-13661D02*
X-2638D01*
X-13661Y30531D02*
Y34468D01*
Y30531D02*
X-2638D01*
X-2339Y25532D02*
Y29469D01*
X-13362D02*
X-2339D01*
X-13362Y25532D02*
Y29469D01*
Y25532D02*
X-2339D01*
X16661Y26531D02*
Y30468D01*
X5638D02*
X16661D01*
X5638Y26531D02*
Y30468D01*
Y26531D02*
X16661D01*
X65661Y-49468D02*
Y-45531D01*
X54638D02*
X65661D01*
X54638Y-49468D02*
Y-45531D01*
Y-49468D02*
X65661D01*
M02*
