G04*
G04 #@! TF.GenerationSoftware,Altium Limited,Altium Designer,25.2.1 (25)*
G04*
G04 Layer_Color=65535*
%FSLAX25Y25*%
%MOIN*%
G70*
G04*
G04 #@! TF.SameCoordinates,6E7B483F-BFF1-4FB3-8246-CE29AB42D2EF*
G04*
G04*
G04 #@! TF.FilePolarity,Positive*
G04*
G01*
G75*
%ADD10C,0.00600*%
%ADD11C,0.02000*%
%ADD12C,0.00787*%
%ADD13C,0.00984*%
%ADD14C,0.00000*%
%ADD15C,0.00500*%
D10*
X20381Y15453D02*
G03*
X20381Y15453I-400J0D01*
G01*
X11700Y33000D02*
G03*
X11700Y33000I-500J0D01*
G01*
X52300Y-28533D02*
Y-21327D01*
X27700Y-28533D02*
Y-18467D01*
X28360Y-11200D02*
X51640D01*
X28360Y-35800D02*
X51640D01*
X2750Y37500D02*
Y41590D01*
Y37500D02*
X9250D01*
Y42660D02*
Y45340D01*
X2750Y46410D02*
Y50500D01*
X9250D01*
X-11750Y42660D02*
Y45340D01*
X-18250Y50500D02*
X-11750D01*
X-18250Y37500D02*
X-11750D01*
X-18250Y46410D02*
Y50500D01*
Y37500D02*
Y41590D01*
X-33533Y-11700D02*
X-23467D01*
X-16200Y-35640D02*
Y-12360D01*
X-40800Y-35640D02*
Y-12360D01*
X-33533Y-36300D02*
X-25824D01*
X-30900Y89300D02*
Y91700D01*
Y88100D02*
Y89300D01*
Y91700D02*
Y92900D01*
X47550Y103280D02*
Y110450D01*
X65450D01*
X47550Y92550D02*
Y98120D01*
Y92550D02*
X65450D01*
Y110450D01*
D11*
X60710Y-32871D02*
G03*
X60710Y-31845I-1410J513D01*
G01*
X-37871Y-44710D02*
G03*
X-36845Y-44710I513J1410D01*
G01*
D12*
X-2201Y78102D02*
G03*
X-2201Y78102I-394J0D01*
G01*
X40197Y-119468D02*
G03*
X40197Y-119468I-394J0D01*
G01*
X10842Y82563D02*
G03*
X10842Y82563I-394J0D01*
G01*
X3189Y93878D02*
G03*
X3189Y93878I-394J0D01*
G01*
X50453Y70350D02*
Y75563D01*
X44547Y70350D02*
Y76650D01*
X26507Y67385D02*
X41493D01*
X26507Y79615D02*
X39134D01*
X57102Y2531D02*
Y11095D01*
X44898Y2531D02*
Y6370D01*
X45453Y43350D02*
Y49650D01*
X39547Y44948D02*
Y47606D01*
X47508Y44385D02*
X62493D01*
X47508Y56615D02*
X62493D01*
X53528Y61126D02*
X55472D01*
X53528Y65874D02*
X55472D01*
X-11602Y6626D02*
X-10126D01*
Y8102D01*
X-25874Y20898D02*
Y22374D01*
X-24398D01*
X-10126Y20898D02*
Y22374D01*
X-11602D02*
X-10126D01*
X45807Y-67193D02*
X46595D01*
X45807Y-54594D02*
Y-53807D01*
Y-67193D02*
Y-66405D01*
Y-53807D02*
X46595D01*
X58406D02*
X59193D01*
Y-54594D02*
Y-53807D01*
X58406Y-67193D02*
X59193D01*
Y-66405D01*
X-61295Y-108591D02*
Y92590D01*
X-50705Y-108591D02*
Y92590D01*
X-61295Y-108591D02*
X-50705D01*
X-61295Y92590D02*
X-50705D01*
X25297Y54547D02*
X26650D01*
X22076D02*
X23354D01*
X22330Y60453D02*
X24624D01*
X-27598Y122697D02*
Y125925D01*
Y107067D02*
Y111988D01*
X7598Y107067D02*
Y111988D01*
Y122697D02*
Y125925D01*
D13*
X-27965Y18339D02*
G03*
X-27965Y18339I-492J0D01*
G01*
X62244Y-66602D02*
G03*
X62244Y-66602I-492J0D01*
G01*
X-55508Y-110362D02*
G03*
X-55508Y-110362I-492J0D01*
G01*
D14*
X-30900Y91700D02*
G03*
X-30900Y89300I0J-1200D01*
G01*
D15*
X24626Y107370D02*
Y108905D01*
X40374Y97095D02*
Y98630D01*
X24626Y97095D02*
Y98630D01*
X40374Y107370D02*
Y108905D01*
X-18342Y54658D02*
Y56803D01*
Y72197D02*
Y74343D01*
X-16197D01*
X-803D02*
X1343D01*
X-18342Y54658D02*
X-16197D01*
X1343Y72197D02*
Y74343D01*
X-803Y54658D02*
X1343D01*
Y56803D01*
X35079Y-51437D02*
Y-48563D01*
X30177D02*
X35079D01*
Y-148957D02*
Y-122500D01*
X-35787Y-48563D02*
X-30886D01*
X-35787Y-51437D02*
Y-48563D01*
Y-148957D02*
X35079D01*
X-35787D02*
Y-122500D01*
X-2199Y92658D02*
X4199D01*
X-2199Y80343D02*
X4199D01*
M02*
