G04*
G04 #@! TF.GenerationSoftware,Altium Limited,Altium Designer,25.2.1 (25)*
G04*
G04 Layer_Color=255*
%FSLAX25Y25*%
%MOIN*%
G70*
G04*
G04 #@! TF.SameCoordinates,6E7B483F-BFF1-4FB3-8246-CE29AB42D2EF*
G04*
G04*
G04 #@! TF.FilePolarity,Positive*
G04*
G01*
G75*
%ADD77C,0.06299*%
G04:AMPARAMS|DCode=78|XSize=62.99mil|YSize=62.99mil|CornerRadius=15.75mil|HoleSize=0mil|Usage=FLASHONLY|Rotation=90.000|XOffset=0mil|YOffset=0mil|HoleType=Round|Shape=RoundedRectangle|*
%AMROUNDEDRECTD78*
21,1,0.06299,0.03150,0,0,90.0*
21,1,0.03150,0.06299,0,0,90.0*
1,1,0.03150,0.01575,0.01575*
1,1,0.03150,0.01575,-0.01575*
1,1,0.03150,-0.01575,-0.01575*
1,1,0.03150,-0.01575,0.01575*
%
%ADD78ROUNDEDRECTD78*%
G04:AMPARAMS|DCode=79|XSize=70.87mil|YSize=39.37mil|CornerRadius=9.84mil|HoleSize=0mil|Usage=FLASHONLY|Rotation=270.000|XOffset=0mil|YOffset=0mil|HoleType=Round|Shape=RoundedRectangle|*
%AMROUNDEDRECTD79*
21,1,0.07087,0.01968,0,0,270.0*
21,1,0.05118,0.03937,0,0,270.0*
1,1,0.01968,-0.00984,-0.02559*
1,1,0.01968,-0.00984,0.02559*
1,1,0.01968,0.00984,0.02559*
1,1,0.01968,0.00984,-0.02559*
%
%ADD79ROUNDEDRECTD79*%
%ADD80O,0.03937X0.08268*%
%ADD81C,0.02559*%
%ADD83R,0.12500X0.05000*%
D77*
X-56000Y-3000D02*
D03*
Y-13000D02*
D03*
Y7000D02*
D03*
Y-43000D02*
D03*
Y-33000D02*
D03*
Y17000D02*
D03*
Y57000D02*
D03*
Y-93000D02*
D03*
Y-83000D02*
D03*
Y-63000D02*
D03*
Y-53000D02*
D03*
Y-73000D02*
D03*
Y27000D02*
D03*
Y37000D02*
D03*
Y77000D02*
D03*
Y87000D02*
D03*
Y47000D02*
D03*
Y67000D02*
D03*
Y-23000D02*
D03*
D78*
Y-103000D02*
D03*
D79*
X7008Y117500D02*
D03*
X-27008D02*
D03*
D80*
X7008Y101043D02*
D03*
X-27008D02*
D03*
D81*
X1378Y104512D02*
D03*
X-21378D02*
D03*
D83*
X-43000Y15000D02*
D03*
Y5000D02*
D03*
Y25000D02*
D03*
M02*
